M48
; DRILL file {KiCad 8.0.5} date 2024-11-21T18:49:51-0500
; FORMAT={-:-/ absolute / inch / decimal}
; #@! TF.CreationDate,2024-11-21T18:49:51-05:00
; #@! TF.GenerationSoftware,Kicad,Pcbnew,8.0.5
; #@! TF.FileFunction,Plated,1,2,PTH
FMAT,2
INCH
; #@! TA.AperFunction,Plated,PTH,ViaDrill
T1C0.0197
; #@! TA.AperFunction,Plated,PTH,ComponentDrill
T2C0.0236
; #@! TA.AperFunction,Plated,PTH,ComponentDrill
T3C0.0276
; #@! TA.AperFunction,Plated,PTH,ComponentDrill
T4C0.0315
; #@! TA.AperFunction,Plated,PTH,ComponentDrill
T5C0.0394
; #@! TA.AperFunction,Plated,PTH,ComponentDrill
T6C0.0433
; #@! TA.AperFunction,Plated,PTH,ComponentDrill
T7C0.0472
; #@! TA.AperFunction,Plated,PTH,ComponentDrill
T8C0.0512
; #@! TA.AperFunction,Plated,PTH,ComponentDrill
T9C0.0551
; #@! TA.AperFunction,Plated,PTH,ComponentDrill
T10C0.0591
; #@! TA.AperFunction,Plated,PTH,ComponentDrill
T11C0.1260
%
G90
G05
T1
X8.6419Y-2.4
T2
X7.9409Y-2.0
X8.0197Y-2.0
X10.3909Y-2.875
X10.4697Y-2.875
T3
X7.7Y-2.78
X7.7Y-3.08
X7.85Y-2.78
X7.85Y-3.08
X8.0Y-3.05
X8.3Y-3.05
X8.325Y-3.65
X8.325Y-3.95
X8.425Y-2.325
X8.425Y-2.625
X8.525Y-3.65
X8.525Y-3.95
X8.575Y-2.325
X8.575Y-2.625
X8.725Y-1.35
X8.725Y-1.65
X8.725Y-1.75
X8.725Y-2.05
X8.9Y-1.75
X8.9Y-2.05
X8.925Y-1.35
X8.925Y-1.65
X10.55Y-3.15
X10.575Y-2.65
X10.85Y-3.15
X10.875Y-2.65
T4
X7.7Y-1.9766
X7.7Y-2.1734
X7.71Y-1.66
X7.71Y-1.76
X7.975Y-1.6611
X7.975Y-1.7611
X8.025Y-2.575
X8.025Y-2.875
X8.025Y-3.8266
X8.025Y-4.0234
X8.125Y-2.475
X8.125Y-2.775
X8.1553Y-1.4
X8.1553Y-1.8
X8.225Y-2.1
X8.225Y-2.575
X8.225Y-2.875
X8.2553Y-1.3
X8.2553Y-1.5
X8.2553Y-1.7
X8.2553Y-1.9
X8.325Y-2.1
X8.4197Y-1.3
X8.4197Y-1.5
X8.4227Y-2.925
X8.425Y-1.7
X8.425Y-1.9
X8.425Y-2.1
X8.43Y-3.4203
X8.5197Y-1.4
X8.525Y-1.8
X8.53Y-3.3203
X8.6196Y-2.925
X8.63Y-3.4203
X8.775Y-2.3303
X8.7766Y-2.575
X8.875Y-2.2303
X8.9734Y-2.575
X8.975Y-2.3303
X9.2016Y-1.375
X9.2266Y-4.25
X9.3984Y-1.375
X9.4234Y-4.25
X9.9Y-2.3516
X9.9Y-2.5484
X10.06Y-3.56
X10.06Y-3.86
X10.075Y-1.775
X10.075Y-2.075
X10.175Y-2.8
X10.175Y-2.9
X10.175Y-3.0
X10.425Y-2.6
X10.425Y-2.7
X10.425Y-3.05
X10.425Y-3.15
T5
X8.68Y-3.7354
X8.68Y-3.8252
X8.68Y-3.915
X9.1602Y-2.3604
X9.1602Y-2.4502
X9.1602Y-2.54
X10.7302Y-2.8
X10.7302Y-2.8898
X10.7302Y-2.9795
T6
X9.625Y-1.375
X9.65Y-4.25
X9.85Y-1.775
X9.85Y-2.175
X9.85Y-3.45
X9.85Y-3.85
X9.975Y-1.575
X10.025Y-1.375
X10.05Y-4.25
X10.16Y-4.06
X10.375Y-1.575
X10.56Y-4.06
T7
X7.8Y-2.3553
X7.8Y-2.4931
X7.825Y-3.425
X7.825Y-4.025
X9.325Y-3.6297
X9.325Y-3.925
X9.35Y-1.7131
X9.35Y-2.0084
X9.45Y-2.35
X9.45Y-2.55
X9.75Y-2.69
X9.75Y-3.29
X10.25Y-1.85
X10.25Y-2.45
X10.25Y-3.3
X10.25Y-3.9
T8
X9.3Y-2.9031
X9.3Y-3.1
T9
X8.84Y-3.275
X8.84Y-3.475
X10.25Y-1.4
X10.275Y-4.325
X10.45Y-1.4
X10.475Y-4.325
T10
X10.715Y-2.0
X10.715Y-2.2146
X10.715Y-2.4291
X10.725Y-3.3354
X10.725Y-3.55
X10.725Y-3.7646
T11
X7.75Y-4.3
M30
