%TF.GenerationSoftware,KiCad,Pcbnew,8.0.5*%
%TF.CreationDate,2024-11-21T18:49:45-05:00*%
%TF.ProjectId,classab-amp,636c6173-7361-4622-9d61-6d702e6b6963,rev?*%
%TF.SameCoordinates,Original*%
%TF.FileFunction,Copper,L1,Top*%
%TF.FilePolarity,Positive*%
%FSLAX46Y46*%
G04 Gerber Fmt 4.6, Leading zero omitted, Abs format (unit mm)*
G04 Created by KiCad (PCBNEW 8.0.5) date 2024-11-21 18:49:45*
%MOMM*%
%LPD*%
G01*
G04 APERTURE LIST*
%TA.AperFunction,ComponentPad*%
%ADD10C,1.400000*%
%TD*%
%TA.AperFunction,ComponentPad*%
%ADD11O,1.400000X1.400000*%
%TD*%
%TA.AperFunction,ComponentPad*%
%ADD12C,2.400000*%
%TD*%
%TA.AperFunction,ComponentPad*%
%ADD13O,2.400000X2.400000*%
%TD*%
%TA.AperFunction,ComponentPad*%
%ADD14R,1.500000X1.500000*%
%TD*%
%TA.AperFunction,ComponentPad*%
%ADD15C,1.500000*%
%TD*%
%TA.AperFunction,ComponentPad*%
%ADD16R,2.400000X2.400000*%
%TD*%
%TA.AperFunction,ComponentPad*%
%ADD17R,2.200000X2.200000*%
%TD*%
%TA.AperFunction,ComponentPad*%
%ADD18O,2.200000X2.200000*%
%TD*%
%TA.AperFunction,ComponentPad*%
%ADD19C,1.600000*%
%TD*%
%TA.AperFunction,ComponentPad*%
%ADD20C,3.000000*%
%TD*%
%TA.AperFunction,ComponentPad*%
%ADD21R,1.800000X1.710000*%
%TD*%
%TA.AperFunction,ComponentPad*%
%ADD22O,1.800000X1.710000*%
%TD*%
%TA.AperFunction,ComponentPad*%
%ADD23R,1.200000X1.200000*%
%TD*%
%TA.AperFunction,ComponentPad*%
%ADD24C,1.200000*%
%TD*%
%TA.AperFunction,ComponentPad*%
%ADD25O,1.600000X1.600000*%
%TD*%
%TA.AperFunction,ComponentPad*%
%ADD26R,2.600000X2.600000*%
%TD*%
%TA.AperFunction,ComponentPad*%
%ADD27C,2.600000*%
%TD*%
%TA.AperFunction,ComponentPad*%
%ADD28C,5.700000*%
%TD*%
%TA.AperFunction,ComponentPad*%
%ADD29C,1.308000*%
%TD*%
%TA.AperFunction,ComponentPad*%
%ADD30R,4.500000X2.500000*%
%TD*%
%TA.AperFunction,ComponentPad*%
%ADD31O,4.500000X2.500000*%
%TD*%
%TA.AperFunction,ComponentPad*%
%ADD32R,1.600000X1.600000*%
%TD*%
%TA.AperFunction,ViaPad*%
%ADD33C,1.000000*%
%TD*%
%TA.AperFunction,Conductor*%
%ADD34C,1.000000*%
%TD*%
%TA.AperFunction,Conductor*%
%ADD35C,0.500000*%
%TD*%
%TA.AperFunction,Conductor*%
%ADD36C,5.000000*%
%TD*%
%TA.AperFunction,Conductor*%
%ADD37C,2.000000*%
%TD*%
G04 APERTURE END LIST*
D10*
%TO.P,R22,1*%
%TO.N,GNDS*%
X195580000Y-70612000D03*
D11*
%TO.P,R22,2*%
%TO.N,PWRGND*%
X195580000Y-78232000D03*
%TD*%
D12*
%TO.P,R16,1*%
%TO.N,Net-(D8-A)*%
X260350000Y-46990000D03*
D13*
%TO.P,R16,2*%
%TO.N,Net-(D11-K)*%
X260350000Y-62230000D03*
%TD*%
D14*
%TO.P,Q16,1,E*%
%TO.N,Net-(Q16-E)*%
X222885000Y-59190000D03*
D15*
%TO.P,Q16,2,B*%
%TO.N,Net-(Q16-B)*%
X225425000Y-56650000D03*
%TO.P,Q16,3,C*%
%TO.N,PWRGND*%
X227965000Y-59190000D03*
%TD*%
D16*
%TO.P,C14,1*%
%TO.N,B+*%
X237490000Y-43512220D03*
D12*
%TO.P,C14,2*%
%TO.N,PWRGND*%
X237490000Y-51012220D03*
%TD*%
D14*
%TO.P,Q4,1,E*%
%TO.N,Net-(Q4-E)*%
X209685000Y-38100000D03*
D15*
%TO.P,Q4,2,B*%
%TO.N,/LTP COM*%
X207145000Y-35560000D03*
%TO.P,Q4,3,C*%
%TO.N,Net-(Q16-B)*%
X209685000Y-33020000D03*
%TD*%
D14*
%TO.P,Q1,1,E*%
%TO.N,Net-(Q1-E)*%
X213995000Y-43180000D03*
D15*
%TO.P,Q1,2,B*%
%TO.N,Net-(Q1-B)*%
X216535000Y-45720000D03*
%TO.P,Q1,3,C*%
%TO.N,/LTP COM*%
X213995000Y-48260000D03*
%TD*%
D10*
%TO.P,R5,1*%
%TO.N,Net-(Q11-B)*%
X210820000Y-77470000D03*
D11*
%TO.P,R5,2*%
%TO.N,B-*%
X203200000Y-77470000D03*
%TD*%
D17*
%TO.P,D6,1,K*%
%TO.N,Net-(D6-K)*%
X250190000Y-55245000D03*
D18*
%TO.P,D6,2,A*%
%TO.N,Net-(D5-A)*%
X250190000Y-45085000D03*
%TD*%
D19*
%TO.P,C2,1*%
%TO.N,Net-(Q2-B)*%
X195580000Y-50205000D03*
%TO.P,C2,2*%
%TO.N,PWRGND*%
X195580000Y-55205000D03*
%TD*%
D10*
%TO.P,R9,1*%
%TO.N,Net-(Q1-B)*%
X217805000Y-59055000D03*
D11*
%TO.P,R9,2*%
%TO.N,Net-(D11-K)*%
X217805000Y-66675000D03*
%TD*%
D10*
%TO.P,R3,1*%
%TO.N,B+*%
X221615000Y-34290000D03*
D11*
%TO.P,R3,2*%
%TO.N,Net-(Q4-E)*%
X221615000Y-41910000D03*
%TD*%
D17*
%TO.P,D11,1,K*%
%TO.N,Net-(D11-K)*%
X250190000Y-87630000D03*
D18*
%TO.P,D11,2,A*%
%TO.N,Net-(D11-A)*%
X250190000Y-97790000D03*
%TD*%
D20*
%TO.P,J2,1,1*%
%TO.N,B-*%
X260985000Y-109855000D03*
%TO.P,J2,2,2*%
X266065000Y-109855000D03*
%TD*%
D21*
%TO.P,Q7,1,E*%
%TO.N,Net-(D4-K)*%
X272548000Y-71120000D03*
D22*
%TO.P,Q7,2,C*%
%TO.N,Net-(D6-K)*%
X272548000Y-73400000D03*
%TO.P,Q7,3,B*%
%TO.N,Net-(Q7-B)*%
X272548000Y-75680000D03*
%TD*%
D17*
%TO.P,D10,1,K*%
%TO.N,PWRGND*%
X245110000Y-107950000D03*
D18*
%TO.P,D10,2,A*%
%TO.N,B-*%
X255270000Y-107950000D03*
%TD*%
D10*
%TO.P,R14,1*%
%TO.N,Net-(Q12-B)*%
X211455000Y-92710000D03*
D11*
%TO.P,R14,2*%
%TO.N,B-*%
X211455000Y-100330000D03*
%TD*%
D20*
%TO.P,J5,1,1*%
%TO.N,PWRGND*%
X224536000Y-88265000D03*
%TO.P,J5,2,2*%
X224536000Y-83185000D03*
%TD*%
D17*
%TO.P,D7,1,K*%
%TO.N,B+*%
X254635000Y-34925000D03*
D18*
%TO.P,D7,2,A*%
%TO.N,PWRGND*%
X244475000Y-34925000D03*
%TD*%
D23*
%TO.P,C6,1*%
%TO.N,Net-(D6-K)*%
X263930000Y-73025000D03*
D24*
%TO.P,C6,2*%
%TO.N,Net-(D4-K)*%
X265930000Y-73025000D03*
%TD*%
D12*
%TO.P,R17,1*%
%TO.N,Net-(D11-K)*%
X260350000Y-83820000D03*
D13*
%TO.P,R17,2*%
%TO.N,Net-(D9-K)*%
X260350000Y-99060000D03*
%TD*%
D19*
%TO.P,R11,1*%
%TO.N,Net-(D6-K)*%
X264795000Y-68580000D03*
D25*
%TO.P,R11,2*%
%TO.N,Net-(Q7-B)*%
X264795000Y-66040000D03*
%TD*%
D10*
%TO.P,R13,1*%
%TO.N,Net-(Q12-C)*%
X216535000Y-92710000D03*
D11*
%TO.P,R13,2*%
%TO.N,PWRGND*%
X216535000Y-100330000D03*
%TD*%
D14*
%TO.P,Q15,1,E*%
%TO.N,Net-(Q11-B)*%
X203835000Y-65405000D03*
D15*
%TO.P,Q15,2,B*%
%TO.N,Net-(Q11-C)*%
X206375000Y-62865000D03*
%TO.P,Q15,3,C*%
%TO.N,Net-(Q15-C)*%
X208915000Y-65405000D03*
%TD*%
D19*
%TO.P,R1,1*%
%TO.N,Net-(C1-Pad2)*%
X202565000Y-44733000D03*
D25*
%TO.P,R1,2*%
%TO.N,Net-(Q2-B)*%
X202565000Y-42193000D03*
%TD*%
D10*
%TO.P,R18,1*%
%TO.N,Net-(D4-K)*%
X267970000Y-80010000D03*
D11*
%TO.P,R18,2*%
%TO.N,Net-(Q10-G)*%
X275590000Y-80010000D03*
%TD*%
D21*
%TO.P,Q8,1,E*%
%TO.N,Net-(Q12-B)*%
X220472000Y-94880000D03*
D22*
%TO.P,Q8,2,C*%
%TO.N,Net-(D4-K)*%
X220472000Y-97160000D03*
%TO.P,Q8,3,B*%
%TO.N,Net-(Q12-C)*%
X220472000Y-99440000D03*
%TD*%
D10*
%TO.P,R7,1*%
%TO.N,PWRGND*%
X213995000Y-59055000D03*
D11*
%TO.P,R7,2*%
%TO.N,Net-(C4-Pad2)*%
X213995000Y-66675000D03*
%TD*%
D26*
%TO.P,J1,1,Pin_1*%
%TO.N,/SPEAKER*%
X236220000Y-73740000D03*
D27*
%TO.P,J1,2,Pin_2*%
%TO.N,PWRGND*%
X236220000Y-78740000D03*
%TD*%
D28*
%TO.P,,1*%
%TO.N,CHASSIS*%
X196850000Y-109220000D03*
%TD*%
D10*
%TO.P,R6,1*%
%TO.N,Net-(Q11-C)*%
X199390000Y-70612000D03*
D11*
%TO.P,R6,2*%
%TO.N,PWRGND*%
X199390000Y-78232000D03*
%TD*%
D29*
%TO.P,RV1,1,1*%
%TO.N,Net-(Q7-B)*%
X258445000Y-71120000D03*
%TO.P,RV1,2,2*%
X258445000Y-73660000D03*
%TO.P,RV1,3,3*%
%TO.N,Net-(R12-Pad1)*%
X258445000Y-76200000D03*
%TD*%
D30*
%TO.P,Q9,1,G*%
%TO.N,Net-(Q9-G)*%
X272161000Y-50800000D03*
D31*
%TO.P,Q9,2,D*%
%TO.N,B+*%
X272161000Y-56250000D03*
%TO.P,Q9,3,S*%
%TO.N,Net-(D8-A)*%
X272161000Y-61700000D03*
%TD*%
D17*
%TO.P,D8,1,K*%
%TO.N,B+*%
X263525000Y-40005000D03*
D18*
%TO.P,D8,2,A*%
%TO.N,Net-(D8-A)*%
X253365000Y-40005000D03*
%TD*%
D10*
%TO.P,R4,1*%
%TO.N,B+*%
X226695000Y-34290000D03*
D11*
%TO.P,R4,2*%
%TO.N,Net-(Q3-E)*%
X226695000Y-41910000D03*
%TD*%
D10*
%TO.P,R8,1*%
%TO.N,Net-(D6-K)*%
X268605000Y-67310000D03*
D11*
%TO.P,R8,2*%
%TO.N,Net-(Q9-G)*%
X276225000Y-67310000D03*
%TD*%
D20*
%TO.P,J4,1,1*%
%TO.N,B+*%
X260350000Y-35560000D03*
%TO.P,J4,2,2*%
X265430000Y-35560000D03*
%TD*%
D32*
%TO.P,D5,1,K*%
%TO.N,Net-(D11-K)*%
X255905000Y-52705000D03*
D25*
%TO.P,D5,2,A*%
%TO.N,Net-(D5-A)*%
X255905000Y-45085000D03*
%TD*%
D10*
%TO.P,R19,1*%
%TO.N,B+*%
X221615000Y-44450000D03*
D11*
%TO.P,R19,2*%
%TO.N,Net-(Q16-E)*%
X221615000Y-52070000D03*
%TD*%
D29*
%TO.P,RV2,1,1*%
%TO.N,Net-(Q1-E)*%
X213995000Y-53340000D03*
%TO.P,RV2,2,2*%
%TO.N,Net-(Q15-C)*%
X211455000Y-53340000D03*
%TO.P,RV2,3,3*%
%TO.N,Net-(Q2-E)*%
X208915000Y-53340000D03*
%TD*%
D16*
%TO.P,J3,1,Pin_1*%
%TO.N,GNDS*%
X198120000Y-59825000D03*
D12*
%TO.P,J3,2,Pin_2*%
%TO.N,Net-(J3-Pin_2)*%
X198120000Y-63325000D03*
%TD*%
D19*
%TO.P,C7,1*%
%TO.N,PWRGND*%
X203835000Y-97195000D03*
%TO.P,C7,2*%
%TO.N,CHASSIS*%
X203835000Y-102195000D03*
%TD*%
D14*
%TO.P,Q12,1,E*%
%TO.N,B-*%
X214122000Y-86876000D03*
D15*
%TO.P,Q12,2,B*%
%TO.N,Net-(Q12-B)*%
X216662000Y-84336000D03*
%TO.P,Q12,3,C*%
%TO.N,Net-(Q12-C)*%
X219202000Y-86876000D03*
%TD*%
D32*
%TO.P,C4,1*%
%TO.N,Net-(Q1-B)*%
X218937651Y-74295000D03*
D19*
%TO.P,C4,2*%
%TO.N,Net-(C4-Pad2)*%
X213937651Y-74295000D03*
%TD*%
%TO.P,R12,1*%
%TO.N,Net-(R12-Pad1)*%
X264795000Y-80010000D03*
D25*
%TO.P,R12,2*%
%TO.N,Net-(D4-K)*%
X264795000Y-77470000D03*
%TD*%
D14*
%TO.P,Q2,1,E*%
%TO.N,Net-(Q2-E)*%
X209685000Y-48260000D03*
D15*
%TO.P,Q2,2,B*%
%TO.N,Net-(Q2-B)*%
X207145000Y-45720000D03*
%TO.P,Q2,3,C*%
%TO.N,Net-(Q16-B)*%
X209685000Y-43180000D03*
%TD*%
D10*
%TO.P,R10,1*%
%TO.N,B+*%
X226060000Y-52070000D03*
D11*
%TO.P,R10,2*%
%TO.N,Net-(Q6-E)*%
X226060000Y-44450000D03*
%TD*%
D32*
%TO.P,D4,1,K*%
%TO.N,Net-(D4-K)*%
X255524000Y-90424000D03*
D25*
%TO.P,D4,2,A*%
%TO.N,Net-(D11-A)*%
X255524000Y-98044000D03*
%TD*%
D21*
%TO.P,Q6,1,E*%
%TO.N,Net-(Q6-E)*%
X232670000Y-59955000D03*
D22*
%TO.P,Q6,2,C*%
%TO.N,Net-(D6-K)*%
X232670000Y-62235000D03*
%TO.P,Q6,3,B*%
%TO.N,Net-(Q16-E)*%
X232670000Y-64515000D03*
%TD*%
D12*
%TO.P,R21,1*%
%TO.N,Net-(D11-K)*%
X247650000Y-83566000D03*
D13*
%TO.P,R21,2*%
%TO.N,/SPEAKER*%
X247650000Y-68326000D03*
%TD*%
D14*
%TO.P,Q3,1,E*%
%TO.N,Net-(Q3-E)*%
X213860000Y-33020000D03*
D15*
%TO.P,Q3,2,B*%
%TO.N,/LTP COM*%
X216400000Y-35560000D03*
%TO.P,Q3,3,C*%
X213860000Y-38100000D03*
%TD*%
D19*
%TO.P,C15,1*%
%TO.N,B-*%
X234355000Y-107950000D03*
%TO.P,C15,2*%
%TO.N,PWRGND*%
X239355000Y-107950000D03*
%TD*%
D17*
%TO.P,D9,1,K*%
%TO.N,Net-(D9-K)*%
X258064000Y-103124000D03*
D18*
%TO.P,D9,2,A*%
%TO.N,B-*%
X268224000Y-103124000D03*
%TD*%
D19*
%TO.P,C3,1*%
%TO.N,Net-(D11-K)*%
X251460000Y-64730000D03*
%TO.P,C3,2*%
%TO.N,Net-(C3-Pad2)*%
X251460000Y-59730000D03*
%TD*%
D16*
%TO.P,C13,1*%
%TO.N,PWRGND*%
X236855000Y-92195000D03*
D12*
%TO.P,C13,2*%
%TO.N,B-*%
X236855000Y-99695000D03*
%TD*%
D19*
%TO.P,R2,1*%
%TO.N,PWRGND*%
X195834000Y-44704000D03*
D25*
%TO.P,R2,2*%
%TO.N,Net-(Q2-B)*%
X195834000Y-42164000D03*
%TD*%
D19*
%TO.P,C5,1*%
%TO.N,Net-(Q16-B)*%
X222925000Y-65405000D03*
%TO.P,C5,2*%
%TO.N,Net-(D6-K)*%
X227925000Y-65405000D03*
%TD*%
D30*
%TO.P,Q10,1,G*%
%TO.N,Net-(Q10-G)*%
X272415000Y-84720000D03*
D31*
%TO.P,Q10,2,D*%
%TO.N,B-*%
X272415000Y-90170000D03*
%TO.P,Q10,3,S*%
%TO.N,Net-(D9-K)*%
X272415000Y-95620000D03*
%TD*%
D14*
%TO.P,Q11,1,E*%
%TO.N,B-*%
X203835000Y-73025000D03*
D15*
%TO.P,Q11,2,B*%
%TO.N,Net-(Q11-B)*%
X206375000Y-70485000D03*
%TO.P,Q11,3,C*%
%TO.N,Net-(Q11-C)*%
X208915000Y-73025000D03*
%TD*%
D12*
%TO.P,R20,1*%
%TO.N,PWRGND*%
X240030000Y-64770000D03*
D13*
%TO.P,R20,2*%
%TO.N,Net-(C3-Pad2)*%
X240030000Y-59690000D03*
%TD*%
D23*
%TO.P,C1,1*%
%TO.N,Net-(J3-Pin_2)*%
X201700000Y-50800000D03*
D24*
%TO.P,C1,2*%
%TO.N,Net-(C1-Pad2)*%
X203700000Y-50800000D03*
%TD*%
D12*
%TO.P,R15,1*%
%TO.N,CHASSIS*%
X198755000Y-102235000D03*
D13*
%TO.P,R15,2*%
%TO.N,PWRGND*%
X198755000Y-86995000D03*
%TD*%
D19*
%TO.P,C16,1*%
%TO.N,PWRGND*%
X233720000Y-34925000D03*
%TO.P,C16,2*%
%TO.N,B+*%
X238720000Y-34925000D03*
%TD*%
D33*
%TO.N,Net-(Q16-B)*%
X219505000Y-60960000D03*
%TD*%
D34*
%TO.N,Net-(D4-K)*%
X253755000Y-88655000D02*
X253755000Y-88265000D01*
X255524000Y-90424000D02*
X253755000Y-88655000D01*
%TO.N,Net-(D11-A)*%
X255270000Y-97790000D02*
X255524000Y-98044000D01*
X250190000Y-97790000D02*
X255270000Y-97790000D01*
%TO.N,B-*%
X210185000Y-101600000D02*
X209550000Y-101600000D01*
X211455000Y-100330000D02*
X210185000Y-101600000D01*
X209550000Y-101600000D02*
X209550000Y-84455000D01*
X209550000Y-102362000D02*
X209550000Y-101600000D01*
X231307000Y-104902000D02*
X212090000Y-104902000D01*
X212090000Y-104902000D02*
X209550000Y-102362000D01*
X234355000Y-107950000D02*
X231307000Y-104902000D01*
%TO.N,Net-(D4-K)*%
X234920000Y-89730000D02*
X227490000Y-97160000D01*
X252290000Y-89730000D02*
X234920000Y-89730000D01*
X227490000Y-97160000D02*
X220472000Y-97160000D01*
X260350000Y-88265000D02*
X253755000Y-88265000D01*
X253755000Y-88265000D02*
X252290000Y-89730000D01*
X267970000Y-80645000D02*
X260350000Y-88265000D01*
%TO.N,Net-(Q12-C)*%
X219202000Y-90043000D02*
X216535000Y-92710000D01*
X219202000Y-86876000D02*
X219202000Y-90043000D01*
%TO.N,Net-(Q12-B)*%
X216662000Y-87503000D02*
X211455000Y-92710000D01*
X216662000Y-84336000D02*
X216662000Y-87503000D01*
%TO.N,Net-(Q11-C)*%
X206375000Y-66365000D02*
X206375000Y-62865000D01*
X199390000Y-70612000D02*
X199517000Y-70485000D01*
X199517000Y-70485000D02*
X202255000Y-70485000D01*
X202255000Y-70485000D02*
X206375000Y-66365000D01*
%TO.N,Net-(D11-K)*%
X255905000Y-57785000D02*
X260350000Y-62230000D01*
X232410000Y-84455000D02*
X246761000Y-84455000D01*
X246761000Y-84455000D02*
X247650000Y-83566000D01*
X217805000Y-66675000D02*
X217805000Y-69850000D01*
X255905000Y-52705000D02*
X255905000Y-57785000D01*
X217805000Y-69850000D02*
X232410000Y-84455000D01*
%TO.N,Net-(D4-K)*%
X267335000Y-71120000D02*
X266065000Y-72390000D01*
X272548000Y-71120000D02*
X267335000Y-71120000D01*
D35*
X267970000Y-80645000D02*
X267970000Y-79375000D01*
D34*
X265430000Y-77470000D02*
X264795000Y-77470000D01*
X266065000Y-76200000D02*
X265430000Y-76835000D01*
X266065000Y-72390000D02*
X266065000Y-76200000D01*
X267970000Y-80010000D02*
X265430000Y-77470000D01*
D35*
X265430000Y-76835000D02*
X264795000Y-77470000D01*
D34*
%TO.N,Net-(Q16-B)*%
X211435000Y-34770000D02*
X211435000Y-41430000D01*
X222925000Y-65405000D02*
X219505000Y-61985000D01*
X209685000Y-33020000D02*
X211435000Y-34770000D01*
X219505000Y-61985000D02*
X219505000Y-60960000D01*
X211435000Y-41430000D02*
X209685000Y-43180000D01*
%TO.N,Net-(Q1-B)*%
X216105000Y-60755000D02*
X217805000Y-59055000D01*
X216105000Y-71462349D02*
X216105000Y-60755000D01*
X218937651Y-74295000D02*
X216105000Y-71462349D01*
%TO.N,Net-(Q1-E)*%
X213995000Y-53340000D02*
X212090000Y-51435000D01*
X212090000Y-51435000D02*
X212090000Y-45085000D01*
X212090000Y-45085000D02*
X213995000Y-43180000D01*
%TO.N,Net-(Q2-B)*%
X197705370Y-43340630D02*
X197705370Y-48079630D01*
X196313000Y-42164000D02*
X198824000Y-42164000D01*
X203618000Y-42193000D02*
X198853000Y-42193000D01*
X198853000Y-42193000D02*
X197705370Y-43340630D01*
X207145000Y-45720000D02*
X203618000Y-42193000D01*
X197705370Y-48079630D02*
X195580000Y-50205000D01*
X198824000Y-42164000D02*
X198853000Y-42193000D01*
%TO.N,Net-(Q3-E)*%
X213860000Y-33020000D02*
X217516573Y-33020000D01*
X217516573Y-33020000D02*
X226406573Y-41910000D01*
X226406573Y-41910000D02*
X226695000Y-41910000D01*
%TO.N,Net-(Q6-E)*%
X232670000Y-51060000D02*
X226060000Y-44450000D01*
X232670000Y-59955000D02*
X232670000Y-51060000D01*
%TO.N,Net-(Q7-B)*%
X258445000Y-73660000D02*
X258445000Y-71120000D01*
X263525000Y-66040000D02*
X264795000Y-66040000D01*
X258445000Y-71120000D02*
X263525000Y-66040000D01*
D36*
%TO.N,Net-(D8-A)*%
X266911000Y-58010408D02*
X270600592Y-61700000D01*
X260350000Y-46990000D02*
X260350000Y-49530000D01*
D37*
X260350000Y-46990000D02*
X260350000Y-45292944D01*
D36*
X260350000Y-49530000D02*
X266911000Y-56091000D01*
D37*
X260350000Y-45292944D02*
X255062056Y-40005000D01*
D36*
X266911000Y-56091000D02*
X266911000Y-58010408D01*
X270600592Y-61700000D02*
X272161000Y-61700000D01*
D37*
X255062056Y-40005000D02*
X253365000Y-40005000D01*
D34*
%TO.N,Net-(D5-A)*%
X250190000Y-45085000D02*
X255905000Y-45085000D01*
D36*
%TO.N,Net-(D9-K)*%
X260350000Y-99060000D02*
X260350000Y-100838000D01*
X263790000Y-95620000D02*
X260350000Y-99060000D01*
X263790000Y-95620000D02*
X272415000Y-95620000D01*
X260350000Y-100838000D02*
X258064000Y-103124000D01*
D34*
%TO.N,Net-(C1-Pad2)*%
X202565000Y-45085000D02*
X203835000Y-46355000D01*
X203835000Y-50665000D02*
X203700000Y-50800000D01*
X203835000Y-46355000D02*
X203835000Y-50665000D01*
%TO.N,Net-(C4-Pad2)*%
X213995000Y-74237651D02*
X213937651Y-74295000D01*
X213995000Y-66675000D02*
X213995000Y-74237651D01*
%TO.N,Net-(Q16-E)*%
X221615000Y-57920000D02*
X222885000Y-59190000D01*
X229960000Y-64515000D02*
X232670000Y-64515000D01*
X221615000Y-52070000D02*
X221615000Y-57920000D01*
X224635000Y-59190000D02*
X229960000Y-64515000D01*
X222885000Y-59190000D02*
X224635000Y-59190000D01*
D37*
%TO.N,Net-(C3-Pad2)*%
X240055000Y-59730000D02*
X240030000Y-59705000D01*
X251460000Y-59730000D02*
X240055000Y-59730000D01*
%TO.N,B+*%
X221615000Y-34290000D02*
X226695000Y-34290000D01*
X226695000Y-34290000D02*
X228267780Y-34290000D01*
X228267780Y-34290000D02*
X237490000Y-43512220D01*
D34*
%TO.N,B-*%
X214122000Y-86876000D02*
X211971000Y-86876000D01*
X203200000Y-73660000D02*
X203835000Y-73025000D01*
X211971000Y-86876000D02*
X209550000Y-84455000D01*
X203200000Y-77470000D02*
X203200000Y-73660000D01*
X209550000Y-84455000D02*
X203200000Y-78105000D01*
X203200000Y-78105000D02*
X203200000Y-77470000D01*
%TO.N,Net-(D6-K)*%
X241300000Y-55245000D02*
X234310000Y-62235000D01*
X271993000Y-67310000D02*
X274955000Y-70272000D01*
X268605000Y-67310000D02*
X271993000Y-67310000D01*
X267335000Y-68580000D02*
X268605000Y-67310000D01*
X250190000Y-55245000D02*
X241300000Y-55245000D01*
X274955000Y-72390000D02*
X274198000Y-73147000D01*
X274955000Y-70272000D02*
X274955000Y-72390000D01*
X263930000Y-73025000D02*
X263930000Y-69445000D01*
X264795000Y-68580000D02*
X267335000Y-68580000D01*
X263930000Y-69445000D02*
X264795000Y-68580000D01*
X234310000Y-62235000D02*
X232670000Y-62235000D01*
X273945000Y-73400000D02*
X272548000Y-73400000D01*
%TO.N,Net-(Q12-B)*%
X213625000Y-94880000D02*
X220472000Y-94880000D01*
X211455000Y-92710000D02*
X213625000Y-94880000D01*
%TO.N,Net-(R12-Pad1)*%
X258445000Y-76200000D02*
X262255000Y-80010000D01*
X262255000Y-80010000D02*
X264795000Y-80010000D01*
%TO.N,/LTP COM*%
X213860000Y-38100000D02*
X218285000Y-42525000D01*
X218285000Y-42525000D02*
X218285000Y-46510000D01*
X213860000Y-38100000D02*
X216400000Y-35560000D01*
X216535000Y-48260000D02*
X213995000Y-48260000D01*
X218285000Y-46510000D02*
X216535000Y-48260000D01*
%TO.N,Net-(Q2-E)*%
X209685000Y-48260000D02*
X209685000Y-52570000D01*
X209685000Y-52570000D02*
X208915000Y-53340000D01*
%TO.N,Net-(Q11-B)*%
X209550000Y-70485000D02*
X206375000Y-70485000D01*
X210820000Y-77470000D02*
X210820000Y-71755000D01*
X210820000Y-71755000D02*
X209550000Y-70485000D01*
%TO.N,Net-(Q15-C)*%
X208915000Y-65405000D02*
X208915000Y-55880000D01*
X208915000Y-55880000D02*
X211455000Y-53340000D01*
%TO.N,Net-(Q9-G)*%
X272161000Y-50800000D02*
X276225000Y-54864000D01*
X276225000Y-54864000D02*
X276225000Y-67310000D01*
%TO.N,Net-(Q10-G)*%
X275590000Y-81545000D02*
X272415000Y-84720000D01*
X275590000Y-80010000D02*
X275590000Y-81545000D01*
D37*
%TO.N,PWRGND*%
X240154999Y-95494999D02*
X240154999Y-107150001D01*
X240154999Y-107150001D02*
X239355000Y-107950000D01*
X244475000Y-34925000D02*
X242175000Y-37225000D01*
X236855000Y-92195000D02*
X240154999Y-95494999D01*
X236020000Y-37225000D02*
X233720000Y-34925000D01*
X239355000Y-107950000D02*
X245110000Y-107950000D01*
X242175000Y-37225000D02*
X236020000Y-37225000D01*
D34*
%TO.N,Net-(J3-Pin_2)*%
X201600000Y-61542056D02*
X201600000Y-50800000D01*
X198120000Y-63325000D02*
X199817056Y-63325000D01*
X199817056Y-63325000D02*
X201600000Y-61542056D01*
%TD*%
M02*
