%TF.GenerationSoftware,KiCad,Pcbnew,8.0.7*%
%TF.CreationDate,2025-01-25T09:59:56-05:00*%
%TF.ProjectId,classab-amp,636c6173-7361-4622-9d61-6d702e6b6963,rev?*%
%TF.SameCoordinates,Original*%
%TF.FileFunction,Legend,Top*%
%TF.FilePolarity,Positive*%
%FSLAX46Y46*%
G04 Gerber Fmt 4.6, Leading zero omitted, Abs format (unit mm)*
G04 Created by KiCad (PCBNEW 8.0.7) date 2025-01-25 09:59:56*
%MOMM*%
%LPD*%
G01*
G04 APERTURE LIST*
%ADD10C,0.100000*%
%ADD11C,0.150000*%
%ADD12C,0.120000*%
%ADD13C,0.127000*%
G04 APERTURE END LIST*
D10*
X262068571Y-32045514D02*
X262282857Y-32116942D01*
X262282857Y-32116942D02*
X262354286Y-32188371D01*
X262354286Y-32188371D02*
X262425714Y-32331228D01*
X262425714Y-32331228D02*
X262425714Y-32545514D01*
X262425714Y-32545514D02*
X262354286Y-32688371D01*
X262354286Y-32688371D02*
X262282857Y-32759800D01*
X262282857Y-32759800D02*
X262140000Y-32831228D01*
X262140000Y-32831228D02*
X261568571Y-32831228D01*
X261568571Y-32831228D02*
X261568571Y-31331228D01*
X261568571Y-31331228D02*
X262068571Y-31331228D01*
X262068571Y-31331228D02*
X262211429Y-31402657D01*
X262211429Y-31402657D02*
X262282857Y-31474085D01*
X262282857Y-31474085D02*
X262354286Y-31616942D01*
X262354286Y-31616942D02*
X262354286Y-31759800D01*
X262354286Y-31759800D02*
X262282857Y-31902657D01*
X262282857Y-31902657D02*
X262211429Y-31974085D01*
X262211429Y-31974085D02*
X262068571Y-32045514D01*
X262068571Y-32045514D02*
X261568571Y-32045514D01*
X263068571Y-32259800D02*
X264211429Y-32259800D01*
X263640000Y-32831228D02*
X263640000Y-31688371D01*
X202233884Y-110997419D02*
X202233884Y-109997419D01*
X202662455Y-110997419D02*
X202662455Y-110473609D01*
X202662455Y-110473609D02*
X202614836Y-110378371D01*
X202614836Y-110378371D02*
X202519598Y-110330752D01*
X202519598Y-110330752D02*
X202376741Y-110330752D01*
X202376741Y-110330752D02*
X202281503Y-110378371D01*
X202281503Y-110378371D02*
X202233884Y-110425990D01*
X202995789Y-110330752D02*
X203376741Y-110330752D01*
X203138646Y-109997419D02*
X203138646Y-110854561D01*
X203138646Y-110854561D02*
X203186265Y-110949800D01*
X203186265Y-110949800D02*
X203281503Y-110997419D01*
X203281503Y-110997419D02*
X203376741Y-110997419D01*
X203567218Y-110330752D02*
X203948170Y-110330752D01*
X203710075Y-109997419D02*
X203710075Y-110854561D01*
X203710075Y-110854561D02*
X203757694Y-110949800D01*
X203757694Y-110949800D02*
X203852932Y-110997419D01*
X203852932Y-110997419D02*
X203948170Y-110997419D01*
X204281504Y-110330752D02*
X204281504Y-111330752D01*
X204281504Y-110378371D02*
X204376742Y-110330752D01*
X204376742Y-110330752D02*
X204567218Y-110330752D01*
X204567218Y-110330752D02*
X204662456Y-110378371D01*
X204662456Y-110378371D02*
X204710075Y-110425990D01*
X204710075Y-110425990D02*
X204757694Y-110521228D01*
X204757694Y-110521228D02*
X204757694Y-110806942D01*
X204757694Y-110806942D02*
X204710075Y-110902180D01*
X204710075Y-110902180D02*
X204662456Y-110949800D01*
X204662456Y-110949800D02*
X204567218Y-110997419D01*
X204567218Y-110997419D02*
X204376742Y-110997419D01*
X204376742Y-110997419D02*
X204281504Y-110949800D01*
X205138647Y-110949800D02*
X205233885Y-110997419D01*
X205233885Y-110997419D02*
X205424361Y-110997419D01*
X205424361Y-110997419D02*
X205519599Y-110949800D01*
X205519599Y-110949800D02*
X205567218Y-110854561D01*
X205567218Y-110854561D02*
X205567218Y-110806942D01*
X205567218Y-110806942D02*
X205519599Y-110711704D01*
X205519599Y-110711704D02*
X205424361Y-110664085D01*
X205424361Y-110664085D02*
X205281504Y-110664085D01*
X205281504Y-110664085D02*
X205186266Y-110616466D01*
X205186266Y-110616466D02*
X205138647Y-110521228D01*
X205138647Y-110521228D02*
X205138647Y-110473609D01*
X205138647Y-110473609D02*
X205186266Y-110378371D01*
X205186266Y-110378371D02*
X205281504Y-110330752D01*
X205281504Y-110330752D02*
X205424361Y-110330752D01*
X205424361Y-110330752D02*
X205519599Y-110378371D01*
X205995790Y-110902180D02*
X206043409Y-110949800D01*
X206043409Y-110949800D02*
X205995790Y-110997419D01*
X205995790Y-110997419D02*
X205948171Y-110949800D01*
X205948171Y-110949800D02*
X205995790Y-110902180D01*
X205995790Y-110902180D02*
X205995790Y-110997419D01*
X205995790Y-110378371D02*
X206043409Y-110425990D01*
X206043409Y-110425990D02*
X205995790Y-110473609D01*
X205995790Y-110473609D02*
X205948171Y-110425990D01*
X205948171Y-110425990D02*
X205995790Y-110378371D01*
X205995790Y-110378371D02*
X205995790Y-110473609D01*
X207186265Y-109949800D02*
X206329123Y-111235514D01*
X208233884Y-109949800D02*
X207376742Y-111235514D01*
X208995789Y-110330752D02*
X208995789Y-111140276D01*
X208995789Y-111140276D02*
X208948170Y-111235514D01*
X208948170Y-111235514D02*
X208900551Y-111283133D01*
X208900551Y-111283133D02*
X208805313Y-111330752D01*
X208805313Y-111330752D02*
X208662456Y-111330752D01*
X208662456Y-111330752D02*
X208567218Y-111283133D01*
X208995789Y-110949800D02*
X208900551Y-110997419D01*
X208900551Y-110997419D02*
X208710075Y-110997419D01*
X208710075Y-110997419D02*
X208614837Y-110949800D01*
X208614837Y-110949800D02*
X208567218Y-110902180D01*
X208567218Y-110902180D02*
X208519599Y-110806942D01*
X208519599Y-110806942D02*
X208519599Y-110521228D01*
X208519599Y-110521228D02*
X208567218Y-110425990D01*
X208567218Y-110425990D02*
X208614837Y-110378371D01*
X208614837Y-110378371D02*
X208710075Y-110330752D01*
X208710075Y-110330752D02*
X208900551Y-110330752D01*
X208900551Y-110330752D02*
X208995789Y-110378371D01*
X209471980Y-110997419D02*
X209471980Y-110330752D01*
X209471980Y-109997419D02*
X209424361Y-110045038D01*
X209424361Y-110045038D02*
X209471980Y-110092657D01*
X209471980Y-110092657D02*
X209519599Y-110045038D01*
X209519599Y-110045038D02*
X209471980Y-109997419D01*
X209471980Y-109997419D02*
X209471980Y-110092657D01*
X209805313Y-110330752D02*
X210186265Y-110330752D01*
X209948170Y-109997419D02*
X209948170Y-110854561D01*
X209948170Y-110854561D02*
X209995789Y-110949800D01*
X209995789Y-110949800D02*
X210091027Y-110997419D01*
X210091027Y-110997419D02*
X210186265Y-110997419D01*
X210519599Y-110997419D02*
X210519599Y-109997419D01*
X210948170Y-110997419D02*
X210948170Y-110473609D01*
X210948170Y-110473609D02*
X210900551Y-110378371D01*
X210900551Y-110378371D02*
X210805313Y-110330752D01*
X210805313Y-110330752D02*
X210662456Y-110330752D01*
X210662456Y-110330752D02*
X210567218Y-110378371D01*
X210567218Y-110378371D02*
X210519599Y-110425990D01*
X211852932Y-110330752D02*
X211852932Y-110997419D01*
X211424361Y-110330752D02*
X211424361Y-110854561D01*
X211424361Y-110854561D02*
X211471980Y-110949800D01*
X211471980Y-110949800D02*
X211567218Y-110997419D01*
X211567218Y-110997419D02*
X211710075Y-110997419D01*
X211710075Y-110997419D02*
X211805313Y-110949800D01*
X211805313Y-110949800D02*
X211852932Y-110902180D01*
X212329123Y-110997419D02*
X212329123Y-109997419D01*
X212329123Y-110378371D02*
X212424361Y-110330752D01*
X212424361Y-110330752D02*
X212614837Y-110330752D01*
X212614837Y-110330752D02*
X212710075Y-110378371D01*
X212710075Y-110378371D02*
X212757694Y-110425990D01*
X212757694Y-110425990D02*
X212805313Y-110521228D01*
X212805313Y-110521228D02*
X212805313Y-110806942D01*
X212805313Y-110806942D02*
X212757694Y-110902180D01*
X212757694Y-110902180D02*
X212710075Y-110949800D01*
X212710075Y-110949800D02*
X212614837Y-110997419D01*
X212614837Y-110997419D02*
X212424361Y-110997419D01*
X212424361Y-110997419D02*
X212329123Y-110949800D01*
X213233885Y-110902180D02*
X213281504Y-110949800D01*
X213281504Y-110949800D02*
X213233885Y-110997419D01*
X213233885Y-110997419D02*
X213186266Y-110949800D01*
X213186266Y-110949800D02*
X213233885Y-110902180D01*
X213233885Y-110902180D02*
X213233885Y-110997419D01*
X214138646Y-110949800D02*
X214043408Y-110997419D01*
X214043408Y-110997419D02*
X213852932Y-110997419D01*
X213852932Y-110997419D02*
X213757694Y-110949800D01*
X213757694Y-110949800D02*
X213710075Y-110902180D01*
X213710075Y-110902180D02*
X213662456Y-110806942D01*
X213662456Y-110806942D02*
X213662456Y-110521228D01*
X213662456Y-110521228D02*
X213710075Y-110425990D01*
X213710075Y-110425990D02*
X213757694Y-110378371D01*
X213757694Y-110378371D02*
X213852932Y-110330752D01*
X213852932Y-110330752D02*
X214043408Y-110330752D01*
X214043408Y-110330752D02*
X214138646Y-110378371D01*
X214710075Y-110997419D02*
X214614837Y-110949800D01*
X214614837Y-110949800D02*
X214567218Y-110902180D01*
X214567218Y-110902180D02*
X214519599Y-110806942D01*
X214519599Y-110806942D02*
X214519599Y-110521228D01*
X214519599Y-110521228D02*
X214567218Y-110425990D01*
X214567218Y-110425990D02*
X214614837Y-110378371D01*
X214614837Y-110378371D02*
X214710075Y-110330752D01*
X214710075Y-110330752D02*
X214852932Y-110330752D01*
X214852932Y-110330752D02*
X214948170Y-110378371D01*
X214948170Y-110378371D02*
X214995789Y-110425990D01*
X214995789Y-110425990D02*
X215043408Y-110521228D01*
X215043408Y-110521228D02*
X215043408Y-110806942D01*
X215043408Y-110806942D02*
X214995789Y-110902180D01*
X214995789Y-110902180D02*
X214948170Y-110949800D01*
X214948170Y-110949800D02*
X214852932Y-110997419D01*
X214852932Y-110997419D02*
X214710075Y-110997419D01*
X215471980Y-110997419D02*
X215471980Y-110330752D01*
X215471980Y-110425990D02*
X215519599Y-110378371D01*
X215519599Y-110378371D02*
X215614837Y-110330752D01*
X215614837Y-110330752D02*
X215757694Y-110330752D01*
X215757694Y-110330752D02*
X215852932Y-110378371D01*
X215852932Y-110378371D02*
X215900551Y-110473609D01*
X215900551Y-110473609D02*
X215900551Y-110997419D01*
X215900551Y-110473609D02*
X215948170Y-110378371D01*
X215948170Y-110378371D02*
X216043408Y-110330752D01*
X216043408Y-110330752D02*
X216186265Y-110330752D01*
X216186265Y-110330752D02*
X216281504Y-110378371D01*
X216281504Y-110378371D02*
X216329123Y-110473609D01*
X216329123Y-110473609D02*
X216329123Y-110997419D01*
X217519598Y-109949800D02*
X216662456Y-111235514D01*
X217852932Y-110330752D02*
X217852932Y-111330752D01*
X217852932Y-110378371D02*
X217948170Y-110330752D01*
X217948170Y-110330752D02*
X218138646Y-110330752D01*
X218138646Y-110330752D02*
X218233884Y-110378371D01*
X218233884Y-110378371D02*
X218281503Y-110425990D01*
X218281503Y-110425990D02*
X218329122Y-110521228D01*
X218329122Y-110521228D02*
X218329122Y-110806942D01*
X218329122Y-110806942D02*
X218281503Y-110902180D01*
X218281503Y-110902180D02*
X218233884Y-110949800D01*
X218233884Y-110949800D02*
X218138646Y-110997419D01*
X218138646Y-110997419D02*
X217948170Y-110997419D01*
X217948170Y-110997419D02*
X217852932Y-110949800D01*
X218757694Y-110997419D02*
X218757694Y-110330752D01*
X218757694Y-110521228D02*
X218805313Y-110425990D01*
X218805313Y-110425990D02*
X218852932Y-110378371D01*
X218852932Y-110378371D02*
X218948170Y-110330752D01*
X218948170Y-110330752D02*
X219043408Y-110330752D01*
X219281504Y-110330752D02*
X219519599Y-110997419D01*
X219757694Y-110330752D02*
X219519599Y-110997419D01*
X219519599Y-110997419D02*
X219424361Y-111235514D01*
X219424361Y-111235514D02*
X219376742Y-111283133D01*
X219376742Y-111283133D02*
X219281504Y-111330752D01*
X220567218Y-110997419D02*
X220567218Y-109997419D01*
X220567218Y-110949800D02*
X220471980Y-110997419D01*
X220471980Y-110997419D02*
X220281504Y-110997419D01*
X220281504Y-110997419D02*
X220186266Y-110949800D01*
X220186266Y-110949800D02*
X220138647Y-110902180D01*
X220138647Y-110902180D02*
X220091028Y-110806942D01*
X220091028Y-110806942D02*
X220091028Y-110521228D01*
X220091028Y-110521228D02*
X220138647Y-110425990D01*
X220138647Y-110425990D02*
X220186266Y-110378371D01*
X220186266Y-110378371D02*
X220281504Y-110330752D01*
X220281504Y-110330752D02*
X220471980Y-110330752D01*
X220471980Y-110330752D02*
X220567218Y-110378371D01*
X221043409Y-110997419D02*
X221043409Y-110330752D01*
X221043409Y-109997419D02*
X220995790Y-110045038D01*
X220995790Y-110045038D02*
X221043409Y-110092657D01*
X221043409Y-110092657D02*
X221091028Y-110045038D01*
X221091028Y-110045038D02*
X221043409Y-109997419D01*
X221043409Y-109997419D02*
X221043409Y-110092657D01*
X221519599Y-110330752D02*
X221519599Y-110997419D01*
X221519599Y-110425990D02*
X221567218Y-110378371D01*
X221567218Y-110378371D02*
X221662456Y-110330752D01*
X221662456Y-110330752D02*
X221805313Y-110330752D01*
X221805313Y-110330752D02*
X221900551Y-110378371D01*
X221900551Y-110378371D02*
X221948170Y-110473609D01*
X221948170Y-110473609D02*
X221948170Y-110997419D01*
X223138646Y-109949800D02*
X222281504Y-111235514D01*
X223900551Y-110949800D02*
X223805313Y-110997419D01*
X223805313Y-110997419D02*
X223614837Y-110997419D01*
X223614837Y-110997419D02*
X223519599Y-110949800D01*
X223519599Y-110949800D02*
X223471980Y-110902180D01*
X223471980Y-110902180D02*
X223424361Y-110806942D01*
X223424361Y-110806942D02*
X223424361Y-110521228D01*
X223424361Y-110521228D02*
X223471980Y-110425990D01*
X223471980Y-110425990D02*
X223519599Y-110378371D01*
X223519599Y-110378371D02*
X223614837Y-110330752D01*
X223614837Y-110330752D02*
X223805313Y-110330752D01*
X223805313Y-110330752D02*
X223900551Y-110378371D01*
X224471980Y-110997419D02*
X224376742Y-110949800D01*
X224376742Y-110949800D02*
X224329123Y-110854561D01*
X224329123Y-110854561D02*
X224329123Y-109997419D01*
X225281504Y-110997419D02*
X225281504Y-110473609D01*
X225281504Y-110473609D02*
X225233885Y-110378371D01*
X225233885Y-110378371D02*
X225138647Y-110330752D01*
X225138647Y-110330752D02*
X224948171Y-110330752D01*
X224948171Y-110330752D02*
X224852933Y-110378371D01*
X225281504Y-110949800D02*
X225186266Y-110997419D01*
X225186266Y-110997419D02*
X224948171Y-110997419D01*
X224948171Y-110997419D02*
X224852933Y-110949800D01*
X224852933Y-110949800D02*
X224805314Y-110854561D01*
X224805314Y-110854561D02*
X224805314Y-110759323D01*
X224805314Y-110759323D02*
X224852933Y-110664085D01*
X224852933Y-110664085D02*
X224948171Y-110616466D01*
X224948171Y-110616466D02*
X225186266Y-110616466D01*
X225186266Y-110616466D02*
X225281504Y-110568847D01*
X225710076Y-110949800D02*
X225805314Y-110997419D01*
X225805314Y-110997419D02*
X225995790Y-110997419D01*
X225995790Y-110997419D02*
X226091028Y-110949800D01*
X226091028Y-110949800D02*
X226138647Y-110854561D01*
X226138647Y-110854561D02*
X226138647Y-110806942D01*
X226138647Y-110806942D02*
X226091028Y-110711704D01*
X226091028Y-110711704D02*
X225995790Y-110664085D01*
X225995790Y-110664085D02*
X225852933Y-110664085D01*
X225852933Y-110664085D02*
X225757695Y-110616466D01*
X225757695Y-110616466D02*
X225710076Y-110521228D01*
X225710076Y-110521228D02*
X225710076Y-110473609D01*
X225710076Y-110473609D02*
X225757695Y-110378371D01*
X225757695Y-110378371D02*
X225852933Y-110330752D01*
X225852933Y-110330752D02*
X225995790Y-110330752D01*
X225995790Y-110330752D02*
X226091028Y-110378371D01*
X226519600Y-110949800D02*
X226614838Y-110997419D01*
X226614838Y-110997419D02*
X226805314Y-110997419D01*
X226805314Y-110997419D02*
X226900552Y-110949800D01*
X226900552Y-110949800D02*
X226948171Y-110854561D01*
X226948171Y-110854561D02*
X226948171Y-110806942D01*
X226948171Y-110806942D02*
X226900552Y-110711704D01*
X226900552Y-110711704D02*
X226805314Y-110664085D01*
X226805314Y-110664085D02*
X226662457Y-110664085D01*
X226662457Y-110664085D02*
X226567219Y-110616466D01*
X226567219Y-110616466D02*
X226519600Y-110521228D01*
X226519600Y-110521228D02*
X226519600Y-110473609D01*
X226519600Y-110473609D02*
X226567219Y-110378371D01*
X226567219Y-110378371D02*
X226662457Y-110330752D01*
X226662457Y-110330752D02*
X226805314Y-110330752D01*
X226805314Y-110330752D02*
X226900552Y-110378371D01*
X227805314Y-110997419D02*
X227805314Y-110473609D01*
X227805314Y-110473609D02*
X227757695Y-110378371D01*
X227757695Y-110378371D02*
X227662457Y-110330752D01*
X227662457Y-110330752D02*
X227471981Y-110330752D01*
X227471981Y-110330752D02*
X227376743Y-110378371D01*
X227805314Y-110949800D02*
X227710076Y-110997419D01*
X227710076Y-110997419D02*
X227471981Y-110997419D01*
X227471981Y-110997419D02*
X227376743Y-110949800D01*
X227376743Y-110949800D02*
X227329124Y-110854561D01*
X227329124Y-110854561D02*
X227329124Y-110759323D01*
X227329124Y-110759323D02*
X227376743Y-110664085D01*
X227376743Y-110664085D02*
X227471981Y-110616466D01*
X227471981Y-110616466D02*
X227710076Y-110616466D01*
X227710076Y-110616466D02*
X227805314Y-110568847D01*
X228281505Y-110997419D02*
X228281505Y-109997419D01*
X228281505Y-110378371D02*
X228376743Y-110330752D01*
X228376743Y-110330752D02*
X228567219Y-110330752D01*
X228567219Y-110330752D02*
X228662457Y-110378371D01*
X228662457Y-110378371D02*
X228710076Y-110425990D01*
X228710076Y-110425990D02*
X228757695Y-110521228D01*
X228757695Y-110521228D02*
X228757695Y-110806942D01*
X228757695Y-110806942D02*
X228710076Y-110902180D01*
X228710076Y-110902180D02*
X228662457Y-110949800D01*
X228662457Y-110949800D02*
X228567219Y-110997419D01*
X228567219Y-110997419D02*
X228376743Y-110997419D01*
X228376743Y-110997419D02*
X228281505Y-110949800D01*
X229186267Y-110616466D02*
X229948172Y-110616466D01*
X230852933Y-110997419D02*
X230852933Y-110473609D01*
X230852933Y-110473609D02*
X230805314Y-110378371D01*
X230805314Y-110378371D02*
X230710076Y-110330752D01*
X230710076Y-110330752D02*
X230519600Y-110330752D01*
X230519600Y-110330752D02*
X230424362Y-110378371D01*
X230852933Y-110949800D02*
X230757695Y-110997419D01*
X230757695Y-110997419D02*
X230519600Y-110997419D01*
X230519600Y-110997419D02*
X230424362Y-110949800D01*
X230424362Y-110949800D02*
X230376743Y-110854561D01*
X230376743Y-110854561D02*
X230376743Y-110759323D01*
X230376743Y-110759323D02*
X230424362Y-110664085D01*
X230424362Y-110664085D02*
X230519600Y-110616466D01*
X230519600Y-110616466D02*
X230757695Y-110616466D01*
X230757695Y-110616466D02*
X230852933Y-110568847D01*
X231329124Y-110997419D02*
X231329124Y-110330752D01*
X231329124Y-110425990D02*
X231376743Y-110378371D01*
X231376743Y-110378371D02*
X231471981Y-110330752D01*
X231471981Y-110330752D02*
X231614838Y-110330752D01*
X231614838Y-110330752D02*
X231710076Y-110378371D01*
X231710076Y-110378371D02*
X231757695Y-110473609D01*
X231757695Y-110473609D02*
X231757695Y-110997419D01*
X231757695Y-110473609D02*
X231805314Y-110378371D01*
X231805314Y-110378371D02*
X231900552Y-110330752D01*
X231900552Y-110330752D02*
X232043409Y-110330752D01*
X232043409Y-110330752D02*
X232138648Y-110378371D01*
X232138648Y-110378371D02*
X232186267Y-110473609D01*
X232186267Y-110473609D02*
X232186267Y-110997419D01*
X232662457Y-110330752D02*
X232662457Y-111330752D01*
X232662457Y-110378371D02*
X232757695Y-110330752D01*
X232757695Y-110330752D02*
X232948171Y-110330752D01*
X232948171Y-110330752D02*
X233043409Y-110378371D01*
X233043409Y-110378371D02*
X233091028Y-110425990D01*
X233091028Y-110425990D02*
X233138647Y-110521228D01*
X233138647Y-110521228D02*
X233138647Y-110806942D01*
X233138647Y-110806942D02*
X233091028Y-110902180D01*
X233091028Y-110902180D02*
X233043409Y-110949800D01*
X233043409Y-110949800D02*
X232948171Y-110997419D01*
X232948171Y-110997419D02*
X232757695Y-110997419D01*
X232757695Y-110997419D02*
X232662457Y-110949800D01*
X233567219Y-110616466D02*
X234329124Y-110616466D01*
X234805314Y-110997419D02*
X234805314Y-110330752D01*
X234805314Y-110425990D02*
X234852933Y-110378371D01*
X234852933Y-110378371D02*
X234948171Y-110330752D01*
X234948171Y-110330752D02*
X235091028Y-110330752D01*
X235091028Y-110330752D02*
X235186266Y-110378371D01*
X235186266Y-110378371D02*
X235233885Y-110473609D01*
X235233885Y-110473609D02*
X235233885Y-110997419D01*
X235233885Y-110473609D02*
X235281504Y-110378371D01*
X235281504Y-110378371D02*
X235376742Y-110330752D01*
X235376742Y-110330752D02*
X235519599Y-110330752D01*
X235519599Y-110330752D02*
X235614838Y-110378371D01*
X235614838Y-110378371D02*
X235662457Y-110473609D01*
X235662457Y-110473609D02*
X235662457Y-110997419D01*
X236281504Y-110997419D02*
X236186266Y-110949800D01*
X236186266Y-110949800D02*
X236138647Y-110902180D01*
X236138647Y-110902180D02*
X236091028Y-110806942D01*
X236091028Y-110806942D02*
X236091028Y-110521228D01*
X236091028Y-110521228D02*
X236138647Y-110425990D01*
X236138647Y-110425990D02*
X236186266Y-110378371D01*
X236186266Y-110378371D02*
X236281504Y-110330752D01*
X236281504Y-110330752D02*
X236424361Y-110330752D01*
X236424361Y-110330752D02*
X236519599Y-110378371D01*
X236519599Y-110378371D02*
X236567218Y-110425990D01*
X236567218Y-110425990D02*
X236614837Y-110521228D01*
X236614837Y-110521228D02*
X236614837Y-110806942D01*
X236614837Y-110806942D02*
X236567218Y-110902180D01*
X236567218Y-110902180D02*
X236519599Y-110949800D01*
X236519599Y-110949800D02*
X236424361Y-110997419D01*
X236424361Y-110997419D02*
X236281504Y-110997419D01*
X236995790Y-110949800D02*
X237091028Y-110997419D01*
X237091028Y-110997419D02*
X237281504Y-110997419D01*
X237281504Y-110997419D02*
X237376742Y-110949800D01*
X237376742Y-110949800D02*
X237424361Y-110854561D01*
X237424361Y-110854561D02*
X237424361Y-110806942D01*
X237424361Y-110806942D02*
X237376742Y-110711704D01*
X237376742Y-110711704D02*
X237281504Y-110664085D01*
X237281504Y-110664085D02*
X237138647Y-110664085D01*
X237138647Y-110664085D02*
X237043409Y-110616466D01*
X237043409Y-110616466D02*
X236995790Y-110521228D01*
X236995790Y-110521228D02*
X236995790Y-110473609D01*
X236995790Y-110473609D02*
X237043409Y-110378371D01*
X237043409Y-110378371D02*
X237138647Y-110330752D01*
X237138647Y-110330752D02*
X237281504Y-110330752D01*
X237281504Y-110330752D02*
X237376742Y-110378371D01*
X237710076Y-110330752D02*
X238091028Y-110330752D01*
X237852933Y-110997419D02*
X237852933Y-110140276D01*
X237852933Y-110140276D02*
X237900552Y-110045038D01*
X237900552Y-110045038D02*
X237995790Y-109997419D01*
X237995790Y-109997419D02*
X238091028Y-109997419D01*
X238805314Y-110949800D02*
X238710076Y-110997419D01*
X238710076Y-110997419D02*
X238519600Y-110997419D01*
X238519600Y-110997419D02*
X238424362Y-110949800D01*
X238424362Y-110949800D02*
X238376743Y-110854561D01*
X238376743Y-110854561D02*
X238376743Y-110473609D01*
X238376743Y-110473609D02*
X238424362Y-110378371D01*
X238424362Y-110378371D02*
X238519600Y-110330752D01*
X238519600Y-110330752D02*
X238710076Y-110330752D01*
X238710076Y-110330752D02*
X238805314Y-110378371D01*
X238805314Y-110378371D02*
X238852933Y-110473609D01*
X238852933Y-110473609D02*
X238852933Y-110568847D01*
X238852933Y-110568847D02*
X238376743Y-110664085D01*
X239138648Y-110330752D02*
X239519600Y-110330752D01*
X239281505Y-109997419D02*
X239281505Y-110854561D01*
X239281505Y-110854561D02*
X239329124Y-110949800D01*
X239329124Y-110949800D02*
X239424362Y-110997419D01*
X239424362Y-110997419D02*
X239519600Y-110997419D01*
X202233884Y-108457419D02*
X202233884Y-107457419D01*
X202233884Y-107457419D02*
X202471979Y-107457419D01*
X202471979Y-107457419D02*
X202614836Y-107505038D01*
X202614836Y-107505038D02*
X202710074Y-107600276D01*
X202710074Y-107600276D02*
X202757693Y-107695514D01*
X202757693Y-107695514D02*
X202805312Y-107885990D01*
X202805312Y-107885990D02*
X202805312Y-108028847D01*
X202805312Y-108028847D02*
X202757693Y-108219323D01*
X202757693Y-108219323D02*
X202710074Y-108314561D01*
X202710074Y-108314561D02*
X202614836Y-108409800D01*
X202614836Y-108409800D02*
X202471979Y-108457419D01*
X202471979Y-108457419D02*
X202233884Y-108457419D01*
X203614836Y-108409800D02*
X203519598Y-108457419D01*
X203519598Y-108457419D02*
X203329122Y-108457419D01*
X203329122Y-108457419D02*
X203233884Y-108409800D01*
X203233884Y-108409800D02*
X203186265Y-108314561D01*
X203186265Y-108314561D02*
X203186265Y-107933609D01*
X203186265Y-107933609D02*
X203233884Y-107838371D01*
X203233884Y-107838371D02*
X203329122Y-107790752D01*
X203329122Y-107790752D02*
X203519598Y-107790752D01*
X203519598Y-107790752D02*
X203614836Y-107838371D01*
X203614836Y-107838371D02*
X203662455Y-107933609D01*
X203662455Y-107933609D02*
X203662455Y-108028847D01*
X203662455Y-108028847D02*
X203186265Y-108124085D01*
X204043408Y-108409800D02*
X204138646Y-108457419D01*
X204138646Y-108457419D02*
X204329122Y-108457419D01*
X204329122Y-108457419D02*
X204424360Y-108409800D01*
X204424360Y-108409800D02*
X204471979Y-108314561D01*
X204471979Y-108314561D02*
X204471979Y-108266942D01*
X204471979Y-108266942D02*
X204424360Y-108171704D01*
X204424360Y-108171704D02*
X204329122Y-108124085D01*
X204329122Y-108124085D02*
X204186265Y-108124085D01*
X204186265Y-108124085D02*
X204091027Y-108076466D01*
X204091027Y-108076466D02*
X204043408Y-107981228D01*
X204043408Y-107981228D02*
X204043408Y-107933609D01*
X204043408Y-107933609D02*
X204091027Y-107838371D01*
X204091027Y-107838371D02*
X204186265Y-107790752D01*
X204186265Y-107790752D02*
X204329122Y-107790752D01*
X204329122Y-107790752D02*
X204424360Y-107838371D01*
X204900551Y-108457419D02*
X204900551Y-107790752D01*
X204900551Y-107457419D02*
X204852932Y-107505038D01*
X204852932Y-107505038D02*
X204900551Y-107552657D01*
X204900551Y-107552657D02*
X204948170Y-107505038D01*
X204948170Y-107505038D02*
X204900551Y-107457419D01*
X204900551Y-107457419D02*
X204900551Y-107552657D01*
X205805312Y-107790752D02*
X205805312Y-108600276D01*
X205805312Y-108600276D02*
X205757693Y-108695514D01*
X205757693Y-108695514D02*
X205710074Y-108743133D01*
X205710074Y-108743133D02*
X205614836Y-108790752D01*
X205614836Y-108790752D02*
X205471979Y-108790752D01*
X205471979Y-108790752D02*
X205376741Y-108743133D01*
X205805312Y-108409800D02*
X205710074Y-108457419D01*
X205710074Y-108457419D02*
X205519598Y-108457419D01*
X205519598Y-108457419D02*
X205424360Y-108409800D01*
X205424360Y-108409800D02*
X205376741Y-108362180D01*
X205376741Y-108362180D02*
X205329122Y-108266942D01*
X205329122Y-108266942D02*
X205329122Y-107981228D01*
X205329122Y-107981228D02*
X205376741Y-107885990D01*
X205376741Y-107885990D02*
X205424360Y-107838371D01*
X205424360Y-107838371D02*
X205519598Y-107790752D01*
X205519598Y-107790752D02*
X205710074Y-107790752D01*
X205710074Y-107790752D02*
X205805312Y-107838371D01*
X206281503Y-107790752D02*
X206281503Y-108457419D01*
X206281503Y-107885990D02*
X206329122Y-107838371D01*
X206329122Y-107838371D02*
X206424360Y-107790752D01*
X206424360Y-107790752D02*
X206567217Y-107790752D01*
X206567217Y-107790752D02*
X206662455Y-107838371D01*
X206662455Y-107838371D02*
X206710074Y-107933609D01*
X206710074Y-107933609D02*
X206710074Y-108457419D01*
X207567217Y-108409800D02*
X207471979Y-108457419D01*
X207471979Y-108457419D02*
X207281503Y-108457419D01*
X207281503Y-108457419D02*
X207186265Y-108409800D01*
X207186265Y-108409800D02*
X207138646Y-108314561D01*
X207138646Y-108314561D02*
X207138646Y-107933609D01*
X207138646Y-107933609D02*
X207186265Y-107838371D01*
X207186265Y-107838371D02*
X207281503Y-107790752D01*
X207281503Y-107790752D02*
X207471979Y-107790752D01*
X207471979Y-107790752D02*
X207567217Y-107838371D01*
X207567217Y-107838371D02*
X207614836Y-107933609D01*
X207614836Y-107933609D02*
X207614836Y-108028847D01*
X207614836Y-108028847D02*
X207138646Y-108124085D01*
X208471979Y-108457419D02*
X208471979Y-107457419D01*
X208471979Y-108409800D02*
X208376741Y-108457419D01*
X208376741Y-108457419D02*
X208186265Y-108457419D01*
X208186265Y-108457419D02*
X208091027Y-108409800D01*
X208091027Y-108409800D02*
X208043408Y-108362180D01*
X208043408Y-108362180D02*
X207995789Y-108266942D01*
X207995789Y-108266942D02*
X207995789Y-107981228D01*
X207995789Y-107981228D02*
X208043408Y-107885990D01*
X208043408Y-107885990D02*
X208091027Y-107838371D01*
X208091027Y-107838371D02*
X208186265Y-107790752D01*
X208186265Y-107790752D02*
X208376741Y-107790752D01*
X208376741Y-107790752D02*
X208471979Y-107838371D01*
X210043408Y-107933609D02*
X210186265Y-107981228D01*
X210186265Y-107981228D02*
X210233884Y-108028847D01*
X210233884Y-108028847D02*
X210281503Y-108124085D01*
X210281503Y-108124085D02*
X210281503Y-108266942D01*
X210281503Y-108266942D02*
X210233884Y-108362180D01*
X210233884Y-108362180D02*
X210186265Y-108409800D01*
X210186265Y-108409800D02*
X210091027Y-108457419D01*
X210091027Y-108457419D02*
X209710075Y-108457419D01*
X209710075Y-108457419D02*
X209710075Y-107457419D01*
X209710075Y-107457419D02*
X210043408Y-107457419D01*
X210043408Y-107457419D02*
X210138646Y-107505038D01*
X210138646Y-107505038D02*
X210186265Y-107552657D01*
X210186265Y-107552657D02*
X210233884Y-107647895D01*
X210233884Y-107647895D02*
X210233884Y-107743133D01*
X210233884Y-107743133D02*
X210186265Y-107838371D01*
X210186265Y-107838371D02*
X210138646Y-107885990D01*
X210138646Y-107885990D02*
X210043408Y-107933609D01*
X210043408Y-107933609D02*
X209710075Y-107933609D01*
X210614837Y-107790752D02*
X210852932Y-108457419D01*
X211091027Y-107790752D02*
X210852932Y-108457419D01*
X210852932Y-108457419D02*
X210757694Y-108695514D01*
X210757694Y-108695514D02*
X210710075Y-108743133D01*
X210710075Y-108743133D02*
X210614837Y-108790752D01*
X212233885Y-108457419D02*
X212233885Y-107457419D01*
X212233885Y-107457419D02*
X212614837Y-107457419D01*
X212614837Y-107457419D02*
X212710075Y-107505038D01*
X212710075Y-107505038D02*
X212757694Y-107552657D01*
X212757694Y-107552657D02*
X212805313Y-107647895D01*
X212805313Y-107647895D02*
X212805313Y-107790752D01*
X212805313Y-107790752D02*
X212757694Y-107885990D01*
X212757694Y-107885990D02*
X212710075Y-107933609D01*
X212710075Y-107933609D02*
X212614837Y-107981228D01*
X212614837Y-107981228D02*
X212233885Y-107981228D01*
X213376742Y-108457419D02*
X213281504Y-108409800D01*
X213281504Y-108409800D02*
X213233885Y-108362180D01*
X213233885Y-108362180D02*
X213186266Y-108266942D01*
X213186266Y-108266942D02*
X213186266Y-107981228D01*
X213186266Y-107981228D02*
X213233885Y-107885990D01*
X213233885Y-107885990D02*
X213281504Y-107838371D01*
X213281504Y-107838371D02*
X213376742Y-107790752D01*
X213376742Y-107790752D02*
X213519599Y-107790752D01*
X213519599Y-107790752D02*
X213614837Y-107838371D01*
X213614837Y-107838371D02*
X213662456Y-107885990D01*
X213662456Y-107885990D02*
X213710075Y-107981228D01*
X213710075Y-107981228D02*
X213710075Y-108266942D01*
X213710075Y-108266942D02*
X213662456Y-108362180D01*
X213662456Y-108362180D02*
X213614837Y-108409800D01*
X213614837Y-108409800D02*
X213519599Y-108457419D01*
X213519599Y-108457419D02*
X213376742Y-108457419D01*
X214138647Y-107790752D02*
X214138647Y-108457419D01*
X214138647Y-107885990D02*
X214186266Y-107838371D01*
X214186266Y-107838371D02*
X214281504Y-107790752D01*
X214281504Y-107790752D02*
X214424361Y-107790752D01*
X214424361Y-107790752D02*
X214519599Y-107838371D01*
X214519599Y-107838371D02*
X214567218Y-107933609D01*
X214567218Y-107933609D02*
X214567218Y-108457419D01*
X214900552Y-107790752D02*
X215281504Y-107790752D01*
X215043409Y-107457419D02*
X215043409Y-108314561D01*
X215043409Y-108314561D02*
X215091028Y-108409800D01*
X215091028Y-108409800D02*
X215186266Y-108457419D01*
X215186266Y-108457419D02*
X215281504Y-108457419D01*
X216043409Y-107790752D02*
X216043409Y-108457419D01*
X215614838Y-107790752D02*
X215614838Y-108314561D01*
X215614838Y-108314561D02*
X215662457Y-108409800D01*
X215662457Y-108409800D02*
X215757695Y-108457419D01*
X215757695Y-108457419D02*
X215900552Y-108457419D01*
X215900552Y-108457419D02*
X215995790Y-108409800D01*
X215995790Y-108409800D02*
X216043409Y-108362180D01*
X216471981Y-108409800D02*
X216567219Y-108457419D01*
X216567219Y-108457419D02*
X216757695Y-108457419D01*
X216757695Y-108457419D02*
X216852933Y-108409800D01*
X216852933Y-108409800D02*
X216900552Y-108314561D01*
X216900552Y-108314561D02*
X216900552Y-108266942D01*
X216900552Y-108266942D02*
X216852933Y-108171704D01*
X216852933Y-108171704D02*
X216757695Y-108124085D01*
X216757695Y-108124085D02*
X216614838Y-108124085D01*
X216614838Y-108124085D02*
X216519600Y-108076466D01*
X216519600Y-108076466D02*
X216471981Y-107981228D01*
X216471981Y-107981228D02*
X216471981Y-107933609D01*
X216471981Y-107933609D02*
X216519600Y-107838371D01*
X216519600Y-107838371D02*
X216614838Y-107790752D01*
X216614838Y-107790752D02*
X216757695Y-107790752D01*
X216757695Y-107790752D02*
X216852933Y-107838371D01*
X218662457Y-108457419D02*
X218329124Y-107981228D01*
X218091029Y-108457419D02*
X218091029Y-107457419D01*
X218091029Y-107457419D02*
X218471981Y-107457419D01*
X218471981Y-107457419D02*
X218567219Y-107505038D01*
X218567219Y-107505038D02*
X218614838Y-107552657D01*
X218614838Y-107552657D02*
X218662457Y-107647895D01*
X218662457Y-107647895D02*
X218662457Y-107790752D01*
X218662457Y-107790752D02*
X218614838Y-107885990D01*
X218614838Y-107885990D02*
X218567219Y-107933609D01*
X218567219Y-107933609D02*
X218471981Y-107981228D01*
X218471981Y-107981228D02*
X218091029Y-107981228D01*
X218995791Y-107790752D02*
X219233886Y-108457419D01*
X219471981Y-107790752D02*
X219233886Y-108457419D01*
X219233886Y-108457419D02*
X219138648Y-108695514D01*
X219138648Y-108695514D02*
X219091029Y-108743133D01*
X219091029Y-108743133D02*
X218995791Y-108790752D01*
X220281505Y-108457419D02*
X220281505Y-107457419D01*
X220281505Y-108409800D02*
X220186267Y-108457419D01*
X220186267Y-108457419D02*
X219995791Y-108457419D01*
X219995791Y-108457419D02*
X219900553Y-108409800D01*
X219900553Y-108409800D02*
X219852934Y-108362180D01*
X219852934Y-108362180D02*
X219805315Y-108266942D01*
X219805315Y-108266942D02*
X219805315Y-107981228D01*
X219805315Y-107981228D02*
X219852934Y-107885990D01*
X219852934Y-107885990D02*
X219900553Y-107838371D01*
X219900553Y-107838371D02*
X219995791Y-107790752D01*
X219995791Y-107790752D02*
X220186267Y-107790752D01*
X220186267Y-107790752D02*
X220281505Y-107838371D01*
X220757696Y-108457419D02*
X220757696Y-107790752D01*
X220757696Y-107457419D02*
X220710077Y-107505038D01*
X220710077Y-107505038D02*
X220757696Y-107552657D01*
X220757696Y-107552657D02*
X220805315Y-107505038D01*
X220805315Y-107505038D02*
X220757696Y-107457419D01*
X220757696Y-107457419D02*
X220757696Y-107552657D01*
X221233886Y-107790752D02*
X221233886Y-108457419D01*
X221233886Y-107885990D02*
X221281505Y-107838371D01*
X221281505Y-107838371D02*
X221376743Y-107790752D01*
X221376743Y-107790752D02*
X221519600Y-107790752D01*
X221519600Y-107790752D02*
X221614838Y-107838371D01*
X221614838Y-107838371D02*
X221662457Y-107933609D01*
X221662457Y-107933609D02*
X221662457Y-108457419D01*
X197596191Y-66674419D02*
X197596191Y-65674419D01*
X198072381Y-66674419D02*
X198072381Y-65674419D01*
X198072381Y-65674419D02*
X198643809Y-66674419D01*
X198643809Y-66674419D02*
X198643809Y-65674419D01*
X262703571Y-106340514D02*
X262917857Y-106411942D01*
X262917857Y-106411942D02*
X262989286Y-106483371D01*
X262989286Y-106483371D02*
X263060714Y-106626228D01*
X263060714Y-106626228D02*
X263060714Y-106840514D01*
X263060714Y-106840514D02*
X262989286Y-106983371D01*
X262989286Y-106983371D02*
X262917857Y-107054800D01*
X262917857Y-107054800D02*
X262775000Y-107126228D01*
X262775000Y-107126228D02*
X262203571Y-107126228D01*
X262203571Y-107126228D02*
X262203571Y-105626228D01*
X262203571Y-105626228D02*
X262703571Y-105626228D01*
X262703571Y-105626228D02*
X262846429Y-105697657D01*
X262846429Y-105697657D02*
X262917857Y-105769085D01*
X262917857Y-105769085D02*
X262989286Y-105911942D01*
X262989286Y-105911942D02*
X262989286Y-106054800D01*
X262989286Y-106054800D02*
X262917857Y-106197657D01*
X262917857Y-106197657D02*
X262846429Y-106269085D01*
X262846429Y-106269085D02*
X262703571Y-106340514D01*
X262703571Y-106340514D02*
X262203571Y-106340514D01*
X263703571Y-106554800D02*
X264846429Y-106554800D01*
X197258095Y-56585038D02*
X197162857Y-56537419D01*
X197162857Y-56537419D02*
X197020000Y-56537419D01*
X197020000Y-56537419D02*
X196877143Y-56585038D01*
X196877143Y-56585038D02*
X196781905Y-56680276D01*
X196781905Y-56680276D02*
X196734286Y-56775514D01*
X196734286Y-56775514D02*
X196686667Y-56965990D01*
X196686667Y-56965990D02*
X196686667Y-57108847D01*
X196686667Y-57108847D02*
X196734286Y-57299323D01*
X196734286Y-57299323D02*
X196781905Y-57394561D01*
X196781905Y-57394561D02*
X196877143Y-57489800D01*
X196877143Y-57489800D02*
X197020000Y-57537419D01*
X197020000Y-57537419D02*
X197115238Y-57537419D01*
X197115238Y-57537419D02*
X197258095Y-57489800D01*
X197258095Y-57489800D02*
X197305714Y-57442180D01*
X197305714Y-57442180D02*
X197305714Y-57108847D01*
X197305714Y-57108847D02*
X197115238Y-57108847D01*
X197734286Y-57537419D02*
X197734286Y-56537419D01*
X197734286Y-56537419D02*
X198305714Y-57537419D01*
X198305714Y-57537419D02*
X198305714Y-56537419D01*
X198781905Y-57537419D02*
X198781905Y-56537419D01*
X198781905Y-56537419D02*
X199020000Y-56537419D01*
X199020000Y-56537419D02*
X199162857Y-56585038D01*
X199162857Y-56585038D02*
X199258095Y-56680276D01*
X199258095Y-56680276D02*
X199305714Y-56775514D01*
X199305714Y-56775514D02*
X199353333Y-56965990D01*
X199353333Y-56965990D02*
X199353333Y-57108847D01*
X199353333Y-57108847D02*
X199305714Y-57299323D01*
X199305714Y-57299323D02*
X199258095Y-57394561D01*
X199258095Y-57394561D02*
X199162857Y-57489800D01*
X199162857Y-57489800D02*
X199020000Y-57537419D01*
X199020000Y-57537419D02*
X198781905Y-57537419D01*
X219616657Y-81914856D02*
X219545228Y-82057714D01*
X219545228Y-82057714D02*
X219545228Y-82271999D01*
X219545228Y-82271999D02*
X219616657Y-82486285D01*
X219616657Y-82486285D02*
X219759514Y-82629142D01*
X219759514Y-82629142D02*
X219902371Y-82700571D01*
X219902371Y-82700571D02*
X220188085Y-82771999D01*
X220188085Y-82771999D02*
X220402371Y-82771999D01*
X220402371Y-82771999D02*
X220688085Y-82700571D01*
X220688085Y-82700571D02*
X220830942Y-82629142D01*
X220830942Y-82629142D02*
X220973800Y-82486285D01*
X220973800Y-82486285D02*
X221045228Y-82271999D01*
X221045228Y-82271999D02*
X221045228Y-82129142D01*
X221045228Y-82129142D02*
X220973800Y-81914856D01*
X220973800Y-81914856D02*
X220902371Y-81843428D01*
X220902371Y-81843428D02*
X220402371Y-81843428D01*
X220402371Y-81843428D02*
X220402371Y-82129142D01*
X221045228Y-81200571D02*
X219545228Y-81200571D01*
X219545228Y-81200571D02*
X221045228Y-80343428D01*
X221045228Y-80343428D02*
X219545228Y-80343428D01*
X221045228Y-79629142D02*
X219545228Y-79629142D01*
X219545228Y-79629142D02*
X219545228Y-79271999D01*
X219545228Y-79271999D02*
X219616657Y-79057713D01*
X219616657Y-79057713D02*
X219759514Y-78914856D01*
X219759514Y-78914856D02*
X219902371Y-78843427D01*
X219902371Y-78843427D02*
X220188085Y-78771999D01*
X220188085Y-78771999D02*
X220402371Y-78771999D01*
X220402371Y-78771999D02*
X220688085Y-78843427D01*
X220688085Y-78843427D02*
X220830942Y-78914856D01*
X220830942Y-78914856D02*
X220973800Y-79057713D01*
X220973800Y-79057713D02*
X221045228Y-79271999D01*
X221045228Y-79271999D02*
X221045228Y-79629142D01*
D11*
X207210819Y-55789857D02*
X206734628Y-56123190D01*
X207210819Y-56361285D02*
X206210819Y-56361285D01*
X206210819Y-56361285D02*
X206210819Y-55980333D01*
X206210819Y-55980333D02*
X206258438Y-55885095D01*
X206258438Y-55885095D02*
X206306057Y-55837476D01*
X206306057Y-55837476D02*
X206401295Y-55789857D01*
X206401295Y-55789857D02*
X206544152Y-55789857D01*
X206544152Y-55789857D02*
X206639390Y-55837476D01*
X206639390Y-55837476D02*
X206687009Y-55885095D01*
X206687009Y-55885095D02*
X206734628Y-55980333D01*
X206734628Y-55980333D02*
X206734628Y-56361285D01*
X206306057Y-55408904D02*
X206258438Y-55361285D01*
X206258438Y-55361285D02*
X206210819Y-55266047D01*
X206210819Y-55266047D02*
X206210819Y-55027952D01*
X206210819Y-55027952D02*
X206258438Y-54932714D01*
X206258438Y-54932714D02*
X206306057Y-54885095D01*
X206306057Y-54885095D02*
X206401295Y-54837476D01*
X206401295Y-54837476D02*
X206496533Y-54837476D01*
X206496533Y-54837476D02*
X206639390Y-54885095D01*
X206639390Y-54885095D02*
X207210819Y-55456523D01*
X207210819Y-55456523D02*
X207210819Y-54837476D01*
X206544152Y-53980333D02*
X207210819Y-53980333D01*
X206163200Y-54218428D02*
X206877485Y-54456523D01*
X206877485Y-54456523D02*
X206877485Y-53837476D01*
X211444819Y-55281857D02*
X210968628Y-55615190D01*
X211444819Y-55853285D02*
X210444819Y-55853285D01*
X210444819Y-55853285D02*
X210444819Y-55472333D01*
X210444819Y-55472333D02*
X210492438Y-55377095D01*
X210492438Y-55377095D02*
X210540057Y-55329476D01*
X210540057Y-55329476D02*
X210635295Y-55281857D01*
X210635295Y-55281857D02*
X210778152Y-55281857D01*
X210778152Y-55281857D02*
X210873390Y-55329476D01*
X210873390Y-55329476D02*
X210921009Y-55377095D01*
X210921009Y-55377095D02*
X210968628Y-55472333D01*
X210968628Y-55472333D02*
X210968628Y-55853285D01*
X210540057Y-54900904D02*
X210492438Y-54853285D01*
X210492438Y-54853285D02*
X210444819Y-54758047D01*
X210444819Y-54758047D02*
X210444819Y-54519952D01*
X210444819Y-54519952D02*
X210492438Y-54424714D01*
X210492438Y-54424714D02*
X210540057Y-54377095D01*
X210540057Y-54377095D02*
X210635295Y-54329476D01*
X210635295Y-54329476D02*
X210730533Y-54329476D01*
X210730533Y-54329476D02*
X210873390Y-54377095D01*
X210873390Y-54377095D02*
X211444819Y-54948523D01*
X211444819Y-54948523D02*
X211444819Y-54329476D01*
X210444819Y-53996142D02*
X210444819Y-53377095D01*
X210444819Y-53377095D02*
X210825771Y-53710428D01*
X210825771Y-53710428D02*
X210825771Y-53567571D01*
X210825771Y-53567571D02*
X210873390Y-53472333D01*
X210873390Y-53472333D02*
X210921009Y-53424714D01*
X210921009Y-53424714D02*
X211016247Y-53377095D01*
X211016247Y-53377095D02*
X211254342Y-53377095D01*
X211254342Y-53377095D02*
X211349580Y-53424714D01*
X211349580Y-53424714D02*
X211397200Y-53472333D01*
X211397200Y-53472333D02*
X211444819Y-53567571D01*
X211444819Y-53567571D02*
X211444819Y-53853285D01*
X211444819Y-53853285D02*
X211397200Y-53948523D01*
X211397200Y-53948523D02*
X211349580Y-53996142D01*
X224051905Y-72336819D02*
X224051905Y-71336819D01*
X224051905Y-71336819D02*
X224290000Y-71336819D01*
X224290000Y-71336819D02*
X224432857Y-71384438D01*
X224432857Y-71384438D02*
X224528095Y-71479676D01*
X224528095Y-71479676D02*
X224575714Y-71574914D01*
X224575714Y-71574914D02*
X224623333Y-71765390D01*
X224623333Y-71765390D02*
X224623333Y-71908247D01*
X224623333Y-71908247D02*
X224575714Y-72098723D01*
X224575714Y-72098723D02*
X224528095Y-72193961D01*
X224528095Y-72193961D02*
X224432857Y-72289200D01*
X224432857Y-72289200D02*
X224290000Y-72336819D01*
X224290000Y-72336819D02*
X224051905Y-72336819D01*
X225575714Y-72336819D02*
X225004286Y-72336819D01*
X225290000Y-72336819D02*
X225290000Y-71336819D01*
X225290000Y-71336819D02*
X225194762Y-71479676D01*
X225194762Y-71479676D02*
X225099524Y-71574914D01*
X225099524Y-71574914D02*
X225004286Y-71622533D01*
X220210095Y-68250819D02*
X220210095Y-67250819D01*
X220781523Y-68250819D02*
X220352952Y-67679390D01*
X220781523Y-67250819D02*
X220210095Y-67822247D01*
X194256819Y-75064857D02*
X193780628Y-75398190D01*
X194256819Y-75636285D02*
X193256819Y-75636285D01*
X193256819Y-75636285D02*
X193256819Y-75255333D01*
X193256819Y-75255333D02*
X193304438Y-75160095D01*
X193304438Y-75160095D02*
X193352057Y-75112476D01*
X193352057Y-75112476D02*
X193447295Y-75064857D01*
X193447295Y-75064857D02*
X193590152Y-75064857D01*
X193590152Y-75064857D02*
X193685390Y-75112476D01*
X193685390Y-75112476D02*
X193733009Y-75160095D01*
X193733009Y-75160095D02*
X193780628Y-75255333D01*
X193780628Y-75255333D02*
X193780628Y-75636285D01*
X193352057Y-74683904D02*
X193304438Y-74636285D01*
X193304438Y-74636285D02*
X193256819Y-74541047D01*
X193256819Y-74541047D02*
X193256819Y-74302952D01*
X193256819Y-74302952D02*
X193304438Y-74207714D01*
X193304438Y-74207714D02*
X193352057Y-74160095D01*
X193352057Y-74160095D02*
X193447295Y-74112476D01*
X193447295Y-74112476D02*
X193542533Y-74112476D01*
X193542533Y-74112476D02*
X193685390Y-74160095D01*
X193685390Y-74160095D02*
X194256819Y-74731523D01*
X194256819Y-74731523D02*
X194256819Y-74112476D01*
X193352057Y-73731523D02*
X193304438Y-73683904D01*
X193304438Y-73683904D02*
X193256819Y-73588666D01*
X193256819Y-73588666D02*
X193256819Y-73350571D01*
X193256819Y-73350571D02*
X193304438Y-73255333D01*
X193304438Y-73255333D02*
X193352057Y-73207714D01*
X193352057Y-73207714D02*
X193447295Y-73160095D01*
X193447295Y-73160095D02*
X193542533Y-73160095D01*
X193542533Y-73160095D02*
X193685390Y-73207714D01*
X193685390Y-73207714D02*
X194256819Y-73779142D01*
X194256819Y-73779142D02*
X194256819Y-73160095D01*
X264174819Y-55252857D02*
X263698628Y-55586190D01*
X264174819Y-55824285D02*
X263174819Y-55824285D01*
X263174819Y-55824285D02*
X263174819Y-55443333D01*
X263174819Y-55443333D02*
X263222438Y-55348095D01*
X263222438Y-55348095D02*
X263270057Y-55300476D01*
X263270057Y-55300476D02*
X263365295Y-55252857D01*
X263365295Y-55252857D02*
X263508152Y-55252857D01*
X263508152Y-55252857D02*
X263603390Y-55300476D01*
X263603390Y-55300476D02*
X263651009Y-55348095D01*
X263651009Y-55348095D02*
X263698628Y-55443333D01*
X263698628Y-55443333D02*
X263698628Y-55824285D01*
X264174819Y-54300476D02*
X264174819Y-54871904D01*
X264174819Y-54586190D02*
X263174819Y-54586190D01*
X263174819Y-54586190D02*
X263317676Y-54681428D01*
X263317676Y-54681428D02*
X263412914Y-54776666D01*
X263412914Y-54776666D02*
X263460533Y-54871904D01*
X263174819Y-53443333D02*
X263174819Y-53633809D01*
X263174819Y-53633809D02*
X263222438Y-53729047D01*
X263222438Y-53729047D02*
X263270057Y-53776666D01*
X263270057Y-53776666D02*
X263412914Y-53871904D01*
X263412914Y-53871904D02*
X263603390Y-53919523D01*
X263603390Y-53919523D02*
X263984342Y-53919523D01*
X263984342Y-53919523D02*
X264079580Y-53871904D01*
X264079580Y-53871904D02*
X264127200Y-53824285D01*
X264127200Y-53824285D02*
X264174819Y-53729047D01*
X264174819Y-53729047D02*
X264174819Y-53538571D01*
X264174819Y-53538571D02*
X264127200Y-53443333D01*
X264127200Y-53443333D02*
X264079580Y-53395714D01*
X264079580Y-53395714D02*
X263984342Y-53348095D01*
X263984342Y-53348095D02*
X263746247Y-53348095D01*
X263746247Y-53348095D02*
X263651009Y-53395714D01*
X263651009Y-53395714D02*
X263603390Y-53443333D01*
X263603390Y-53443333D02*
X263555771Y-53538571D01*
X263555771Y-53538571D02*
X263555771Y-53729047D01*
X263555771Y-53729047D02*
X263603390Y-53824285D01*
X263603390Y-53824285D02*
X263651009Y-53871904D01*
X263651009Y-53871904D02*
X263746247Y-53919523D01*
X224863571Y-55550057D02*
X224768333Y-55502438D01*
X224768333Y-55502438D02*
X224673095Y-55407200D01*
X224673095Y-55407200D02*
X224530238Y-55264342D01*
X224530238Y-55264342D02*
X224435000Y-55216723D01*
X224435000Y-55216723D02*
X224339762Y-55216723D01*
X224387381Y-55454819D02*
X224292143Y-55407200D01*
X224292143Y-55407200D02*
X224196905Y-55311961D01*
X224196905Y-55311961D02*
X224149286Y-55121485D01*
X224149286Y-55121485D02*
X224149286Y-54788152D01*
X224149286Y-54788152D02*
X224196905Y-54597676D01*
X224196905Y-54597676D02*
X224292143Y-54502438D01*
X224292143Y-54502438D02*
X224387381Y-54454819D01*
X224387381Y-54454819D02*
X224577857Y-54454819D01*
X224577857Y-54454819D02*
X224673095Y-54502438D01*
X224673095Y-54502438D02*
X224768333Y-54597676D01*
X224768333Y-54597676D02*
X224815952Y-54788152D01*
X224815952Y-54788152D02*
X224815952Y-55121485D01*
X224815952Y-55121485D02*
X224768333Y-55311961D01*
X224768333Y-55311961D02*
X224673095Y-55407200D01*
X224673095Y-55407200D02*
X224577857Y-55454819D01*
X224577857Y-55454819D02*
X224387381Y-55454819D01*
X225768333Y-55454819D02*
X225196905Y-55454819D01*
X225482619Y-55454819D02*
X225482619Y-54454819D01*
X225482619Y-54454819D02*
X225387381Y-54597676D01*
X225387381Y-54597676D02*
X225292143Y-54692914D01*
X225292143Y-54692914D02*
X225196905Y-54740533D01*
X226625476Y-54454819D02*
X226435000Y-54454819D01*
X226435000Y-54454819D02*
X226339762Y-54502438D01*
X226339762Y-54502438D02*
X226292143Y-54550057D01*
X226292143Y-54550057D02*
X226196905Y-54692914D01*
X226196905Y-54692914D02*
X226149286Y-54883390D01*
X226149286Y-54883390D02*
X226149286Y-55264342D01*
X226149286Y-55264342D02*
X226196905Y-55359580D01*
X226196905Y-55359580D02*
X226244524Y-55407200D01*
X226244524Y-55407200D02*
X226339762Y-55454819D01*
X226339762Y-55454819D02*
X226530238Y-55454819D01*
X226530238Y-55454819D02*
X226625476Y-55407200D01*
X226625476Y-55407200D02*
X226673095Y-55359580D01*
X226673095Y-55359580D02*
X226720714Y-55264342D01*
X226720714Y-55264342D02*
X226720714Y-55026247D01*
X226720714Y-55026247D02*
X226673095Y-54931009D01*
X226673095Y-54931009D02*
X226625476Y-54883390D01*
X226625476Y-54883390D02*
X226530238Y-54835771D01*
X226530238Y-54835771D02*
X226339762Y-54835771D01*
X226339762Y-54835771D02*
X226244524Y-54883390D01*
X226244524Y-54883390D02*
X226196905Y-54931009D01*
X226196905Y-54931009D02*
X226149286Y-55026247D01*
X246104580Y-40647857D02*
X246152200Y-40695476D01*
X246152200Y-40695476D02*
X246199819Y-40838333D01*
X246199819Y-40838333D02*
X246199819Y-40933571D01*
X246199819Y-40933571D02*
X246152200Y-41076428D01*
X246152200Y-41076428D02*
X246056961Y-41171666D01*
X246056961Y-41171666D02*
X245961723Y-41219285D01*
X245961723Y-41219285D02*
X245771247Y-41266904D01*
X245771247Y-41266904D02*
X245628390Y-41266904D01*
X245628390Y-41266904D02*
X245437914Y-41219285D01*
X245437914Y-41219285D02*
X245342676Y-41171666D01*
X245342676Y-41171666D02*
X245247438Y-41076428D01*
X245247438Y-41076428D02*
X245199819Y-40933571D01*
X245199819Y-40933571D02*
X245199819Y-40838333D01*
X245199819Y-40838333D02*
X245247438Y-40695476D01*
X245247438Y-40695476D02*
X245295057Y-40647857D01*
X246199819Y-39695476D02*
X246199819Y-40266904D01*
X246199819Y-39981190D02*
X245199819Y-39981190D01*
X245199819Y-39981190D02*
X245342676Y-40076428D01*
X245342676Y-40076428D02*
X245437914Y-40171666D01*
X245437914Y-40171666D02*
X245485533Y-40266904D01*
X245533152Y-38838333D02*
X246199819Y-38838333D01*
X245152200Y-39076428D02*
X245866485Y-39314523D01*
X245866485Y-39314523D02*
X245866485Y-38695476D01*
X209454761Y-31792057D02*
X209359523Y-31744438D01*
X209359523Y-31744438D02*
X209264285Y-31649200D01*
X209264285Y-31649200D02*
X209121428Y-31506342D01*
X209121428Y-31506342D02*
X209026190Y-31458723D01*
X209026190Y-31458723D02*
X208930952Y-31458723D01*
X208978571Y-31696819D02*
X208883333Y-31649200D01*
X208883333Y-31649200D02*
X208788095Y-31553961D01*
X208788095Y-31553961D02*
X208740476Y-31363485D01*
X208740476Y-31363485D02*
X208740476Y-31030152D01*
X208740476Y-31030152D02*
X208788095Y-30839676D01*
X208788095Y-30839676D02*
X208883333Y-30744438D01*
X208883333Y-30744438D02*
X208978571Y-30696819D01*
X208978571Y-30696819D02*
X209169047Y-30696819D01*
X209169047Y-30696819D02*
X209264285Y-30744438D01*
X209264285Y-30744438D02*
X209359523Y-30839676D01*
X209359523Y-30839676D02*
X209407142Y-31030152D01*
X209407142Y-31030152D02*
X209407142Y-31363485D01*
X209407142Y-31363485D02*
X209359523Y-31553961D01*
X209359523Y-31553961D02*
X209264285Y-31649200D01*
X209264285Y-31649200D02*
X209169047Y-31696819D01*
X209169047Y-31696819D02*
X208978571Y-31696819D01*
X210264285Y-31030152D02*
X210264285Y-31696819D01*
X210026190Y-30649200D02*
X209788095Y-31363485D01*
X209788095Y-31363485D02*
X210407142Y-31363485D01*
X214534761Y-41825057D02*
X214439523Y-41777438D01*
X214439523Y-41777438D02*
X214344285Y-41682200D01*
X214344285Y-41682200D02*
X214201428Y-41539342D01*
X214201428Y-41539342D02*
X214106190Y-41491723D01*
X214106190Y-41491723D02*
X214010952Y-41491723D01*
X214058571Y-41729819D02*
X213963333Y-41682200D01*
X213963333Y-41682200D02*
X213868095Y-41586961D01*
X213868095Y-41586961D02*
X213820476Y-41396485D01*
X213820476Y-41396485D02*
X213820476Y-41063152D01*
X213820476Y-41063152D02*
X213868095Y-40872676D01*
X213868095Y-40872676D02*
X213963333Y-40777438D01*
X213963333Y-40777438D02*
X214058571Y-40729819D01*
X214058571Y-40729819D02*
X214249047Y-40729819D01*
X214249047Y-40729819D02*
X214344285Y-40777438D01*
X214344285Y-40777438D02*
X214439523Y-40872676D01*
X214439523Y-40872676D02*
X214487142Y-41063152D01*
X214487142Y-41063152D02*
X214487142Y-41396485D01*
X214487142Y-41396485D02*
X214439523Y-41586961D01*
X214439523Y-41586961D02*
X214344285Y-41682200D01*
X214344285Y-41682200D02*
X214249047Y-41729819D01*
X214249047Y-41729819D02*
X214058571Y-41729819D01*
X215439523Y-41729819D02*
X214868095Y-41729819D01*
X215153809Y-41729819D02*
X215153809Y-40729819D01*
X215153809Y-40729819D02*
X215058571Y-40872676D01*
X215058571Y-40872676D02*
X214963333Y-40967914D01*
X214963333Y-40967914D02*
X214868095Y-41015533D01*
X206843333Y-79844819D02*
X206510000Y-79368628D01*
X206271905Y-79844819D02*
X206271905Y-78844819D01*
X206271905Y-78844819D02*
X206652857Y-78844819D01*
X206652857Y-78844819D02*
X206748095Y-78892438D01*
X206748095Y-78892438D02*
X206795714Y-78940057D01*
X206795714Y-78940057D02*
X206843333Y-79035295D01*
X206843333Y-79035295D02*
X206843333Y-79178152D01*
X206843333Y-79178152D02*
X206795714Y-79273390D01*
X206795714Y-79273390D02*
X206748095Y-79321009D01*
X206748095Y-79321009D02*
X206652857Y-79368628D01*
X206652857Y-79368628D02*
X206271905Y-79368628D01*
X207748095Y-78844819D02*
X207271905Y-78844819D01*
X207271905Y-78844819D02*
X207224286Y-79321009D01*
X207224286Y-79321009D02*
X207271905Y-79273390D01*
X207271905Y-79273390D02*
X207367143Y-79225771D01*
X207367143Y-79225771D02*
X207605238Y-79225771D01*
X207605238Y-79225771D02*
X207700476Y-79273390D01*
X207700476Y-79273390D02*
X207748095Y-79321009D01*
X207748095Y-79321009D02*
X207795714Y-79416247D01*
X207795714Y-79416247D02*
X207795714Y-79654342D01*
X207795714Y-79654342D02*
X207748095Y-79749580D01*
X207748095Y-79749580D02*
X207700476Y-79797200D01*
X207700476Y-79797200D02*
X207605238Y-79844819D01*
X207605238Y-79844819D02*
X207367143Y-79844819D01*
X207367143Y-79844819D02*
X207271905Y-79797200D01*
X207271905Y-79797200D02*
X207224286Y-79749580D01*
X248174819Y-50903094D02*
X247174819Y-50903094D01*
X247174819Y-50903094D02*
X247174819Y-50664999D01*
X247174819Y-50664999D02*
X247222438Y-50522142D01*
X247222438Y-50522142D02*
X247317676Y-50426904D01*
X247317676Y-50426904D02*
X247412914Y-50379285D01*
X247412914Y-50379285D02*
X247603390Y-50331666D01*
X247603390Y-50331666D02*
X247746247Y-50331666D01*
X247746247Y-50331666D02*
X247936723Y-50379285D01*
X247936723Y-50379285D02*
X248031961Y-50426904D01*
X248031961Y-50426904D02*
X248127200Y-50522142D01*
X248127200Y-50522142D02*
X248174819Y-50664999D01*
X248174819Y-50664999D02*
X248174819Y-50903094D01*
X247174819Y-49474523D02*
X247174819Y-49664999D01*
X247174819Y-49664999D02*
X247222438Y-49760237D01*
X247222438Y-49760237D02*
X247270057Y-49807856D01*
X247270057Y-49807856D02*
X247412914Y-49903094D01*
X247412914Y-49903094D02*
X247603390Y-49950713D01*
X247603390Y-49950713D02*
X247984342Y-49950713D01*
X247984342Y-49950713D02*
X248079580Y-49903094D01*
X248079580Y-49903094D02*
X248127200Y-49855475D01*
X248127200Y-49855475D02*
X248174819Y-49760237D01*
X248174819Y-49760237D02*
X248174819Y-49569761D01*
X248174819Y-49569761D02*
X248127200Y-49474523D01*
X248127200Y-49474523D02*
X248079580Y-49426904D01*
X248079580Y-49426904D02*
X247984342Y-49379285D01*
X247984342Y-49379285D02*
X247746247Y-49379285D01*
X247746247Y-49379285D02*
X247651009Y-49426904D01*
X247651009Y-49426904D02*
X247603390Y-49474523D01*
X247603390Y-49474523D02*
X247555771Y-49569761D01*
X247555771Y-49569761D02*
X247555771Y-49760237D01*
X247555771Y-49760237D02*
X247603390Y-49855475D01*
X247603390Y-49855475D02*
X247651009Y-49903094D01*
X247651009Y-49903094D02*
X247746247Y-49950713D01*
X248544819Y-55506904D02*
X247544819Y-55506904D01*
X248544819Y-54935476D02*
X247973390Y-55364047D01*
X247544819Y-54935476D02*
X248116247Y-55506904D01*
X194143333Y-48619580D02*
X194095714Y-48667200D01*
X194095714Y-48667200D02*
X193952857Y-48714819D01*
X193952857Y-48714819D02*
X193857619Y-48714819D01*
X193857619Y-48714819D02*
X193714762Y-48667200D01*
X193714762Y-48667200D02*
X193619524Y-48571961D01*
X193619524Y-48571961D02*
X193571905Y-48476723D01*
X193571905Y-48476723D02*
X193524286Y-48286247D01*
X193524286Y-48286247D02*
X193524286Y-48143390D01*
X193524286Y-48143390D02*
X193571905Y-47952914D01*
X193571905Y-47952914D02*
X193619524Y-47857676D01*
X193619524Y-47857676D02*
X193714762Y-47762438D01*
X193714762Y-47762438D02*
X193857619Y-47714819D01*
X193857619Y-47714819D02*
X193952857Y-47714819D01*
X193952857Y-47714819D02*
X194095714Y-47762438D01*
X194095714Y-47762438D02*
X194143333Y-47810057D01*
X194524286Y-47810057D02*
X194571905Y-47762438D01*
X194571905Y-47762438D02*
X194667143Y-47714819D01*
X194667143Y-47714819D02*
X194905238Y-47714819D01*
X194905238Y-47714819D02*
X195000476Y-47762438D01*
X195000476Y-47762438D02*
X195048095Y-47810057D01*
X195048095Y-47810057D02*
X195095714Y-47905295D01*
X195095714Y-47905295D02*
X195095714Y-48000533D01*
X195095714Y-48000533D02*
X195048095Y-48143390D01*
X195048095Y-48143390D02*
X194476667Y-48714819D01*
X194476667Y-48714819D02*
X195095714Y-48714819D01*
X216354819Y-63031666D02*
X215878628Y-63364999D01*
X216354819Y-63603094D02*
X215354819Y-63603094D01*
X215354819Y-63603094D02*
X215354819Y-63222142D01*
X215354819Y-63222142D02*
X215402438Y-63126904D01*
X215402438Y-63126904D02*
X215450057Y-63079285D01*
X215450057Y-63079285D02*
X215545295Y-63031666D01*
X215545295Y-63031666D02*
X215688152Y-63031666D01*
X215688152Y-63031666D02*
X215783390Y-63079285D01*
X215783390Y-63079285D02*
X215831009Y-63126904D01*
X215831009Y-63126904D02*
X215878628Y-63222142D01*
X215878628Y-63222142D02*
X215878628Y-63603094D01*
X216354819Y-62555475D02*
X216354819Y-62364999D01*
X216354819Y-62364999D02*
X216307200Y-62269761D01*
X216307200Y-62269761D02*
X216259580Y-62222142D01*
X216259580Y-62222142D02*
X216116723Y-62126904D01*
X216116723Y-62126904D02*
X215926247Y-62079285D01*
X215926247Y-62079285D02*
X215545295Y-62079285D01*
X215545295Y-62079285D02*
X215450057Y-62126904D01*
X215450057Y-62126904D02*
X215402438Y-62174523D01*
X215402438Y-62174523D02*
X215354819Y-62269761D01*
X215354819Y-62269761D02*
X215354819Y-62460237D01*
X215354819Y-62460237D02*
X215402438Y-62555475D01*
X215402438Y-62555475D02*
X215450057Y-62603094D01*
X215450057Y-62603094D02*
X215545295Y-62650713D01*
X215545295Y-62650713D02*
X215783390Y-62650713D01*
X215783390Y-62650713D02*
X215878628Y-62603094D01*
X215878628Y-62603094D02*
X215926247Y-62555475D01*
X215926247Y-62555475D02*
X215973866Y-62460237D01*
X215973866Y-62460237D02*
X215973866Y-62269761D01*
X215973866Y-62269761D02*
X215926247Y-62174523D01*
X215926247Y-62174523D02*
X215878628Y-62126904D01*
X215878628Y-62126904D02*
X215783390Y-62079285D01*
X223989819Y-38266666D02*
X223513628Y-38599999D01*
X223989819Y-38838094D02*
X222989819Y-38838094D01*
X222989819Y-38838094D02*
X222989819Y-38457142D01*
X222989819Y-38457142D02*
X223037438Y-38361904D01*
X223037438Y-38361904D02*
X223085057Y-38314285D01*
X223085057Y-38314285D02*
X223180295Y-38266666D01*
X223180295Y-38266666D02*
X223323152Y-38266666D01*
X223323152Y-38266666D02*
X223418390Y-38314285D01*
X223418390Y-38314285D02*
X223466009Y-38361904D01*
X223466009Y-38361904D02*
X223513628Y-38457142D01*
X223513628Y-38457142D02*
X223513628Y-38838094D01*
X222989819Y-37933332D02*
X222989819Y-37314285D01*
X222989819Y-37314285D02*
X223370771Y-37647618D01*
X223370771Y-37647618D02*
X223370771Y-37504761D01*
X223370771Y-37504761D02*
X223418390Y-37409523D01*
X223418390Y-37409523D02*
X223466009Y-37361904D01*
X223466009Y-37361904D02*
X223561247Y-37314285D01*
X223561247Y-37314285D02*
X223799342Y-37314285D01*
X223799342Y-37314285D02*
X223894580Y-37361904D01*
X223894580Y-37361904D02*
X223942200Y-37409523D01*
X223942200Y-37409523D02*
X223989819Y-37504761D01*
X223989819Y-37504761D02*
X223989819Y-37790475D01*
X223989819Y-37790475D02*
X223942200Y-37885713D01*
X223942200Y-37885713D02*
X223894580Y-37933332D01*
X248104819Y-93924285D02*
X247104819Y-93924285D01*
X247104819Y-93924285D02*
X247104819Y-93686190D01*
X247104819Y-93686190D02*
X247152438Y-93543333D01*
X247152438Y-93543333D02*
X247247676Y-93448095D01*
X247247676Y-93448095D02*
X247342914Y-93400476D01*
X247342914Y-93400476D02*
X247533390Y-93352857D01*
X247533390Y-93352857D02*
X247676247Y-93352857D01*
X247676247Y-93352857D02*
X247866723Y-93400476D01*
X247866723Y-93400476D02*
X247961961Y-93448095D01*
X247961961Y-93448095D02*
X248057200Y-93543333D01*
X248057200Y-93543333D02*
X248104819Y-93686190D01*
X248104819Y-93686190D02*
X248104819Y-93924285D01*
X248104819Y-92400476D02*
X248104819Y-92971904D01*
X248104819Y-92686190D02*
X247104819Y-92686190D01*
X247104819Y-92686190D02*
X247247676Y-92781428D01*
X247247676Y-92781428D02*
X247342914Y-92876666D01*
X247342914Y-92876666D02*
X247390533Y-92971904D01*
X248104819Y-91448095D02*
X248104819Y-92019523D01*
X248104819Y-91733809D02*
X247104819Y-91733809D01*
X247104819Y-91733809D02*
X247247676Y-91829047D01*
X247247676Y-91829047D02*
X247342914Y-91924285D01*
X247342914Y-91924285D02*
X247390533Y-92019523D01*
X252744819Y-87891904D02*
X251744819Y-87891904D01*
X252744819Y-87320476D02*
X252173390Y-87749047D01*
X251744819Y-87320476D02*
X252316247Y-87891904D01*
D10*
X256714666Y-109312419D02*
X256714666Y-110026704D01*
X256714666Y-110026704D02*
X256667047Y-110169561D01*
X256667047Y-110169561D02*
X256571809Y-110264800D01*
X256571809Y-110264800D02*
X256428952Y-110312419D01*
X256428952Y-110312419D02*
X256333714Y-110312419D01*
X257143238Y-109407657D02*
X257190857Y-109360038D01*
X257190857Y-109360038D02*
X257286095Y-109312419D01*
X257286095Y-109312419D02*
X257524190Y-109312419D01*
X257524190Y-109312419D02*
X257619428Y-109360038D01*
X257619428Y-109360038D02*
X257667047Y-109407657D01*
X257667047Y-109407657D02*
X257714666Y-109502895D01*
X257714666Y-109502895D02*
X257714666Y-109598133D01*
X257714666Y-109598133D02*
X257667047Y-109740990D01*
X257667047Y-109740990D02*
X257095619Y-110312419D01*
X257095619Y-110312419D02*
X257714666Y-110312419D01*
D11*
X276218057Y-73495238D02*
X276170438Y-73590476D01*
X276170438Y-73590476D02*
X276075200Y-73685714D01*
X276075200Y-73685714D02*
X275932342Y-73828571D01*
X275932342Y-73828571D02*
X275884723Y-73923809D01*
X275884723Y-73923809D02*
X275884723Y-74019047D01*
X276122819Y-73971428D02*
X276075200Y-74066666D01*
X276075200Y-74066666D02*
X275979961Y-74161904D01*
X275979961Y-74161904D02*
X275789485Y-74209523D01*
X275789485Y-74209523D02*
X275456152Y-74209523D01*
X275456152Y-74209523D02*
X275265676Y-74161904D01*
X275265676Y-74161904D02*
X275170438Y-74066666D01*
X275170438Y-74066666D02*
X275122819Y-73971428D01*
X275122819Y-73971428D02*
X275122819Y-73780952D01*
X275122819Y-73780952D02*
X275170438Y-73685714D01*
X275170438Y-73685714D02*
X275265676Y-73590476D01*
X275265676Y-73590476D02*
X275456152Y-73542857D01*
X275456152Y-73542857D02*
X275789485Y-73542857D01*
X275789485Y-73542857D02*
X275979961Y-73590476D01*
X275979961Y-73590476D02*
X276075200Y-73685714D01*
X276075200Y-73685714D02*
X276122819Y-73780952D01*
X276122819Y-73780952D02*
X276122819Y-73971428D01*
X275122819Y-73209523D02*
X275122819Y-72542857D01*
X275122819Y-72542857D02*
X276122819Y-72971428D01*
X248975714Y-110944819D02*
X248975714Y-109944819D01*
X248975714Y-109944819D02*
X249213809Y-109944819D01*
X249213809Y-109944819D02*
X249356666Y-109992438D01*
X249356666Y-109992438D02*
X249451904Y-110087676D01*
X249451904Y-110087676D02*
X249499523Y-110182914D01*
X249499523Y-110182914D02*
X249547142Y-110373390D01*
X249547142Y-110373390D02*
X249547142Y-110516247D01*
X249547142Y-110516247D02*
X249499523Y-110706723D01*
X249499523Y-110706723D02*
X249451904Y-110801961D01*
X249451904Y-110801961D02*
X249356666Y-110897200D01*
X249356666Y-110897200D02*
X249213809Y-110944819D01*
X249213809Y-110944819D02*
X248975714Y-110944819D01*
X250499523Y-110944819D02*
X249928095Y-110944819D01*
X250213809Y-110944819D02*
X250213809Y-109944819D01*
X250213809Y-109944819D02*
X250118571Y-110087676D01*
X250118571Y-110087676D02*
X250023333Y-110182914D01*
X250023333Y-110182914D02*
X249928095Y-110230533D01*
X251118571Y-109944819D02*
X251213809Y-109944819D01*
X251213809Y-109944819D02*
X251309047Y-109992438D01*
X251309047Y-109992438D02*
X251356666Y-110040057D01*
X251356666Y-110040057D02*
X251404285Y-110135295D01*
X251404285Y-110135295D02*
X251451904Y-110325771D01*
X251451904Y-110325771D02*
X251451904Y-110563866D01*
X251451904Y-110563866D02*
X251404285Y-110754342D01*
X251404285Y-110754342D02*
X251356666Y-110849580D01*
X251356666Y-110849580D02*
X251309047Y-110897200D01*
X251309047Y-110897200D02*
X251213809Y-110944819D01*
X251213809Y-110944819D02*
X251118571Y-110944819D01*
X251118571Y-110944819D02*
X251023333Y-110897200D01*
X251023333Y-110897200D02*
X250975714Y-110849580D01*
X250975714Y-110849580D02*
X250928095Y-110754342D01*
X250928095Y-110754342D02*
X250880476Y-110563866D01*
X250880476Y-110563866D02*
X250880476Y-110325771D01*
X250880476Y-110325771D02*
X250928095Y-110135295D01*
X250928095Y-110135295D02*
X250975714Y-110040057D01*
X250975714Y-110040057D02*
X251023333Y-109992438D01*
X251023333Y-109992438D02*
X251118571Y-109944819D01*
X244848095Y-106304819D02*
X244848095Y-105304819D01*
X245419523Y-106304819D02*
X244990952Y-105733390D01*
X245419523Y-105304819D02*
X244848095Y-105876247D01*
X209369819Y-97162857D02*
X208893628Y-97496190D01*
X209369819Y-97734285D02*
X208369819Y-97734285D01*
X208369819Y-97734285D02*
X208369819Y-97353333D01*
X208369819Y-97353333D02*
X208417438Y-97258095D01*
X208417438Y-97258095D02*
X208465057Y-97210476D01*
X208465057Y-97210476D02*
X208560295Y-97162857D01*
X208560295Y-97162857D02*
X208703152Y-97162857D01*
X208703152Y-97162857D02*
X208798390Y-97210476D01*
X208798390Y-97210476D02*
X208846009Y-97258095D01*
X208846009Y-97258095D02*
X208893628Y-97353333D01*
X208893628Y-97353333D02*
X208893628Y-97734285D01*
X209369819Y-96210476D02*
X209369819Y-96781904D01*
X209369819Y-96496190D02*
X208369819Y-96496190D01*
X208369819Y-96496190D02*
X208512676Y-96591428D01*
X208512676Y-96591428D02*
X208607914Y-96686666D01*
X208607914Y-96686666D02*
X208655533Y-96781904D01*
X208703152Y-95353333D02*
X209369819Y-95353333D01*
X208322200Y-95591428D02*
X209036485Y-95829523D01*
X209036485Y-95829523D02*
X209036485Y-95210476D01*
D10*
X224202666Y-78832419D02*
X224202666Y-79546704D01*
X224202666Y-79546704D02*
X224155047Y-79689561D01*
X224155047Y-79689561D02*
X224059809Y-79784800D01*
X224059809Y-79784800D02*
X223916952Y-79832419D01*
X223916952Y-79832419D02*
X223821714Y-79832419D01*
X225155047Y-78832419D02*
X224678857Y-78832419D01*
X224678857Y-78832419D02*
X224631238Y-79308609D01*
X224631238Y-79308609D02*
X224678857Y-79260990D01*
X224678857Y-79260990D02*
X224774095Y-79213371D01*
X224774095Y-79213371D02*
X225012190Y-79213371D01*
X225012190Y-79213371D02*
X225107428Y-79260990D01*
X225107428Y-79260990D02*
X225155047Y-79308609D01*
X225155047Y-79308609D02*
X225202666Y-79403847D01*
X225202666Y-79403847D02*
X225202666Y-79641942D01*
X225202666Y-79641942D02*
X225155047Y-79737180D01*
X225155047Y-79737180D02*
X225107428Y-79784800D01*
X225107428Y-79784800D02*
X225012190Y-79832419D01*
X225012190Y-79832419D02*
X224774095Y-79832419D01*
X224774095Y-79832419D02*
X224678857Y-79784800D01*
X224678857Y-79784800D02*
X224631238Y-79737180D01*
D11*
X248181905Y-32839819D02*
X248181905Y-31839819D01*
X248181905Y-31839819D02*
X248420000Y-31839819D01*
X248420000Y-31839819D02*
X248562857Y-31887438D01*
X248562857Y-31887438D02*
X248658095Y-31982676D01*
X248658095Y-31982676D02*
X248705714Y-32077914D01*
X248705714Y-32077914D02*
X248753333Y-32268390D01*
X248753333Y-32268390D02*
X248753333Y-32411247D01*
X248753333Y-32411247D02*
X248705714Y-32601723D01*
X248705714Y-32601723D02*
X248658095Y-32696961D01*
X248658095Y-32696961D02*
X248562857Y-32792200D01*
X248562857Y-32792200D02*
X248420000Y-32839819D01*
X248420000Y-32839819D02*
X248181905Y-32839819D01*
X249086667Y-31839819D02*
X249753333Y-31839819D01*
X249753333Y-31839819D02*
X249324762Y-32839819D01*
X254373095Y-37479819D02*
X254373095Y-36479819D01*
X254944523Y-37479819D02*
X254515952Y-36908390D01*
X254944523Y-36479819D02*
X254373095Y-37051247D01*
X262469333Y-70971580D02*
X262421714Y-71019200D01*
X262421714Y-71019200D02*
X262278857Y-71066819D01*
X262278857Y-71066819D02*
X262183619Y-71066819D01*
X262183619Y-71066819D02*
X262040762Y-71019200D01*
X262040762Y-71019200D02*
X261945524Y-70923961D01*
X261945524Y-70923961D02*
X261897905Y-70828723D01*
X261897905Y-70828723D02*
X261850286Y-70638247D01*
X261850286Y-70638247D02*
X261850286Y-70495390D01*
X261850286Y-70495390D02*
X261897905Y-70304914D01*
X261897905Y-70304914D02*
X261945524Y-70209676D01*
X261945524Y-70209676D02*
X262040762Y-70114438D01*
X262040762Y-70114438D02*
X262183619Y-70066819D01*
X262183619Y-70066819D02*
X262278857Y-70066819D01*
X262278857Y-70066819D02*
X262421714Y-70114438D01*
X262421714Y-70114438D02*
X262469333Y-70162057D01*
X263326476Y-70066819D02*
X263136000Y-70066819D01*
X263136000Y-70066819D02*
X263040762Y-70114438D01*
X263040762Y-70114438D02*
X262993143Y-70162057D01*
X262993143Y-70162057D02*
X262897905Y-70304914D01*
X262897905Y-70304914D02*
X262850286Y-70495390D01*
X262850286Y-70495390D02*
X262850286Y-70876342D01*
X262850286Y-70876342D02*
X262897905Y-70971580D01*
X262897905Y-70971580D02*
X262945524Y-71019200D01*
X262945524Y-71019200D02*
X263040762Y-71066819D01*
X263040762Y-71066819D02*
X263231238Y-71066819D01*
X263231238Y-71066819D02*
X263326476Y-71019200D01*
X263326476Y-71019200D02*
X263374095Y-70971580D01*
X263374095Y-70971580D02*
X263421714Y-70876342D01*
X263421714Y-70876342D02*
X263421714Y-70638247D01*
X263421714Y-70638247D02*
X263374095Y-70543009D01*
X263374095Y-70543009D02*
X263326476Y-70495390D01*
X263326476Y-70495390D02*
X263231238Y-70447771D01*
X263231238Y-70447771D02*
X263040762Y-70447771D01*
X263040762Y-70447771D02*
X262945524Y-70495390D01*
X262945524Y-70495390D02*
X262897905Y-70543009D01*
X262897905Y-70543009D02*
X262850286Y-70638247D01*
X264174819Y-92082857D02*
X263698628Y-92416190D01*
X264174819Y-92654285D02*
X263174819Y-92654285D01*
X263174819Y-92654285D02*
X263174819Y-92273333D01*
X263174819Y-92273333D02*
X263222438Y-92178095D01*
X263222438Y-92178095D02*
X263270057Y-92130476D01*
X263270057Y-92130476D02*
X263365295Y-92082857D01*
X263365295Y-92082857D02*
X263508152Y-92082857D01*
X263508152Y-92082857D02*
X263603390Y-92130476D01*
X263603390Y-92130476D02*
X263651009Y-92178095D01*
X263651009Y-92178095D02*
X263698628Y-92273333D01*
X263698628Y-92273333D02*
X263698628Y-92654285D01*
X264174819Y-91130476D02*
X264174819Y-91701904D01*
X264174819Y-91416190D02*
X263174819Y-91416190D01*
X263174819Y-91416190D02*
X263317676Y-91511428D01*
X263317676Y-91511428D02*
X263412914Y-91606666D01*
X263412914Y-91606666D02*
X263460533Y-91701904D01*
X263174819Y-90797142D02*
X263174819Y-90130476D01*
X263174819Y-90130476D02*
X264174819Y-90559047D01*
X262879819Y-67952857D02*
X262403628Y-68286190D01*
X262879819Y-68524285D02*
X261879819Y-68524285D01*
X261879819Y-68524285D02*
X261879819Y-68143333D01*
X261879819Y-68143333D02*
X261927438Y-68048095D01*
X261927438Y-68048095D02*
X261975057Y-68000476D01*
X261975057Y-68000476D02*
X262070295Y-67952857D01*
X262070295Y-67952857D02*
X262213152Y-67952857D01*
X262213152Y-67952857D02*
X262308390Y-68000476D01*
X262308390Y-68000476D02*
X262356009Y-68048095D01*
X262356009Y-68048095D02*
X262403628Y-68143333D01*
X262403628Y-68143333D02*
X262403628Y-68524285D01*
X262879819Y-67000476D02*
X262879819Y-67571904D01*
X262879819Y-67286190D02*
X261879819Y-67286190D01*
X261879819Y-67286190D02*
X262022676Y-67381428D01*
X262022676Y-67381428D02*
X262117914Y-67476666D01*
X262117914Y-67476666D02*
X262165533Y-67571904D01*
X262879819Y-66048095D02*
X262879819Y-66619523D01*
X262879819Y-66333809D02*
X261879819Y-66333809D01*
X261879819Y-66333809D02*
X262022676Y-66429047D01*
X262022676Y-66429047D02*
X262117914Y-66524285D01*
X262117914Y-66524285D02*
X262165533Y-66619523D01*
X215084819Y-97162857D02*
X214608628Y-97496190D01*
X215084819Y-97734285D02*
X214084819Y-97734285D01*
X214084819Y-97734285D02*
X214084819Y-97353333D01*
X214084819Y-97353333D02*
X214132438Y-97258095D01*
X214132438Y-97258095D02*
X214180057Y-97210476D01*
X214180057Y-97210476D02*
X214275295Y-97162857D01*
X214275295Y-97162857D02*
X214418152Y-97162857D01*
X214418152Y-97162857D02*
X214513390Y-97210476D01*
X214513390Y-97210476D02*
X214561009Y-97258095D01*
X214561009Y-97258095D02*
X214608628Y-97353333D01*
X214608628Y-97353333D02*
X214608628Y-97734285D01*
X215084819Y-96210476D02*
X215084819Y-96781904D01*
X215084819Y-96496190D02*
X214084819Y-96496190D01*
X214084819Y-96496190D02*
X214227676Y-96591428D01*
X214227676Y-96591428D02*
X214322914Y-96686666D01*
X214322914Y-96686666D02*
X214370533Y-96781904D01*
X214084819Y-95877142D02*
X214084819Y-95258095D01*
X214084819Y-95258095D02*
X214465771Y-95591428D01*
X214465771Y-95591428D02*
X214465771Y-95448571D01*
X214465771Y-95448571D02*
X214513390Y-95353333D01*
X214513390Y-95353333D02*
X214561009Y-95305714D01*
X214561009Y-95305714D02*
X214656247Y-95258095D01*
X214656247Y-95258095D02*
X214894342Y-95258095D01*
X214894342Y-95258095D02*
X214989580Y-95305714D01*
X214989580Y-95305714D02*
X215037200Y-95353333D01*
X215037200Y-95353333D02*
X215084819Y-95448571D01*
X215084819Y-95448571D02*
X215084819Y-95734285D01*
X215084819Y-95734285D02*
X215037200Y-95829523D01*
X215037200Y-95829523D02*
X214989580Y-95877142D01*
X205813571Y-61765057D02*
X205718333Y-61717438D01*
X205718333Y-61717438D02*
X205623095Y-61622200D01*
X205623095Y-61622200D02*
X205480238Y-61479342D01*
X205480238Y-61479342D02*
X205385000Y-61431723D01*
X205385000Y-61431723D02*
X205289762Y-61431723D01*
X205337381Y-61669819D02*
X205242143Y-61622200D01*
X205242143Y-61622200D02*
X205146905Y-61526961D01*
X205146905Y-61526961D02*
X205099286Y-61336485D01*
X205099286Y-61336485D02*
X205099286Y-61003152D01*
X205099286Y-61003152D02*
X205146905Y-60812676D01*
X205146905Y-60812676D02*
X205242143Y-60717438D01*
X205242143Y-60717438D02*
X205337381Y-60669819D01*
X205337381Y-60669819D02*
X205527857Y-60669819D01*
X205527857Y-60669819D02*
X205623095Y-60717438D01*
X205623095Y-60717438D02*
X205718333Y-60812676D01*
X205718333Y-60812676D02*
X205765952Y-61003152D01*
X205765952Y-61003152D02*
X205765952Y-61336485D01*
X205765952Y-61336485D02*
X205718333Y-61526961D01*
X205718333Y-61526961D02*
X205623095Y-61622200D01*
X205623095Y-61622200D02*
X205527857Y-61669819D01*
X205527857Y-61669819D02*
X205337381Y-61669819D01*
X206718333Y-61669819D02*
X206146905Y-61669819D01*
X206432619Y-61669819D02*
X206432619Y-60669819D01*
X206432619Y-60669819D02*
X206337381Y-60812676D01*
X206337381Y-60812676D02*
X206242143Y-60907914D01*
X206242143Y-60907914D02*
X206146905Y-60955533D01*
X207623095Y-60669819D02*
X207146905Y-60669819D01*
X207146905Y-60669819D02*
X207099286Y-61146009D01*
X207099286Y-61146009D02*
X207146905Y-61098390D01*
X207146905Y-61098390D02*
X207242143Y-61050771D01*
X207242143Y-61050771D02*
X207480238Y-61050771D01*
X207480238Y-61050771D02*
X207575476Y-61098390D01*
X207575476Y-61098390D02*
X207623095Y-61146009D01*
X207623095Y-61146009D02*
X207670714Y-61241247D01*
X207670714Y-61241247D02*
X207670714Y-61479342D01*
X207670714Y-61479342D02*
X207623095Y-61574580D01*
X207623095Y-61574580D02*
X207575476Y-61622200D01*
X207575476Y-61622200D02*
X207480238Y-61669819D01*
X207480238Y-61669819D02*
X207242143Y-61669819D01*
X207242143Y-61669819D02*
X207146905Y-61622200D01*
X207146905Y-61622200D02*
X207099286Y-61574580D01*
X202525333Y-40488819D02*
X202192000Y-40012628D01*
X201953905Y-40488819D02*
X201953905Y-39488819D01*
X201953905Y-39488819D02*
X202334857Y-39488819D01*
X202334857Y-39488819D02*
X202430095Y-39536438D01*
X202430095Y-39536438D02*
X202477714Y-39584057D01*
X202477714Y-39584057D02*
X202525333Y-39679295D01*
X202525333Y-39679295D02*
X202525333Y-39822152D01*
X202525333Y-39822152D02*
X202477714Y-39917390D01*
X202477714Y-39917390D02*
X202430095Y-39965009D01*
X202430095Y-39965009D02*
X202334857Y-40012628D01*
X202334857Y-40012628D02*
X201953905Y-40012628D01*
X203477714Y-40488819D02*
X202906286Y-40488819D01*
X203192000Y-40488819D02*
X203192000Y-39488819D01*
X203192000Y-39488819D02*
X203096762Y-39631676D01*
X203096762Y-39631676D02*
X203001524Y-39726914D01*
X203001524Y-39726914D02*
X202906286Y-39774533D01*
X268597142Y-77924819D02*
X268263809Y-77448628D01*
X268025714Y-77924819D02*
X268025714Y-76924819D01*
X268025714Y-76924819D02*
X268406666Y-76924819D01*
X268406666Y-76924819D02*
X268501904Y-76972438D01*
X268501904Y-76972438D02*
X268549523Y-77020057D01*
X268549523Y-77020057D02*
X268597142Y-77115295D01*
X268597142Y-77115295D02*
X268597142Y-77258152D01*
X268597142Y-77258152D02*
X268549523Y-77353390D01*
X268549523Y-77353390D02*
X268501904Y-77401009D01*
X268501904Y-77401009D02*
X268406666Y-77448628D01*
X268406666Y-77448628D02*
X268025714Y-77448628D01*
X269549523Y-77924819D02*
X268978095Y-77924819D01*
X269263809Y-77924819D02*
X269263809Y-76924819D01*
X269263809Y-76924819D02*
X269168571Y-77067676D01*
X269168571Y-77067676D02*
X269073333Y-77162914D01*
X269073333Y-77162914D02*
X268978095Y-77210533D01*
X270120952Y-77353390D02*
X270025714Y-77305771D01*
X270025714Y-77305771D02*
X269978095Y-77258152D01*
X269978095Y-77258152D02*
X269930476Y-77162914D01*
X269930476Y-77162914D02*
X269930476Y-77115295D01*
X269930476Y-77115295D02*
X269978095Y-77020057D01*
X269978095Y-77020057D02*
X270025714Y-76972438D01*
X270025714Y-76972438D02*
X270120952Y-76924819D01*
X270120952Y-76924819D02*
X270311428Y-76924819D01*
X270311428Y-76924819D02*
X270406666Y-76972438D01*
X270406666Y-76972438D02*
X270454285Y-77020057D01*
X270454285Y-77020057D02*
X270501904Y-77115295D01*
X270501904Y-77115295D02*
X270501904Y-77162914D01*
X270501904Y-77162914D02*
X270454285Y-77258152D01*
X270454285Y-77258152D02*
X270406666Y-77305771D01*
X270406666Y-77305771D02*
X270311428Y-77353390D01*
X270311428Y-77353390D02*
X270120952Y-77353390D01*
X270120952Y-77353390D02*
X270025714Y-77401009D01*
X270025714Y-77401009D02*
X269978095Y-77448628D01*
X269978095Y-77448628D02*
X269930476Y-77543866D01*
X269930476Y-77543866D02*
X269930476Y-77734342D01*
X269930476Y-77734342D02*
X269978095Y-77829580D01*
X269978095Y-77829580D02*
X270025714Y-77877200D01*
X270025714Y-77877200D02*
X270120952Y-77924819D01*
X270120952Y-77924819D02*
X270311428Y-77924819D01*
X270311428Y-77924819D02*
X270406666Y-77877200D01*
X270406666Y-77877200D02*
X270454285Y-77829580D01*
X270454285Y-77829580D02*
X270501904Y-77734342D01*
X270501904Y-77734342D02*
X270501904Y-77543866D01*
X270501904Y-77543866D02*
X270454285Y-77448628D01*
X270454285Y-77448628D02*
X270406666Y-77401009D01*
X270406666Y-77401009D02*
X270311428Y-77353390D01*
X220376761Y-92625057D02*
X220281523Y-92577438D01*
X220281523Y-92577438D02*
X220186285Y-92482200D01*
X220186285Y-92482200D02*
X220043428Y-92339342D01*
X220043428Y-92339342D02*
X219948190Y-92291723D01*
X219948190Y-92291723D02*
X219852952Y-92291723D01*
X219900571Y-92529819D02*
X219805333Y-92482200D01*
X219805333Y-92482200D02*
X219710095Y-92386961D01*
X219710095Y-92386961D02*
X219662476Y-92196485D01*
X219662476Y-92196485D02*
X219662476Y-91863152D01*
X219662476Y-91863152D02*
X219710095Y-91672676D01*
X219710095Y-91672676D02*
X219805333Y-91577438D01*
X219805333Y-91577438D02*
X219900571Y-91529819D01*
X219900571Y-91529819D02*
X220091047Y-91529819D01*
X220091047Y-91529819D02*
X220186285Y-91577438D01*
X220186285Y-91577438D02*
X220281523Y-91672676D01*
X220281523Y-91672676D02*
X220329142Y-91863152D01*
X220329142Y-91863152D02*
X220329142Y-92196485D01*
X220329142Y-92196485D02*
X220281523Y-92386961D01*
X220281523Y-92386961D02*
X220186285Y-92482200D01*
X220186285Y-92482200D02*
X220091047Y-92529819D01*
X220091047Y-92529819D02*
X219900571Y-92529819D01*
X220900571Y-91958390D02*
X220805333Y-91910771D01*
X220805333Y-91910771D02*
X220757714Y-91863152D01*
X220757714Y-91863152D02*
X220710095Y-91767914D01*
X220710095Y-91767914D02*
X220710095Y-91720295D01*
X220710095Y-91720295D02*
X220757714Y-91625057D01*
X220757714Y-91625057D02*
X220805333Y-91577438D01*
X220805333Y-91577438D02*
X220900571Y-91529819D01*
X220900571Y-91529819D02*
X221091047Y-91529819D01*
X221091047Y-91529819D02*
X221186285Y-91577438D01*
X221186285Y-91577438D02*
X221233904Y-91625057D01*
X221233904Y-91625057D02*
X221281523Y-91720295D01*
X221281523Y-91720295D02*
X221281523Y-91767914D01*
X221281523Y-91767914D02*
X221233904Y-91863152D01*
X221233904Y-91863152D02*
X221186285Y-91910771D01*
X221186285Y-91910771D02*
X221091047Y-91958390D01*
X221091047Y-91958390D02*
X220900571Y-91958390D01*
X220900571Y-91958390D02*
X220805333Y-92006009D01*
X220805333Y-92006009D02*
X220757714Y-92053628D01*
X220757714Y-92053628D02*
X220710095Y-92148866D01*
X220710095Y-92148866D02*
X220710095Y-92339342D01*
X220710095Y-92339342D02*
X220757714Y-92434580D01*
X220757714Y-92434580D02*
X220805333Y-92482200D01*
X220805333Y-92482200D02*
X220900571Y-92529819D01*
X220900571Y-92529819D02*
X221091047Y-92529819D01*
X221091047Y-92529819D02*
X221186285Y-92482200D01*
X221186285Y-92482200D02*
X221233904Y-92434580D01*
X221233904Y-92434580D02*
X221281523Y-92339342D01*
X221281523Y-92339342D02*
X221281523Y-92148866D01*
X221281523Y-92148866D02*
X221233904Y-92053628D01*
X221233904Y-92053628D02*
X221186285Y-92006009D01*
X221186285Y-92006009D02*
X221091047Y-91958390D01*
X212798819Y-62904666D02*
X212322628Y-63237999D01*
X212798819Y-63476094D02*
X211798819Y-63476094D01*
X211798819Y-63476094D02*
X211798819Y-63095142D01*
X211798819Y-63095142D02*
X211846438Y-62999904D01*
X211846438Y-62999904D02*
X211894057Y-62952285D01*
X211894057Y-62952285D02*
X211989295Y-62904666D01*
X211989295Y-62904666D02*
X212132152Y-62904666D01*
X212132152Y-62904666D02*
X212227390Y-62952285D01*
X212227390Y-62952285D02*
X212275009Y-62999904D01*
X212275009Y-62999904D02*
X212322628Y-63095142D01*
X212322628Y-63095142D02*
X212322628Y-63476094D01*
X211798819Y-62571332D02*
X211798819Y-61904666D01*
X211798819Y-61904666D02*
X212798819Y-62333237D01*
X229324819Y-76573333D02*
X230039104Y-76573333D01*
X230039104Y-76573333D02*
X230181961Y-76620952D01*
X230181961Y-76620952D02*
X230277200Y-76716190D01*
X230277200Y-76716190D02*
X230324819Y-76859047D01*
X230324819Y-76859047D02*
X230324819Y-76954285D01*
X230324819Y-75573333D02*
X230324819Y-76144761D01*
X230324819Y-75859047D02*
X229324819Y-75859047D01*
X229324819Y-75859047D02*
X229467676Y-75954285D01*
X229467676Y-75954285D02*
X229562914Y-76049523D01*
X229562914Y-76049523D02*
X229610533Y-76144761D01*
X201764819Y-74588666D02*
X201288628Y-74921999D01*
X201764819Y-75160094D02*
X200764819Y-75160094D01*
X200764819Y-75160094D02*
X200764819Y-74779142D01*
X200764819Y-74779142D02*
X200812438Y-74683904D01*
X200812438Y-74683904D02*
X200860057Y-74636285D01*
X200860057Y-74636285D02*
X200955295Y-74588666D01*
X200955295Y-74588666D02*
X201098152Y-74588666D01*
X201098152Y-74588666D02*
X201193390Y-74636285D01*
X201193390Y-74636285D02*
X201241009Y-74683904D01*
X201241009Y-74683904D02*
X201288628Y-74779142D01*
X201288628Y-74779142D02*
X201288628Y-75160094D01*
X200764819Y-73731523D02*
X200764819Y-73921999D01*
X200764819Y-73921999D02*
X200812438Y-74017237D01*
X200812438Y-74017237D02*
X200860057Y-74064856D01*
X200860057Y-74064856D02*
X201002914Y-74160094D01*
X201002914Y-74160094D02*
X201193390Y-74207713D01*
X201193390Y-74207713D02*
X201574342Y-74207713D01*
X201574342Y-74207713D02*
X201669580Y-74160094D01*
X201669580Y-74160094D02*
X201717200Y-74112475D01*
X201717200Y-74112475D02*
X201764819Y-74017237D01*
X201764819Y-74017237D02*
X201764819Y-73826761D01*
X201764819Y-73826761D02*
X201717200Y-73731523D01*
X201717200Y-73731523D02*
X201669580Y-73683904D01*
X201669580Y-73683904D02*
X201574342Y-73636285D01*
X201574342Y-73636285D02*
X201336247Y-73636285D01*
X201336247Y-73636285D02*
X201241009Y-73683904D01*
X201241009Y-73683904D02*
X201193390Y-73731523D01*
X201193390Y-73731523D02*
X201145771Y-73826761D01*
X201145771Y-73826761D02*
X201145771Y-74017237D01*
X201145771Y-74017237D02*
X201193390Y-74112475D01*
X201193390Y-74112475D02*
X201241009Y-74160094D01*
X201241009Y-74160094D02*
X201336247Y-74207713D01*
X253516299Y-73478963D02*
X253181309Y-73000407D01*
X252942031Y-73478963D02*
X252942031Y-72473994D01*
X252942031Y-72473994D02*
X253324876Y-72473994D01*
X253324876Y-72473994D02*
X253420588Y-72521850D01*
X253420588Y-72521850D02*
X253468443Y-72569706D01*
X253468443Y-72569706D02*
X253516299Y-72665417D01*
X253516299Y-72665417D02*
X253516299Y-72808984D01*
X253516299Y-72808984D02*
X253468443Y-72904695D01*
X253468443Y-72904695D02*
X253420588Y-72952551D01*
X253420588Y-72952551D02*
X253324876Y-73000407D01*
X253324876Y-73000407D02*
X252942031Y-73000407D01*
X253803433Y-72473994D02*
X254138423Y-73478963D01*
X254138423Y-73478963D02*
X254473412Y-72473994D01*
X255334814Y-73478963D02*
X254760546Y-73478963D01*
X255047680Y-73478963D02*
X255047680Y-72473994D01*
X255047680Y-72473994D02*
X254951969Y-72617561D01*
X254951969Y-72617561D02*
X254856258Y-72713273D01*
X254856258Y-72713273D02*
X254760546Y-72761128D01*
X276161057Y-56345238D02*
X276113438Y-56440476D01*
X276113438Y-56440476D02*
X276018200Y-56535714D01*
X276018200Y-56535714D02*
X275875342Y-56678571D01*
X275875342Y-56678571D02*
X275827723Y-56773809D01*
X275827723Y-56773809D02*
X275827723Y-56869047D01*
X276065819Y-56821428D02*
X276018200Y-56916666D01*
X276018200Y-56916666D02*
X275922961Y-57011904D01*
X275922961Y-57011904D02*
X275732485Y-57059523D01*
X275732485Y-57059523D02*
X275399152Y-57059523D01*
X275399152Y-57059523D02*
X275208676Y-57011904D01*
X275208676Y-57011904D02*
X275113438Y-56916666D01*
X275113438Y-56916666D02*
X275065819Y-56821428D01*
X275065819Y-56821428D02*
X275065819Y-56630952D01*
X275065819Y-56630952D02*
X275113438Y-56535714D01*
X275113438Y-56535714D02*
X275208676Y-56440476D01*
X275208676Y-56440476D02*
X275399152Y-56392857D01*
X275399152Y-56392857D02*
X275732485Y-56392857D01*
X275732485Y-56392857D02*
X275922961Y-56440476D01*
X275922961Y-56440476D02*
X276018200Y-56535714D01*
X276018200Y-56535714D02*
X276065819Y-56630952D01*
X276065819Y-56630952D02*
X276065819Y-56821428D01*
X276065819Y-55916666D02*
X276065819Y-55726190D01*
X276065819Y-55726190D02*
X276018200Y-55630952D01*
X276018200Y-55630952D02*
X275970580Y-55583333D01*
X275970580Y-55583333D02*
X275827723Y-55488095D01*
X275827723Y-55488095D02*
X275637247Y-55440476D01*
X275637247Y-55440476D02*
X275256295Y-55440476D01*
X275256295Y-55440476D02*
X275161057Y-55488095D01*
X275161057Y-55488095D02*
X275113438Y-55535714D01*
X275113438Y-55535714D02*
X275065819Y-55630952D01*
X275065819Y-55630952D02*
X275065819Y-55821428D01*
X275065819Y-55821428D02*
X275113438Y-55916666D01*
X275113438Y-55916666D02*
X275161057Y-55964285D01*
X275161057Y-55964285D02*
X275256295Y-56011904D01*
X275256295Y-56011904D02*
X275494390Y-56011904D01*
X275494390Y-56011904D02*
X275589628Y-55964285D01*
X275589628Y-55964285D02*
X275637247Y-55916666D01*
X275637247Y-55916666D02*
X275684866Y-55821428D01*
X275684866Y-55821428D02*
X275684866Y-55630952D01*
X275684866Y-55630952D02*
X275637247Y-55535714D01*
X275637247Y-55535714D02*
X275589628Y-55488095D01*
X275589628Y-55488095D02*
X275494390Y-55440476D01*
X254023905Y-42929819D02*
X254023905Y-41929819D01*
X254023905Y-41929819D02*
X254262000Y-41929819D01*
X254262000Y-41929819D02*
X254404857Y-41977438D01*
X254404857Y-41977438D02*
X254500095Y-42072676D01*
X254500095Y-42072676D02*
X254547714Y-42167914D01*
X254547714Y-42167914D02*
X254595333Y-42358390D01*
X254595333Y-42358390D02*
X254595333Y-42501247D01*
X254595333Y-42501247D02*
X254547714Y-42691723D01*
X254547714Y-42691723D02*
X254500095Y-42786961D01*
X254500095Y-42786961D02*
X254404857Y-42882200D01*
X254404857Y-42882200D02*
X254262000Y-42929819D01*
X254262000Y-42929819D02*
X254023905Y-42929819D01*
X255166762Y-42358390D02*
X255071524Y-42310771D01*
X255071524Y-42310771D02*
X255023905Y-42263152D01*
X255023905Y-42263152D02*
X254976286Y-42167914D01*
X254976286Y-42167914D02*
X254976286Y-42120295D01*
X254976286Y-42120295D02*
X255023905Y-42025057D01*
X255023905Y-42025057D02*
X255071524Y-41977438D01*
X255071524Y-41977438D02*
X255166762Y-41929819D01*
X255166762Y-41929819D02*
X255357238Y-41929819D01*
X255357238Y-41929819D02*
X255452476Y-41977438D01*
X255452476Y-41977438D02*
X255500095Y-42025057D01*
X255500095Y-42025057D02*
X255547714Y-42120295D01*
X255547714Y-42120295D02*
X255547714Y-42167914D01*
X255547714Y-42167914D02*
X255500095Y-42263152D01*
X255500095Y-42263152D02*
X255452476Y-42310771D01*
X255452476Y-42310771D02*
X255357238Y-42358390D01*
X255357238Y-42358390D02*
X255166762Y-42358390D01*
X255166762Y-42358390D02*
X255071524Y-42406009D01*
X255071524Y-42406009D02*
X255023905Y-42453628D01*
X255023905Y-42453628D02*
X254976286Y-42548866D01*
X254976286Y-42548866D02*
X254976286Y-42739342D01*
X254976286Y-42739342D02*
X255023905Y-42834580D01*
X255023905Y-42834580D02*
X255071524Y-42882200D01*
X255071524Y-42882200D02*
X255166762Y-42929819D01*
X255166762Y-42929819D02*
X255357238Y-42929819D01*
X255357238Y-42929819D02*
X255452476Y-42882200D01*
X255452476Y-42882200D02*
X255500095Y-42834580D01*
X255500095Y-42834580D02*
X255547714Y-42739342D01*
X255547714Y-42739342D02*
X255547714Y-42548866D01*
X255547714Y-42548866D02*
X255500095Y-42453628D01*
X255500095Y-42453628D02*
X255452476Y-42406009D01*
X255452476Y-42406009D02*
X255357238Y-42358390D01*
X263263095Y-42559819D02*
X263263095Y-41559819D01*
X263834523Y-42559819D02*
X263405952Y-41988390D01*
X263834523Y-41559819D02*
X263263095Y-42131247D01*
X229069819Y-38266666D02*
X228593628Y-38599999D01*
X229069819Y-38838094D02*
X228069819Y-38838094D01*
X228069819Y-38838094D02*
X228069819Y-38457142D01*
X228069819Y-38457142D02*
X228117438Y-38361904D01*
X228117438Y-38361904D02*
X228165057Y-38314285D01*
X228165057Y-38314285D02*
X228260295Y-38266666D01*
X228260295Y-38266666D02*
X228403152Y-38266666D01*
X228403152Y-38266666D02*
X228498390Y-38314285D01*
X228498390Y-38314285D02*
X228546009Y-38361904D01*
X228546009Y-38361904D02*
X228593628Y-38457142D01*
X228593628Y-38457142D02*
X228593628Y-38838094D01*
X228403152Y-37409523D02*
X229069819Y-37409523D01*
X228022200Y-37647618D02*
X228736485Y-37885713D01*
X228736485Y-37885713D02*
X228736485Y-37266666D01*
X272248333Y-65844819D02*
X271915000Y-65368628D01*
X271676905Y-65844819D02*
X271676905Y-64844819D01*
X271676905Y-64844819D02*
X272057857Y-64844819D01*
X272057857Y-64844819D02*
X272153095Y-64892438D01*
X272153095Y-64892438D02*
X272200714Y-64940057D01*
X272200714Y-64940057D02*
X272248333Y-65035295D01*
X272248333Y-65035295D02*
X272248333Y-65178152D01*
X272248333Y-65178152D02*
X272200714Y-65273390D01*
X272200714Y-65273390D02*
X272153095Y-65321009D01*
X272153095Y-65321009D02*
X272057857Y-65368628D01*
X272057857Y-65368628D02*
X271676905Y-65368628D01*
X272819762Y-65273390D02*
X272724524Y-65225771D01*
X272724524Y-65225771D02*
X272676905Y-65178152D01*
X272676905Y-65178152D02*
X272629286Y-65082914D01*
X272629286Y-65082914D02*
X272629286Y-65035295D01*
X272629286Y-65035295D02*
X272676905Y-64940057D01*
X272676905Y-64940057D02*
X272724524Y-64892438D01*
X272724524Y-64892438D02*
X272819762Y-64844819D01*
X272819762Y-64844819D02*
X273010238Y-64844819D01*
X273010238Y-64844819D02*
X273105476Y-64892438D01*
X273105476Y-64892438D02*
X273153095Y-64940057D01*
X273153095Y-64940057D02*
X273200714Y-65035295D01*
X273200714Y-65035295D02*
X273200714Y-65082914D01*
X273200714Y-65082914D02*
X273153095Y-65178152D01*
X273153095Y-65178152D02*
X273105476Y-65225771D01*
X273105476Y-65225771D02*
X273010238Y-65273390D01*
X273010238Y-65273390D02*
X272819762Y-65273390D01*
X272819762Y-65273390D02*
X272724524Y-65321009D01*
X272724524Y-65321009D02*
X272676905Y-65368628D01*
X272676905Y-65368628D02*
X272629286Y-65463866D01*
X272629286Y-65463866D02*
X272629286Y-65654342D01*
X272629286Y-65654342D02*
X272676905Y-65749580D01*
X272676905Y-65749580D02*
X272724524Y-65797200D01*
X272724524Y-65797200D02*
X272819762Y-65844819D01*
X272819762Y-65844819D02*
X273010238Y-65844819D01*
X273010238Y-65844819D02*
X273105476Y-65797200D01*
X273105476Y-65797200D02*
X273153095Y-65749580D01*
X273153095Y-65749580D02*
X273200714Y-65654342D01*
X273200714Y-65654342D02*
X273200714Y-65463866D01*
X273200714Y-65463866D02*
X273153095Y-65368628D01*
X273153095Y-65368628D02*
X273105476Y-65321009D01*
X273105476Y-65321009D02*
X273010238Y-65273390D01*
D10*
X268652666Y-37049419D02*
X268652666Y-37763704D01*
X268652666Y-37763704D02*
X268605047Y-37906561D01*
X268605047Y-37906561D02*
X268509809Y-38001800D01*
X268509809Y-38001800D02*
X268366952Y-38049419D01*
X268366952Y-38049419D02*
X268271714Y-38049419D01*
X269557428Y-37382752D02*
X269557428Y-38049419D01*
X269319333Y-37001800D02*
X269081238Y-37716085D01*
X269081238Y-37716085D02*
X269700285Y-37716085D01*
D11*
X254239819Y-49633094D02*
X253239819Y-49633094D01*
X253239819Y-49633094D02*
X253239819Y-49394999D01*
X253239819Y-49394999D02*
X253287438Y-49252142D01*
X253287438Y-49252142D02*
X253382676Y-49156904D01*
X253382676Y-49156904D02*
X253477914Y-49109285D01*
X253477914Y-49109285D02*
X253668390Y-49061666D01*
X253668390Y-49061666D02*
X253811247Y-49061666D01*
X253811247Y-49061666D02*
X254001723Y-49109285D01*
X254001723Y-49109285D02*
X254096961Y-49156904D01*
X254096961Y-49156904D02*
X254192200Y-49252142D01*
X254192200Y-49252142D02*
X254239819Y-49394999D01*
X254239819Y-49394999D02*
X254239819Y-49633094D01*
X253239819Y-48156904D02*
X253239819Y-48633094D01*
X253239819Y-48633094D02*
X253716009Y-48680713D01*
X253716009Y-48680713D02*
X253668390Y-48633094D01*
X253668390Y-48633094D02*
X253620771Y-48537856D01*
X253620771Y-48537856D02*
X253620771Y-48299761D01*
X253620771Y-48299761D02*
X253668390Y-48204523D01*
X253668390Y-48204523D02*
X253716009Y-48156904D01*
X253716009Y-48156904D02*
X253811247Y-48109285D01*
X253811247Y-48109285D02*
X254049342Y-48109285D01*
X254049342Y-48109285D02*
X254144580Y-48156904D01*
X254144580Y-48156904D02*
X254192200Y-48204523D01*
X254192200Y-48204523D02*
X254239819Y-48299761D01*
X254239819Y-48299761D02*
X254239819Y-48537856D01*
X254239819Y-48537856D02*
X254192200Y-48633094D01*
X254192200Y-48633094D02*
X254144580Y-48680713D01*
X254559819Y-52966904D02*
X253559819Y-52966904D01*
X254559819Y-52395476D02*
X253988390Y-52824047D01*
X253559819Y-52395476D02*
X254131247Y-52966904D01*
X220164819Y-48902857D02*
X219688628Y-49236190D01*
X220164819Y-49474285D02*
X219164819Y-49474285D01*
X219164819Y-49474285D02*
X219164819Y-49093333D01*
X219164819Y-49093333D02*
X219212438Y-48998095D01*
X219212438Y-48998095D02*
X219260057Y-48950476D01*
X219260057Y-48950476D02*
X219355295Y-48902857D01*
X219355295Y-48902857D02*
X219498152Y-48902857D01*
X219498152Y-48902857D02*
X219593390Y-48950476D01*
X219593390Y-48950476D02*
X219641009Y-48998095D01*
X219641009Y-48998095D02*
X219688628Y-49093333D01*
X219688628Y-49093333D02*
X219688628Y-49474285D01*
X220164819Y-47950476D02*
X220164819Y-48521904D01*
X220164819Y-48236190D02*
X219164819Y-48236190D01*
X219164819Y-48236190D02*
X219307676Y-48331428D01*
X219307676Y-48331428D02*
X219402914Y-48426666D01*
X219402914Y-48426666D02*
X219450533Y-48521904D01*
X220164819Y-47474285D02*
X220164819Y-47283809D01*
X220164819Y-47283809D02*
X220117200Y-47188571D01*
X220117200Y-47188571D02*
X220069580Y-47140952D01*
X220069580Y-47140952D02*
X219926723Y-47045714D01*
X219926723Y-47045714D02*
X219736247Y-46998095D01*
X219736247Y-46998095D02*
X219355295Y-46998095D01*
X219355295Y-46998095D02*
X219260057Y-47045714D01*
X219260057Y-47045714D02*
X219212438Y-47093333D01*
X219212438Y-47093333D02*
X219164819Y-47188571D01*
X219164819Y-47188571D02*
X219164819Y-47379047D01*
X219164819Y-47379047D02*
X219212438Y-47474285D01*
X219212438Y-47474285D02*
X219260057Y-47521904D01*
X219260057Y-47521904D02*
X219355295Y-47569523D01*
X219355295Y-47569523D02*
X219593390Y-47569523D01*
X219593390Y-47569523D02*
X219688628Y-47521904D01*
X219688628Y-47521904D02*
X219736247Y-47474285D01*
X219736247Y-47474285D02*
X219783866Y-47379047D01*
X219783866Y-47379047D02*
X219783866Y-47188571D01*
X219783866Y-47188571D02*
X219736247Y-47093333D01*
X219736247Y-47093333D02*
X219688628Y-47045714D01*
X219688628Y-47045714D02*
X219593390Y-46998095D01*
X202034819Y-61908333D02*
X202749104Y-61908333D01*
X202749104Y-61908333D02*
X202891961Y-61955952D01*
X202891961Y-61955952D02*
X202987200Y-62051190D01*
X202987200Y-62051190D02*
X203034819Y-62194047D01*
X203034819Y-62194047D02*
X203034819Y-62289285D01*
X202034819Y-61527380D02*
X202034819Y-60908333D01*
X202034819Y-60908333D02*
X202415771Y-61241666D01*
X202415771Y-61241666D02*
X202415771Y-61098809D01*
X202415771Y-61098809D02*
X202463390Y-61003571D01*
X202463390Y-61003571D02*
X202511009Y-60955952D01*
X202511009Y-60955952D02*
X202606247Y-60908333D01*
X202606247Y-60908333D02*
X202844342Y-60908333D01*
X202844342Y-60908333D02*
X202939580Y-60955952D01*
X202939580Y-60955952D02*
X202987200Y-61003571D01*
X202987200Y-61003571D02*
X203034819Y-61098809D01*
X203034819Y-61098809D02*
X203034819Y-61384523D01*
X203034819Y-61384523D02*
X202987200Y-61479761D01*
X202987200Y-61479761D02*
X202939580Y-61527380D01*
X206944580Y-99861666D02*
X206992200Y-99909285D01*
X206992200Y-99909285D02*
X207039819Y-100052142D01*
X207039819Y-100052142D02*
X207039819Y-100147380D01*
X207039819Y-100147380D02*
X206992200Y-100290237D01*
X206992200Y-100290237D02*
X206896961Y-100385475D01*
X206896961Y-100385475D02*
X206801723Y-100433094D01*
X206801723Y-100433094D02*
X206611247Y-100480713D01*
X206611247Y-100480713D02*
X206468390Y-100480713D01*
X206468390Y-100480713D02*
X206277914Y-100433094D01*
X206277914Y-100433094D02*
X206182676Y-100385475D01*
X206182676Y-100385475D02*
X206087438Y-100290237D01*
X206087438Y-100290237D02*
X206039819Y-100147380D01*
X206039819Y-100147380D02*
X206039819Y-100052142D01*
X206039819Y-100052142D02*
X206087438Y-99909285D01*
X206087438Y-99909285D02*
X206135057Y-99861666D01*
X206039819Y-99528332D02*
X206039819Y-98861666D01*
X206039819Y-98861666D02*
X207039819Y-99290237D01*
X216100571Y-83236057D02*
X216005333Y-83188438D01*
X216005333Y-83188438D02*
X215910095Y-83093200D01*
X215910095Y-83093200D02*
X215767238Y-82950342D01*
X215767238Y-82950342D02*
X215672000Y-82902723D01*
X215672000Y-82902723D02*
X215576762Y-82902723D01*
X215624381Y-83140819D02*
X215529143Y-83093200D01*
X215529143Y-83093200D02*
X215433905Y-82997961D01*
X215433905Y-82997961D02*
X215386286Y-82807485D01*
X215386286Y-82807485D02*
X215386286Y-82474152D01*
X215386286Y-82474152D02*
X215433905Y-82283676D01*
X215433905Y-82283676D02*
X215529143Y-82188438D01*
X215529143Y-82188438D02*
X215624381Y-82140819D01*
X215624381Y-82140819D02*
X215814857Y-82140819D01*
X215814857Y-82140819D02*
X215910095Y-82188438D01*
X215910095Y-82188438D02*
X216005333Y-82283676D01*
X216005333Y-82283676D02*
X216052952Y-82474152D01*
X216052952Y-82474152D02*
X216052952Y-82807485D01*
X216052952Y-82807485D02*
X216005333Y-82997961D01*
X216005333Y-82997961D02*
X215910095Y-83093200D01*
X215910095Y-83093200D02*
X215814857Y-83140819D01*
X215814857Y-83140819D02*
X215624381Y-83140819D01*
X217005333Y-83140819D02*
X216433905Y-83140819D01*
X216719619Y-83140819D02*
X216719619Y-82140819D01*
X216719619Y-82140819D02*
X216624381Y-82283676D01*
X216624381Y-82283676D02*
X216529143Y-82378914D01*
X216529143Y-82378914D02*
X216433905Y-82426533D01*
X217386286Y-82236057D02*
X217433905Y-82188438D01*
X217433905Y-82188438D02*
X217529143Y-82140819D01*
X217529143Y-82140819D02*
X217767238Y-82140819D01*
X217767238Y-82140819D02*
X217862476Y-82188438D01*
X217862476Y-82188438D02*
X217910095Y-82236057D01*
X217910095Y-82236057D02*
X217957714Y-82331295D01*
X217957714Y-82331295D02*
X217957714Y-82426533D01*
X217957714Y-82426533D02*
X217910095Y-82569390D01*
X217910095Y-82569390D02*
X217338667Y-83140819D01*
X217338667Y-83140819D02*
X217957714Y-83140819D01*
X215733333Y-69574580D02*
X215685714Y-69622200D01*
X215685714Y-69622200D02*
X215542857Y-69669819D01*
X215542857Y-69669819D02*
X215447619Y-69669819D01*
X215447619Y-69669819D02*
X215304762Y-69622200D01*
X215304762Y-69622200D02*
X215209524Y-69526961D01*
X215209524Y-69526961D02*
X215161905Y-69431723D01*
X215161905Y-69431723D02*
X215114286Y-69241247D01*
X215114286Y-69241247D02*
X215114286Y-69098390D01*
X215114286Y-69098390D02*
X215161905Y-68907914D01*
X215161905Y-68907914D02*
X215209524Y-68812676D01*
X215209524Y-68812676D02*
X215304762Y-68717438D01*
X215304762Y-68717438D02*
X215447619Y-68669819D01*
X215447619Y-68669819D02*
X215542857Y-68669819D01*
X215542857Y-68669819D02*
X215685714Y-68717438D01*
X215685714Y-68717438D02*
X215733333Y-68765057D01*
X216590476Y-69003152D02*
X216590476Y-69669819D01*
X216352381Y-68622200D02*
X216114286Y-69336485D01*
X216114286Y-69336485D02*
X216733333Y-69336485D01*
X262879819Y-79382857D02*
X262403628Y-79716190D01*
X262879819Y-79954285D02*
X261879819Y-79954285D01*
X261879819Y-79954285D02*
X261879819Y-79573333D01*
X261879819Y-79573333D02*
X261927438Y-79478095D01*
X261927438Y-79478095D02*
X261975057Y-79430476D01*
X261975057Y-79430476D02*
X262070295Y-79382857D01*
X262070295Y-79382857D02*
X262213152Y-79382857D01*
X262213152Y-79382857D02*
X262308390Y-79430476D01*
X262308390Y-79430476D02*
X262356009Y-79478095D01*
X262356009Y-79478095D02*
X262403628Y-79573333D01*
X262403628Y-79573333D02*
X262403628Y-79954285D01*
X262879819Y-78430476D02*
X262879819Y-79001904D01*
X262879819Y-78716190D02*
X261879819Y-78716190D01*
X261879819Y-78716190D02*
X262022676Y-78811428D01*
X262022676Y-78811428D02*
X262117914Y-78906666D01*
X262117914Y-78906666D02*
X262165533Y-79001904D01*
X261975057Y-78049523D02*
X261927438Y-78001904D01*
X261927438Y-78001904D02*
X261879819Y-77906666D01*
X261879819Y-77906666D02*
X261879819Y-77668571D01*
X261879819Y-77668571D02*
X261927438Y-77573333D01*
X261927438Y-77573333D02*
X261975057Y-77525714D01*
X261975057Y-77525714D02*
X262070295Y-77478095D01*
X262070295Y-77478095D02*
X262165533Y-77478095D01*
X262165533Y-77478095D02*
X262308390Y-77525714D01*
X262308390Y-77525714D02*
X262879819Y-78097142D01*
X262879819Y-78097142D02*
X262879819Y-77478095D01*
X208819761Y-41825057D02*
X208724523Y-41777438D01*
X208724523Y-41777438D02*
X208629285Y-41682200D01*
X208629285Y-41682200D02*
X208486428Y-41539342D01*
X208486428Y-41539342D02*
X208391190Y-41491723D01*
X208391190Y-41491723D02*
X208295952Y-41491723D01*
X208343571Y-41729819D02*
X208248333Y-41682200D01*
X208248333Y-41682200D02*
X208153095Y-41586961D01*
X208153095Y-41586961D02*
X208105476Y-41396485D01*
X208105476Y-41396485D02*
X208105476Y-41063152D01*
X208105476Y-41063152D02*
X208153095Y-40872676D01*
X208153095Y-40872676D02*
X208248333Y-40777438D01*
X208248333Y-40777438D02*
X208343571Y-40729819D01*
X208343571Y-40729819D02*
X208534047Y-40729819D01*
X208534047Y-40729819D02*
X208629285Y-40777438D01*
X208629285Y-40777438D02*
X208724523Y-40872676D01*
X208724523Y-40872676D02*
X208772142Y-41063152D01*
X208772142Y-41063152D02*
X208772142Y-41396485D01*
X208772142Y-41396485D02*
X208724523Y-41586961D01*
X208724523Y-41586961D02*
X208629285Y-41682200D01*
X208629285Y-41682200D02*
X208534047Y-41729819D01*
X208534047Y-41729819D02*
X208343571Y-41729819D01*
X209153095Y-40825057D02*
X209200714Y-40777438D01*
X209200714Y-40777438D02*
X209295952Y-40729819D01*
X209295952Y-40729819D02*
X209534047Y-40729819D01*
X209534047Y-40729819D02*
X209629285Y-40777438D01*
X209629285Y-40777438D02*
X209676904Y-40825057D01*
X209676904Y-40825057D02*
X209724523Y-40920295D01*
X209724523Y-40920295D02*
X209724523Y-41015533D01*
X209724523Y-41015533D02*
X209676904Y-41158390D01*
X209676904Y-41158390D02*
X209105476Y-41729819D01*
X209105476Y-41729819D02*
X209724523Y-41729819D01*
X224594819Y-48902857D02*
X224118628Y-49236190D01*
X224594819Y-49474285D02*
X223594819Y-49474285D01*
X223594819Y-49474285D02*
X223594819Y-49093333D01*
X223594819Y-49093333D02*
X223642438Y-48998095D01*
X223642438Y-48998095D02*
X223690057Y-48950476D01*
X223690057Y-48950476D02*
X223785295Y-48902857D01*
X223785295Y-48902857D02*
X223928152Y-48902857D01*
X223928152Y-48902857D02*
X224023390Y-48950476D01*
X224023390Y-48950476D02*
X224071009Y-48998095D01*
X224071009Y-48998095D02*
X224118628Y-49093333D01*
X224118628Y-49093333D02*
X224118628Y-49474285D01*
X224594819Y-47950476D02*
X224594819Y-48521904D01*
X224594819Y-48236190D02*
X223594819Y-48236190D01*
X223594819Y-48236190D02*
X223737676Y-48331428D01*
X223737676Y-48331428D02*
X223832914Y-48426666D01*
X223832914Y-48426666D02*
X223880533Y-48521904D01*
X223594819Y-47331428D02*
X223594819Y-47236190D01*
X223594819Y-47236190D02*
X223642438Y-47140952D01*
X223642438Y-47140952D02*
X223690057Y-47093333D01*
X223690057Y-47093333D02*
X223785295Y-47045714D01*
X223785295Y-47045714D02*
X223975771Y-46998095D01*
X223975771Y-46998095D02*
X224213866Y-46998095D01*
X224213866Y-46998095D02*
X224404342Y-47045714D01*
X224404342Y-47045714D02*
X224499580Y-47093333D01*
X224499580Y-47093333D02*
X224547200Y-47140952D01*
X224547200Y-47140952D02*
X224594819Y-47236190D01*
X224594819Y-47236190D02*
X224594819Y-47331428D01*
X224594819Y-47331428D02*
X224547200Y-47426666D01*
X224547200Y-47426666D02*
X224499580Y-47474285D01*
X224499580Y-47474285D02*
X224404342Y-47521904D01*
X224404342Y-47521904D02*
X224213866Y-47569523D01*
X224213866Y-47569523D02*
X223975771Y-47569523D01*
X223975771Y-47569523D02*
X223785295Y-47521904D01*
X223785295Y-47521904D02*
X223690057Y-47474285D01*
X223690057Y-47474285D02*
X223642438Y-47426666D01*
X223642438Y-47426666D02*
X223594819Y-47331428D01*
X253946819Y-95226094D02*
X252946819Y-95226094D01*
X252946819Y-95226094D02*
X252946819Y-94987999D01*
X252946819Y-94987999D02*
X252994438Y-94845142D01*
X252994438Y-94845142D02*
X253089676Y-94749904D01*
X253089676Y-94749904D02*
X253184914Y-94702285D01*
X253184914Y-94702285D02*
X253375390Y-94654666D01*
X253375390Y-94654666D02*
X253518247Y-94654666D01*
X253518247Y-94654666D02*
X253708723Y-94702285D01*
X253708723Y-94702285D02*
X253803961Y-94749904D01*
X253803961Y-94749904D02*
X253899200Y-94845142D01*
X253899200Y-94845142D02*
X253946819Y-94987999D01*
X253946819Y-94987999D02*
X253946819Y-95226094D01*
X253280152Y-93797523D02*
X253946819Y-93797523D01*
X252899200Y-94035618D02*
X253613485Y-94273713D01*
X253613485Y-94273713D02*
X253613485Y-93654666D01*
X257778819Y-90685904D02*
X256778819Y-90685904D01*
X257778819Y-90114476D02*
X257207390Y-90543047D01*
X256778819Y-90114476D02*
X257350247Y-90685904D01*
X230420057Y-62325238D02*
X230372438Y-62420476D01*
X230372438Y-62420476D02*
X230277200Y-62515714D01*
X230277200Y-62515714D02*
X230134342Y-62658571D01*
X230134342Y-62658571D02*
X230086723Y-62753809D01*
X230086723Y-62753809D02*
X230086723Y-62849047D01*
X230324819Y-62801428D02*
X230277200Y-62896666D01*
X230277200Y-62896666D02*
X230181961Y-62991904D01*
X230181961Y-62991904D02*
X229991485Y-63039523D01*
X229991485Y-63039523D02*
X229658152Y-63039523D01*
X229658152Y-63039523D02*
X229467676Y-62991904D01*
X229467676Y-62991904D02*
X229372438Y-62896666D01*
X229372438Y-62896666D02*
X229324819Y-62801428D01*
X229324819Y-62801428D02*
X229324819Y-62610952D01*
X229324819Y-62610952D02*
X229372438Y-62515714D01*
X229372438Y-62515714D02*
X229467676Y-62420476D01*
X229467676Y-62420476D02*
X229658152Y-62372857D01*
X229658152Y-62372857D02*
X229991485Y-62372857D01*
X229991485Y-62372857D02*
X230181961Y-62420476D01*
X230181961Y-62420476D02*
X230277200Y-62515714D01*
X230277200Y-62515714D02*
X230324819Y-62610952D01*
X230324819Y-62610952D02*
X230324819Y-62801428D01*
X229324819Y-61515714D02*
X229324819Y-61706190D01*
X229324819Y-61706190D02*
X229372438Y-61801428D01*
X229372438Y-61801428D02*
X229420057Y-61849047D01*
X229420057Y-61849047D02*
X229562914Y-61944285D01*
X229562914Y-61944285D02*
X229753390Y-61991904D01*
X229753390Y-61991904D02*
X230134342Y-61991904D01*
X230134342Y-61991904D02*
X230229580Y-61944285D01*
X230229580Y-61944285D02*
X230277200Y-61896666D01*
X230277200Y-61896666D02*
X230324819Y-61801428D01*
X230324819Y-61801428D02*
X230324819Y-61610952D01*
X230324819Y-61610952D02*
X230277200Y-61515714D01*
X230277200Y-61515714D02*
X230229580Y-61468095D01*
X230229580Y-61468095D02*
X230134342Y-61420476D01*
X230134342Y-61420476D02*
X229896247Y-61420476D01*
X229896247Y-61420476D02*
X229801009Y-61468095D01*
X229801009Y-61468095D02*
X229753390Y-61515714D01*
X229753390Y-61515714D02*
X229705771Y-61610952D01*
X229705771Y-61610952D02*
X229705771Y-61801428D01*
X229705771Y-61801428D02*
X229753390Y-61896666D01*
X229753390Y-61896666D02*
X229801009Y-61944285D01*
X229801009Y-61944285D02*
X229896247Y-61991904D01*
X244734819Y-76588857D02*
X244258628Y-76922190D01*
X244734819Y-77160285D02*
X243734819Y-77160285D01*
X243734819Y-77160285D02*
X243734819Y-76779333D01*
X243734819Y-76779333D02*
X243782438Y-76684095D01*
X243782438Y-76684095D02*
X243830057Y-76636476D01*
X243830057Y-76636476D02*
X243925295Y-76588857D01*
X243925295Y-76588857D02*
X244068152Y-76588857D01*
X244068152Y-76588857D02*
X244163390Y-76636476D01*
X244163390Y-76636476D02*
X244211009Y-76684095D01*
X244211009Y-76684095D02*
X244258628Y-76779333D01*
X244258628Y-76779333D02*
X244258628Y-77160285D01*
X243830057Y-76207904D02*
X243782438Y-76160285D01*
X243782438Y-76160285D02*
X243734819Y-76065047D01*
X243734819Y-76065047D02*
X243734819Y-75826952D01*
X243734819Y-75826952D02*
X243782438Y-75731714D01*
X243782438Y-75731714D02*
X243830057Y-75684095D01*
X243830057Y-75684095D02*
X243925295Y-75636476D01*
X243925295Y-75636476D02*
X244020533Y-75636476D01*
X244020533Y-75636476D02*
X244163390Y-75684095D01*
X244163390Y-75684095D02*
X244734819Y-76255523D01*
X244734819Y-76255523D02*
X244734819Y-75636476D01*
X244734819Y-74684095D02*
X244734819Y-75255523D01*
X244734819Y-74969809D02*
X243734819Y-74969809D01*
X243734819Y-74969809D02*
X243877676Y-75065047D01*
X243877676Y-75065047D02*
X243972914Y-75160285D01*
X243972914Y-75160285D02*
X244020533Y-75255523D01*
X214534761Y-31792057D02*
X214439523Y-31744438D01*
X214439523Y-31744438D02*
X214344285Y-31649200D01*
X214344285Y-31649200D02*
X214201428Y-31506342D01*
X214201428Y-31506342D02*
X214106190Y-31458723D01*
X214106190Y-31458723D02*
X214010952Y-31458723D01*
X214058571Y-31696819D02*
X213963333Y-31649200D01*
X213963333Y-31649200D02*
X213868095Y-31553961D01*
X213868095Y-31553961D02*
X213820476Y-31363485D01*
X213820476Y-31363485D02*
X213820476Y-31030152D01*
X213820476Y-31030152D02*
X213868095Y-30839676D01*
X213868095Y-30839676D02*
X213963333Y-30744438D01*
X213963333Y-30744438D02*
X214058571Y-30696819D01*
X214058571Y-30696819D02*
X214249047Y-30696819D01*
X214249047Y-30696819D02*
X214344285Y-30744438D01*
X214344285Y-30744438D02*
X214439523Y-30839676D01*
X214439523Y-30839676D02*
X214487142Y-31030152D01*
X214487142Y-31030152D02*
X214487142Y-31363485D01*
X214487142Y-31363485D02*
X214439523Y-31553961D01*
X214439523Y-31553961D02*
X214344285Y-31649200D01*
X214344285Y-31649200D02*
X214249047Y-31696819D01*
X214249047Y-31696819D02*
X214058571Y-31696819D01*
X214820476Y-30696819D02*
X215439523Y-30696819D01*
X215439523Y-30696819D02*
X215106190Y-31077771D01*
X215106190Y-31077771D02*
X215249047Y-31077771D01*
X215249047Y-31077771D02*
X215344285Y-31125390D01*
X215344285Y-31125390D02*
X215391904Y-31173009D01*
X215391904Y-31173009D02*
X215439523Y-31268247D01*
X215439523Y-31268247D02*
X215439523Y-31506342D01*
X215439523Y-31506342D02*
X215391904Y-31601580D01*
X215391904Y-31601580D02*
X215344285Y-31649200D01*
X215344285Y-31649200D02*
X215249047Y-31696819D01*
X215249047Y-31696819D02*
X214963333Y-31696819D01*
X214963333Y-31696819D02*
X214868095Y-31649200D01*
X214868095Y-31649200D02*
X214820476Y-31601580D01*
X230497142Y-108309580D02*
X230449523Y-108357200D01*
X230449523Y-108357200D02*
X230306666Y-108404819D01*
X230306666Y-108404819D02*
X230211428Y-108404819D01*
X230211428Y-108404819D02*
X230068571Y-108357200D01*
X230068571Y-108357200D02*
X229973333Y-108261961D01*
X229973333Y-108261961D02*
X229925714Y-108166723D01*
X229925714Y-108166723D02*
X229878095Y-107976247D01*
X229878095Y-107976247D02*
X229878095Y-107833390D01*
X229878095Y-107833390D02*
X229925714Y-107642914D01*
X229925714Y-107642914D02*
X229973333Y-107547676D01*
X229973333Y-107547676D02*
X230068571Y-107452438D01*
X230068571Y-107452438D02*
X230211428Y-107404819D01*
X230211428Y-107404819D02*
X230306666Y-107404819D01*
X230306666Y-107404819D02*
X230449523Y-107452438D01*
X230449523Y-107452438D02*
X230497142Y-107500057D01*
X231449523Y-108404819D02*
X230878095Y-108404819D01*
X231163809Y-108404819D02*
X231163809Y-107404819D01*
X231163809Y-107404819D02*
X231068571Y-107547676D01*
X231068571Y-107547676D02*
X230973333Y-107642914D01*
X230973333Y-107642914D02*
X230878095Y-107690533D01*
X232354285Y-107404819D02*
X231878095Y-107404819D01*
X231878095Y-107404819D02*
X231830476Y-107881009D01*
X231830476Y-107881009D02*
X231878095Y-107833390D01*
X231878095Y-107833390D02*
X231973333Y-107785771D01*
X231973333Y-107785771D02*
X232211428Y-107785771D01*
X232211428Y-107785771D02*
X232306666Y-107833390D01*
X232306666Y-107833390D02*
X232354285Y-107881009D01*
X232354285Y-107881009D02*
X232401904Y-107976247D01*
X232401904Y-107976247D02*
X232401904Y-108214342D01*
X232401904Y-108214342D02*
X232354285Y-108309580D01*
X232354285Y-108309580D02*
X232306666Y-108357200D01*
X232306666Y-108357200D02*
X232211428Y-108404819D01*
X232211428Y-108404819D02*
X231973333Y-108404819D01*
X231973333Y-108404819D02*
X231878095Y-108357200D01*
X231878095Y-108357200D02*
X231830476Y-108309580D01*
X266088905Y-101108819D02*
X266088905Y-100108819D01*
X266088905Y-100108819D02*
X266327000Y-100108819D01*
X266327000Y-100108819D02*
X266469857Y-100156438D01*
X266469857Y-100156438D02*
X266565095Y-100251676D01*
X266565095Y-100251676D02*
X266612714Y-100346914D01*
X266612714Y-100346914D02*
X266660333Y-100537390D01*
X266660333Y-100537390D02*
X266660333Y-100680247D01*
X266660333Y-100680247D02*
X266612714Y-100870723D01*
X266612714Y-100870723D02*
X266565095Y-100965961D01*
X266565095Y-100965961D02*
X266469857Y-101061200D01*
X266469857Y-101061200D02*
X266327000Y-101108819D01*
X266327000Y-101108819D02*
X266088905Y-101108819D01*
X267136524Y-101108819D02*
X267327000Y-101108819D01*
X267327000Y-101108819D02*
X267422238Y-101061200D01*
X267422238Y-101061200D02*
X267469857Y-101013580D01*
X267469857Y-101013580D02*
X267565095Y-100870723D01*
X267565095Y-100870723D02*
X267612714Y-100680247D01*
X267612714Y-100680247D02*
X267612714Y-100299295D01*
X267612714Y-100299295D02*
X267565095Y-100204057D01*
X267565095Y-100204057D02*
X267517476Y-100156438D01*
X267517476Y-100156438D02*
X267422238Y-100108819D01*
X267422238Y-100108819D02*
X267231762Y-100108819D01*
X267231762Y-100108819D02*
X267136524Y-100156438D01*
X267136524Y-100156438D02*
X267088905Y-100204057D01*
X267088905Y-100204057D02*
X267041286Y-100299295D01*
X267041286Y-100299295D02*
X267041286Y-100537390D01*
X267041286Y-100537390D02*
X267088905Y-100632628D01*
X267088905Y-100632628D02*
X267136524Y-100680247D01*
X267136524Y-100680247D02*
X267231762Y-100727866D01*
X267231762Y-100727866D02*
X267422238Y-100727866D01*
X267422238Y-100727866D02*
X267517476Y-100680247D01*
X267517476Y-100680247D02*
X267565095Y-100632628D01*
X267565095Y-100632628D02*
X267612714Y-100537390D01*
X257802095Y-101478819D02*
X257802095Y-100478819D01*
X258373523Y-101478819D02*
X257944952Y-100907390D01*
X258373523Y-100478819D02*
X257802095Y-101050247D01*
X249069580Y-62396666D02*
X249117200Y-62444285D01*
X249117200Y-62444285D02*
X249164819Y-62587142D01*
X249164819Y-62587142D02*
X249164819Y-62682380D01*
X249164819Y-62682380D02*
X249117200Y-62825237D01*
X249117200Y-62825237D02*
X249021961Y-62920475D01*
X249021961Y-62920475D02*
X248926723Y-62968094D01*
X248926723Y-62968094D02*
X248736247Y-63015713D01*
X248736247Y-63015713D02*
X248593390Y-63015713D01*
X248593390Y-63015713D02*
X248402914Y-62968094D01*
X248402914Y-62968094D02*
X248307676Y-62920475D01*
X248307676Y-62920475D02*
X248212438Y-62825237D01*
X248212438Y-62825237D02*
X248164819Y-62682380D01*
X248164819Y-62682380D02*
X248164819Y-62587142D01*
X248164819Y-62587142D02*
X248212438Y-62444285D01*
X248212438Y-62444285D02*
X248260057Y-62396666D01*
X248164819Y-62063332D02*
X248164819Y-61444285D01*
X248164819Y-61444285D02*
X248545771Y-61777618D01*
X248545771Y-61777618D02*
X248545771Y-61634761D01*
X248545771Y-61634761D02*
X248593390Y-61539523D01*
X248593390Y-61539523D02*
X248641009Y-61491904D01*
X248641009Y-61491904D02*
X248736247Y-61444285D01*
X248736247Y-61444285D02*
X248974342Y-61444285D01*
X248974342Y-61444285D02*
X249069580Y-61491904D01*
X249069580Y-61491904D02*
X249117200Y-61539523D01*
X249117200Y-61539523D02*
X249164819Y-61634761D01*
X249164819Y-61634761D02*
X249164819Y-61920475D01*
X249164819Y-61920475D02*
X249117200Y-62015713D01*
X249117200Y-62015713D02*
X249069580Y-62063332D01*
X245469580Y-88907857D02*
X245517200Y-88955476D01*
X245517200Y-88955476D02*
X245564819Y-89098333D01*
X245564819Y-89098333D02*
X245564819Y-89193571D01*
X245564819Y-89193571D02*
X245517200Y-89336428D01*
X245517200Y-89336428D02*
X245421961Y-89431666D01*
X245421961Y-89431666D02*
X245326723Y-89479285D01*
X245326723Y-89479285D02*
X245136247Y-89526904D01*
X245136247Y-89526904D02*
X244993390Y-89526904D01*
X244993390Y-89526904D02*
X244802914Y-89479285D01*
X244802914Y-89479285D02*
X244707676Y-89431666D01*
X244707676Y-89431666D02*
X244612438Y-89336428D01*
X244612438Y-89336428D02*
X244564819Y-89193571D01*
X244564819Y-89193571D02*
X244564819Y-89098333D01*
X244564819Y-89098333D02*
X244612438Y-88955476D01*
X244612438Y-88955476D02*
X244660057Y-88907857D01*
X245564819Y-87955476D02*
X245564819Y-88526904D01*
X245564819Y-88241190D02*
X244564819Y-88241190D01*
X244564819Y-88241190D02*
X244707676Y-88336428D01*
X244707676Y-88336428D02*
X244802914Y-88431666D01*
X244802914Y-88431666D02*
X244850533Y-88526904D01*
X244564819Y-87622142D02*
X244564819Y-87003095D01*
X244564819Y-87003095D02*
X244945771Y-87336428D01*
X244945771Y-87336428D02*
X244945771Y-87193571D01*
X244945771Y-87193571D02*
X244993390Y-87098333D01*
X244993390Y-87098333D02*
X245041009Y-87050714D01*
X245041009Y-87050714D02*
X245136247Y-87003095D01*
X245136247Y-87003095D02*
X245374342Y-87003095D01*
X245374342Y-87003095D02*
X245469580Y-87050714D01*
X245469580Y-87050714D02*
X245517200Y-87098333D01*
X245517200Y-87098333D02*
X245564819Y-87193571D01*
X245564819Y-87193571D02*
X245564819Y-87479285D01*
X245564819Y-87479285D02*
X245517200Y-87574523D01*
X245517200Y-87574523D02*
X245469580Y-87622142D01*
X195667333Y-40586819D02*
X195334000Y-40110628D01*
X195095905Y-40586819D02*
X195095905Y-39586819D01*
X195095905Y-39586819D02*
X195476857Y-39586819D01*
X195476857Y-39586819D02*
X195572095Y-39634438D01*
X195572095Y-39634438D02*
X195619714Y-39682057D01*
X195619714Y-39682057D02*
X195667333Y-39777295D01*
X195667333Y-39777295D02*
X195667333Y-39920152D01*
X195667333Y-39920152D02*
X195619714Y-40015390D01*
X195619714Y-40015390D02*
X195572095Y-40063009D01*
X195572095Y-40063009D02*
X195476857Y-40110628D01*
X195476857Y-40110628D02*
X195095905Y-40110628D01*
X196048286Y-39682057D02*
X196095905Y-39634438D01*
X196095905Y-39634438D02*
X196191143Y-39586819D01*
X196191143Y-39586819D02*
X196429238Y-39586819D01*
X196429238Y-39586819D02*
X196524476Y-39634438D01*
X196524476Y-39634438D02*
X196572095Y-39682057D01*
X196572095Y-39682057D02*
X196619714Y-39777295D01*
X196619714Y-39777295D02*
X196619714Y-39872533D01*
X196619714Y-39872533D02*
X196572095Y-40015390D01*
X196572095Y-40015390D02*
X196000667Y-40586819D01*
X196000667Y-40586819D02*
X196619714Y-40586819D01*
X225258333Y-63014580D02*
X225210714Y-63062200D01*
X225210714Y-63062200D02*
X225067857Y-63109819D01*
X225067857Y-63109819D02*
X224972619Y-63109819D01*
X224972619Y-63109819D02*
X224829762Y-63062200D01*
X224829762Y-63062200D02*
X224734524Y-62966961D01*
X224734524Y-62966961D02*
X224686905Y-62871723D01*
X224686905Y-62871723D02*
X224639286Y-62681247D01*
X224639286Y-62681247D02*
X224639286Y-62538390D01*
X224639286Y-62538390D02*
X224686905Y-62347914D01*
X224686905Y-62347914D02*
X224734524Y-62252676D01*
X224734524Y-62252676D02*
X224829762Y-62157438D01*
X224829762Y-62157438D02*
X224972619Y-62109819D01*
X224972619Y-62109819D02*
X225067857Y-62109819D01*
X225067857Y-62109819D02*
X225210714Y-62157438D01*
X225210714Y-62157438D02*
X225258333Y-62205057D01*
X226163095Y-62109819D02*
X225686905Y-62109819D01*
X225686905Y-62109819D02*
X225639286Y-62586009D01*
X225639286Y-62586009D02*
X225686905Y-62538390D01*
X225686905Y-62538390D02*
X225782143Y-62490771D01*
X225782143Y-62490771D02*
X226020238Y-62490771D01*
X226020238Y-62490771D02*
X226115476Y-62538390D01*
X226115476Y-62538390D02*
X226163095Y-62586009D01*
X226163095Y-62586009D02*
X226210714Y-62681247D01*
X226210714Y-62681247D02*
X226210714Y-62919342D01*
X226210714Y-62919342D02*
X226163095Y-63014580D01*
X226163095Y-63014580D02*
X226115476Y-63062200D01*
X226115476Y-63062200D02*
X226020238Y-63109819D01*
X226020238Y-63109819D02*
X225782143Y-63109819D01*
X225782143Y-63109819D02*
X225686905Y-63062200D01*
X225686905Y-63062200D02*
X225639286Y-63014580D01*
X276415057Y-90741428D02*
X276367438Y-90836666D01*
X276367438Y-90836666D02*
X276272200Y-90931904D01*
X276272200Y-90931904D02*
X276129342Y-91074761D01*
X276129342Y-91074761D02*
X276081723Y-91169999D01*
X276081723Y-91169999D02*
X276081723Y-91265237D01*
X276319819Y-91217618D02*
X276272200Y-91312856D01*
X276272200Y-91312856D02*
X276176961Y-91408094D01*
X276176961Y-91408094D02*
X275986485Y-91455713D01*
X275986485Y-91455713D02*
X275653152Y-91455713D01*
X275653152Y-91455713D02*
X275462676Y-91408094D01*
X275462676Y-91408094D02*
X275367438Y-91312856D01*
X275367438Y-91312856D02*
X275319819Y-91217618D01*
X275319819Y-91217618D02*
X275319819Y-91027142D01*
X275319819Y-91027142D02*
X275367438Y-90931904D01*
X275367438Y-90931904D02*
X275462676Y-90836666D01*
X275462676Y-90836666D02*
X275653152Y-90789047D01*
X275653152Y-90789047D02*
X275986485Y-90789047D01*
X275986485Y-90789047D02*
X276176961Y-90836666D01*
X276176961Y-90836666D02*
X276272200Y-90931904D01*
X276272200Y-90931904D02*
X276319819Y-91027142D01*
X276319819Y-91027142D02*
X276319819Y-91217618D01*
X276319819Y-89836666D02*
X276319819Y-90408094D01*
X276319819Y-90122380D02*
X275319819Y-90122380D01*
X275319819Y-90122380D02*
X275462676Y-90217618D01*
X275462676Y-90217618D02*
X275557914Y-90312856D01*
X275557914Y-90312856D02*
X275605533Y-90408094D01*
X275319819Y-89217618D02*
X275319819Y-89122380D01*
X275319819Y-89122380D02*
X275367438Y-89027142D01*
X275367438Y-89027142D02*
X275415057Y-88979523D01*
X275415057Y-88979523D02*
X275510295Y-88931904D01*
X275510295Y-88931904D02*
X275700771Y-88884285D01*
X275700771Y-88884285D02*
X275938866Y-88884285D01*
X275938866Y-88884285D02*
X276129342Y-88931904D01*
X276129342Y-88931904D02*
X276224580Y-88979523D01*
X276224580Y-88979523D02*
X276272200Y-89027142D01*
X276272200Y-89027142D02*
X276319819Y-89122380D01*
X276319819Y-89122380D02*
X276319819Y-89217618D01*
X276319819Y-89217618D02*
X276272200Y-89312856D01*
X276272200Y-89312856D02*
X276224580Y-89360475D01*
X276224580Y-89360475D02*
X276129342Y-89408094D01*
X276129342Y-89408094D02*
X275938866Y-89455713D01*
X275938866Y-89455713D02*
X275700771Y-89455713D01*
X275700771Y-89455713D02*
X275510295Y-89408094D01*
X275510295Y-89408094D02*
X275415057Y-89360475D01*
X275415057Y-89360475D02*
X275367438Y-89312856D01*
X275367438Y-89312856D02*
X275319819Y-89217618D01*
X205813571Y-69385057D02*
X205718333Y-69337438D01*
X205718333Y-69337438D02*
X205623095Y-69242200D01*
X205623095Y-69242200D02*
X205480238Y-69099342D01*
X205480238Y-69099342D02*
X205385000Y-69051723D01*
X205385000Y-69051723D02*
X205289762Y-69051723D01*
X205337381Y-69289819D02*
X205242143Y-69242200D01*
X205242143Y-69242200D02*
X205146905Y-69146961D01*
X205146905Y-69146961D02*
X205099286Y-68956485D01*
X205099286Y-68956485D02*
X205099286Y-68623152D01*
X205099286Y-68623152D02*
X205146905Y-68432676D01*
X205146905Y-68432676D02*
X205242143Y-68337438D01*
X205242143Y-68337438D02*
X205337381Y-68289819D01*
X205337381Y-68289819D02*
X205527857Y-68289819D01*
X205527857Y-68289819D02*
X205623095Y-68337438D01*
X205623095Y-68337438D02*
X205718333Y-68432676D01*
X205718333Y-68432676D02*
X205765952Y-68623152D01*
X205765952Y-68623152D02*
X205765952Y-68956485D01*
X205765952Y-68956485D02*
X205718333Y-69146961D01*
X205718333Y-69146961D02*
X205623095Y-69242200D01*
X205623095Y-69242200D02*
X205527857Y-69289819D01*
X205527857Y-69289819D02*
X205337381Y-69289819D01*
X206718333Y-69289819D02*
X206146905Y-69289819D01*
X206432619Y-69289819D02*
X206432619Y-68289819D01*
X206432619Y-68289819D02*
X206337381Y-68432676D01*
X206337381Y-68432676D02*
X206242143Y-68527914D01*
X206242143Y-68527914D02*
X206146905Y-68575533D01*
X207670714Y-69289819D02*
X207099286Y-69289819D01*
X207385000Y-69289819D02*
X207385000Y-68289819D01*
X207385000Y-68289819D02*
X207289762Y-68432676D01*
X207289762Y-68432676D02*
X207194524Y-68527914D01*
X207194524Y-68527914D02*
X207099286Y-68575533D01*
X244294819Y-62872857D02*
X243818628Y-63206190D01*
X244294819Y-63444285D02*
X243294819Y-63444285D01*
X243294819Y-63444285D02*
X243294819Y-63063333D01*
X243294819Y-63063333D02*
X243342438Y-62968095D01*
X243342438Y-62968095D02*
X243390057Y-62920476D01*
X243390057Y-62920476D02*
X243485295Y-62872857D01*
X243485295Y-62872857D02*
X243628152Y-62872857D01*
X243628152Y-62872857D02*
X243723390Y-62920476D01*
X243723390Y-62920476D02*
X243771009Y-62968095D01*
X243771009Y-62968095D02*
X243818628Y-63063333D01*
X243818628Y-63063333D02*
X243818628Y-63444285D01*
X243390057Y-62491904D02*
X243342438Y-62444285D01*
X243342438Y-62444285D02*
X243294819Y-62349047D01*
X243294819Y-62349047D02*
X243294819Y-62110952D01*
X243294819Y-62110952D02*
X243342438Y-62015714D01*
X243342438Y-62015714D02*
X243390057Y-61968095D01*
X243390057Y-61968095D02*
X243485295Y-61920476D01*
X243485295Y-61920476D02*
X243580533Y-61920476D01*
X243580533Y-61920476D02*
X243723390Y-61968095D01*
X243723390Y-61968095D02*
X244294819Y-62539523D01*
X244294819Y-62539523D02*
X244294819Y-61920476D01*
X243294819Y-61301428D02*
X243294819Y-61206190D01*
X243294819Y-61206190D02*
X243342438Y-61110952D01*
X243342438Y-61110952D02*
X243390057Y-61063333D01*
X243390057Y-61063333D02*
X243485295Y-61015714D01*
X243485295Y-61015714D02*
X243675771Y-60968095D01*
X243675771Y-60968095D02*
X243913866Y-60968095D01*
X243913866Y-60968095D02*
X244104342Y-61015714D01*
X244104342Y-61015714D02*
X244199580Y-61063333D01*
X244199580Y-61063333D02*
X244247200Y-61110952D01*
X244247200Y-61110952D02*
X244294819Y-61206190D01*
X244294819Y-61206190D02*
X244294819Y-61301428D01*
X244294819Y-61301428D02*
X244247200Y-61396666D01*
X244247200Y-61396666D02*
X244199580Y-61444285D01*
X244199580Y-61444285D02*
X244104342Y-61491904D01*
X244104342Y-61491904D02*
X243913866Y-61539523D01*
X243913866Y-61539523D02*
X243675771Y-61539523D01*
X243675771Y-61539523D02*
X243485295Y-61491904D01*
X243485295Y-61491904D02*
X243390057Y-61444285D01*
X243390057Y-61444285D02*
X243342438Y-61396666D01*
X243342438Y-61396666D02*
X243294819Y-61301428D01*
X202533333Y-47909580D02*
X202485714Y-47957200D01*
X202485714Y-47957200D02*
X202342857Y-48004819D01*
X202342857Y-48004819D02*
X202247619Y-48004819D01*
X202247619Y-48004819D02*
X202104762Y-47957200D01*
X202104762Y-47957200D02*
X202009524Y-47861961D01*
X202009524Y-47861961D02*
X201961905Y-47766723D01*
X201961905Y-47766723D02*
X201914286Y-47576247D01*
X201914286Y-47576247D02*
X201914286Y-47433390D01*
X201914286Y-47433390D02*
X201961905Y-47242914D01*
X201961905Y-47242914D02*
X202009524Y-47147676D01*
X202009524Y-47147676D02*
X202104762Y-47052438D01*
X202104762Y-47052438D02*
X202247619Y-47004819D01*
X202247619Y-47004819D02*
X202342857Y-47004819D01*
X202342857Y-47004819D02*
X202485714Y-47052438D01*
X202485714Y-47052438D02*
X202533333Y-47100057D01*
X203485714Y-48004819D02*
X202914286Y-48004819D01*
X203200000Y-48004819D02*
X203200000Y-47004819D01*
X203200000Y-47004819D02*
X203104762Y-47147676D01*
X203104762Y-47147676D02*
X203009524Y-47242914D01*
X203009524Y-47242914D02*
X202914286Y-47290533D01*
X195839819Y-95257857D02*
X195363628Y-95591190D01*
X195839819Y-95829285D02*
X194839819Y-95829285D01*
X194839819Y-95829285D02*
X194839819Y-95448333D01*
X194839819Y-95448333D02*
X194887438Y-95353095D01*
X194887438Y-95353095D02*
X194935057Y-95305476D01*
X194935057Y-95305476D02*
X195030295Y-95257857D01*
X195030295Y-95257857D02*
X195173152Y-95257857D01*
X195173152Y-95257857D02*
X195268390Y-95305476D01*
X195268390Y-95305476D02*
X195316009Y-95353095D01*
X195316009Y-95353095D02*
X195363628Y-95448333D01*
X195363628Y-95448333D02*
X195363628Y-95829285D01*
X195839819Y-94305476D02*
X195839819Y-94876904D01*
X195839819Y-94591190D02*
X194839819Y-94591190D01*
X194839819Y-94591190D02*
X194982676Y-94686428D01*
X194982676Y-94686428D02*
X195077914Y-94781666D01*
X195077914Y-94781666D02*
X195125533Y-94876904D01*
X194839819Y-93400714D02*
X194839819Y-93876904D01*
X194839819Y-93876904D02*
X195316009Y-93924523D01*
X195316009Y-93924523D02*
X195268390Y-93876904D01*
X195268390Y-93876904D02*
X195220771Y-93781666D01*
X195220771Y-93781666D02*
X195220771Y-93543571D01*
X195220771Y-93543571D02*
X195268390Y-93448333D01*
X195268390Y-93448333D02*
X195316009Y-93400714D01*
X195316009Y-93400714D02*
X195411247Y-93353095D01*
X195411247Y-93353095D02*
X195649342Y-93353095D01*
X195649342Y-93353095D02*
X195744580Y-93400714D01*
X195744580Y-93400714D02*
X195792200Y-93448333D01*
X195792200Y-93448333D02*
X195839819Y-93543571D01*
X195839819Y-93543571D02*
X195839819Y-93781666D01*
X195839819Y-93781666D02*
X195792200Y-93876904D01*
X195792200Y-93876904D02*
X195744580Y-93924523D01*
X235577142Y-32109580D02*
X235529523Y-32157200D01*
X235529523Y-32157200D02*
X235386666Y-32204819D01*
X235386666Y-32204819D02*
X235291428Y-32204819D01*
X235291428Y-32204819D02*
X235148571Y-32157200D01*
X235148571Y-32157200D02*
X235053333Y-32061961D01*
X235053333Y-32061961D02*
X235005714Y-31966723D01*
X235005714Y-31966723D02*
X234958095Y-31776247D01*
X234958095Y-31776247D02*
X234958095Y-31633390D01*
X234958095Y-31633390D02*
X235005714Y-31442914D01*
X235005714Y-31442914D02*
X235053333Y-31347676D01*
X235053333Y-31347676D02*
X235148571Y-31252438D01*
X235148571Y-31252438D02*
X235291428Y-31204819D01*
X235291428Y-31204819D02*
X235386666Y-31204819D01*
X235386666Y-31204819D02*
X235529523Y-31252438D01*
X235529523Y-31252438D02*
X235577142Y-31300057D01*
X236529523Y-32204819D02*
X235958095Y-32204819D01*
X236243809Y-32204819D02*
X236243809Y-31204819D01*
X236243809Y-31204819D02*
X236148571Y-31347676D01*
X236148571Y-31347676D02*
X236053333Y-31442914D01*
X236053333Y-31442914D02*
X235958095Y-31490533D01*
X237386666Y-31204819D02*
X237196190Y-31204819D01*
X237196190Y-31204819D02*
X237100952Y-31252438D01*
X237100952Y-31252438D02*
X237053333Y-31300057D01*
X237053333Y-31300057D02*
X236958095Y-31442914D01*
X236958095Y-31442914D02*
X236910476Y-31633390D01*
X236910476Y-31633390D02*
X236910476Y-32014342D01*
X236910476Y-32014342D02*
X236958095Y-32109580D01*
X236958095Y-32109580D02*
X237005714Y-32157200D01*
X237005714Y-32157200D02*
X237100952Y-32204819D01*
X237100952Y-32204819D02*
X237291428Y-32204819D01*
X237291428Y-32204819D02*
X237386666Y-32157200D01*
X237386666Y-32157200D02*
X237434285Y-32109580D01*
X237434285Y-32109580D02*
X237481904Y-32014342D01*
X237481904Y-32014342D02*
X237481904Y-31776247D01*
X237481904Y-31776247D02*
X237434285Y-31681009D01*
X237434285Y-31681009D02*
X237386666Y-31633390D01*
X237386666Y-31633390D02*
X237291428Y-31585771D01*
X237291428Y-31585771D02*
X237100952Y-31585771D01*
X237100952Y-31585771D02*
X237005714Y-31633390D01*
X237005714Y-31633390D02*
X236958095Y-31681009D01*
X236958095Y-31681009D02*
X236910476Y-31776247D01*
D12*
%TO.C,R24*%
X208788000Y-55218000D02*
X208788000Y-55288000D01*
X210158000Y-53848000D02*
G75*
G02*
X207418000Y-53848000I-1370000J0D01*
G01*
X207418000Y-53848000D02*
G75*
G02*
X210158000Y-53848000I1370000J0D01*
G01*
%TO.C,R23*%
X213360000Y-54539000D02*
X213360000Y-54469000D01*
X214730000Y-55909000D02*
G75*
G02*
X211990000Y-55909000I-1370000J0D01*
G01*
X211990000Y-55909000D02*
G75*
G02*
X214730000Y-55909000I1370000J0D01*
G01*
%TO.C,D1*%
X221512000Y-69596000D02*
X222162000Y-69596000D01*
X222162000Y-68476000D02*
X222162000Y-70716000D01*
X222162000Y-70716000D02*
X226402000Y-70716000D01*
X222762000Y-68476000D02*
X222762000Y-70716000D01*
X222882000Y-68476000D02*
X222882000Y-70716000D01*
X223002000Y-68476000D02*
X223002000Y-70716000D01*
X226402000Y-68476000D02*
X222162000Y-68476000D01*
X226402000Y-70716000D02*
X226402000Y-68476000D01*
X227052000Y-69596000D02*
X226402000Y-69596000D01*
%TO.C,R22*%
X194660000Y-72502000D02*
X194660000Y-76342000D01*
X194660000Y-76342000D02*
X196500000Y-76342000D01*
X195580000Y-71552000D02*
X195580000Y-72502000D01*
X195580000Y-77292000D02*
X195580000Y-76342000D01*
X196500000Y-72502000D02*
X194660000Y-72502000D01*
X196500000Y-76342000D02*
X196500000Y-72502000D01*
%TO.C,R16*%
X257980000Y-48540000D02*
X257980000Y-60680000D01*
X257980000Y-60680000D02*
X262720000Y-60680000D01*
X260350000Y-48430000D02*
X260350000Y-48540000D01*
X260350000Y-60790000D02*
X260350000Y-60680000D01*
X262720000Y-48540000D02*
X257980000Y-48540000D01*
X262720000Y-60680000D02*
X262720000Y-48540000D01*
%TO.C,Q16*%
X223625000Y-61040000D02*
X227225000Y-61040000D01*
X223057801Y-58086158D02*
G75*
G02*
X224285000Y-56840000I2367199J-1103842D01*
G01*
X223625000Y-61040000D02*
G75*
G02*
X223100816Y-60312795I1800000J1850000D01*
G01*
X226535000Y-56840000D02*
G75*
G02*
X227780458Y-58091629I-1110000J-2350000D01*
G01*
X227749184Y-60312795D02*
G75*
G02*
X227225000Y-61040000I-2324184J1122795D01*
G01*
%TO.C,C14*%
X236050000Y-49583220D02*
X228710000Y-49583220D01*
X236050000Y-49623220D02*
X228720000Y-49623220D01*
X236050000Y-49663220D02*
X228731000Y-49663220D01*
X236050000Y-49703220D02*
X228742000Y-49703220D01*
X236050000Y-49743220D02*
X228753000Y-49743220D01*
X236050000Y-49783220D02*
X228765000Y-49783220D01*
X236050000Y-49823220D02*
X228776000Y-49823220D01*
X236050000Y-49863220D02*
X228788000Y-49863220D01*
X236050000Y-49903220D02*
X228800000Y-49903220D01*
X236050000Y-49943220D02*
X228812000Y-49943220D01*
X236050000Y-49983220D02*
X228825000Y-49983220D01*
X236050000Y-50023220D02*
X228837000Y-50023220D01*
X236050000Y-50063220D02*
X228850000Y-50063220D01*
X236050000Y-50103220D02*
X228863000Y-50103220D01*
X236050000Y-50143220D02*
X228876000Y-50143220D01*
X236050000Y-50183220D02*
X228890000Y-50183220D01*
X236050000Y-50223220D02*
X228903000Y-50223220D01*
X236050000Y-50263220D02*
X228917000Y-50263220D01*
X236050000Y-50303220D02*
X228931000Y-50303220D01*
X236050000Y-50343220D02*
X228945000Y-50343220D01*
X236050000Y-50383220D02*
X228960000Y-50383220D01*
X236050000Y-50423220D02*
X228974000Y-50423220D01*
X236050000Y-50463220D02*
X228989000Y-50463220D01*
X236050000Y-50503220D02*
X229004000Y-50503220D01*
X236050000Y-50543220D02*
X229020000Y-50543220D01*
X236050000Y-50583220D02*
X229035000Y-50583220D01*
X236050000Y-50623220D02*
X229051000Y-50623220D01*
X236050000Y-50663220D02*
X229067000Y-50663220D01*
X236050000Y-50703220D02*
X229083000Y-50703220D01*
X236050000Y-50743220D02*
X229100000Y-50743220D01*
X236050000Y-50783220D02*
X229116000Y-50783220D01*
X236050000Y-50823220D02*
X229133000Y-50823220D01*
X236050000Y-50863220D02*
X229150000Y-50863220D01*
X236050000Y-50903220D02*
X229167000Y-50903220D01*
X236050000Y-50943220D02*
X229185000Y-50943220D01*
X236050000Y-50983220D02*
X229203000Y-50983220D01*
X236050000Y-51023220D02*
X229221000Y-51023220D01*
X236050000Y-51063220D02*
X229239000Y-51063220D01*
X236050000Y-51103220D02*
X229257000Y-51103220D01*
X236050000Y-51143220D02*
X229276000Y-51143220D01*
X236050000Y-51183220D02*
X229295000Y-51183220D01*
X236050000Y-51223220D02*
X229314000Y-51223220D01*
X236050000Y-51263220D02*
X229334000Y-51263220D01*
X236050000Y-51303220D02*
X229353000Y-51303220D01*
X236050000Y-51343220D02*
X229373000Y-51343220D01*
X236050000Y-51383220D02*
X229393000Y-51383220D01*
X236050000Y-51423220D02*
X229414000Y-51423220D01*
X236050000Y-51463220D02*
X229434000Y-51463220D01*
X236050000Y-51503220D02*
X229455000Y-51503220D01*
X236050000Y-51543220D02*
X229476000Y-51543220D01*
X236050000Y-51583220D02*
X229498000Y-51583220D01*
X236050000Y-51623220D02*
X229519000Y-51623220D01*
X236050000Y-51663220D02*
X229541000Y-51663220D01*
X236050000Y-51703220D02*
X229563000Y-51703220D01*
X236050000Y-51743220D02*
X229586000Y-51743220D01*
X236050000Y-51783220D02*
X229608000Y-51783220D01*
X236050000Y-51823220D02*
X229631000Y-51823220D01*
X236050000Y-51863220D02*
X229655000Y-51863220D01*
X236050000Y-51903220D02*
X229678000Y-51903220D01*
X236050000Y-51943220D02*
X229702000Y-51943220D01*
X236050000Y-51983220D02*
X229726000Y-51983220D01*
X236050000Y-52023220D02*
X229750000Y-52023220D01*
X236050000Y-52063220D02*
X229775000Y-52063220D01*
X236050000Y-52103220D02*
X229800000Y-52103220D01*
X236050000Y-52143220D02*
X229825000Y-52143220D01*
X236050000Y-52183220D02*
X229850000Y-52183220D01*
X236050000Y-52223220D02*
X229876000Y-52223220D01*
X236050000Y-52263220D02*
X229902000Y-52263220D01*
X236050000Y-52303220D02*
X229929000Y-52303220D01*
X236050000Y-52343220D02*
X229955000Y-52343220D01*
X236050000Y-52383220D02*
X229982000Y-52383220D01*
X236050000Y-52423220D02*
X230010000Y-52423220D01*
X237530000Y-56382220D02*
X237450000Y-56382220D01*
X238304000Y-56342220D02*
X236676000Y-56342220D01*
X238656000Y-56302220D02*
X236324000Y-56302220D01*
X238925000Y-56262220D02*
X236055000Y-56262220D01*
X239151000Y-56222220D02*
X235829000Y-56222220D01*
X239350000Y-56182220D02*
X235630000Y-56182220D01*
X239529000Y-56142220D02*
X235451000Y-56142220D01*
X239693000Y-56102220D02*
X235287000Y-56102220D01*
X239845000Y-56062220D02*
X235135000Y-56062220D01*
X239988000Y-56022220D02*
X234992000Y-56022220D01*
X240122000Y-55982220D02*
X234858000Y-55982220D01*
X240249000Y-55942220D02*
X234731000Y-55942220D01*
X240370000Y-55902220D02*
X234610000Y-55902220D01*
X240486000Y-55862220D02*
X234494000Y-55862220D01*
X240597000Y-55822220D02*
X234383000Y-55822220D01*
X240704000Y-55782220D02*
X234276000Y-55782220D01*
X240807000Y-55742220D02*
X234173000Y-55742220D01*
X240906000Y-55702220D02*
X234074000Y-55702220D01*
X241002000Y-55662220D02*
X233978000Y-55662220D01*
X241095000Y-55622220D02*
X233885000Y-55622220D01*
X241186000Y-55582220D02*
X233794000Y-55582220D01*
X241274000Y-55542220D02*
X233706000Y-55542220D01*
X241359000Y-55502220D02*
X233621000Y-55502220D01*
X241442000Y-55462220D02*
X233538000Y-55462220D01*
X241523000Y-55423220D02*
X233457000Y-55423220D01*
X241603000Y-55383220D02*
X233377000Y-55383220D01*
X241680000Y-55343220D02*
X233300000Y-55343220D01*
X241755000Y-55303220D02*
X233225000Y-55303220D01*
X241829000Y-55263220D02*
X233151000Y-55263220D01*
X241902000Y-55223220D02*
X233078000Y-55223220D01*
X241972000Y-55183220D02*
X233008000Y-55183220D01*
X242042000Y-55143220D02*
X232938000Y-55143220D01*
X242110000Y-55103220D02*
X232870000Y-55103220D01*
X242176000Y-55063220D02*
X232804000Y-55063220D01*
X242242000Y-55023220D02*
X232738000Y-55023220D01*
X242306000Y-54983220D02*
X232674000Y-54983220D01*
X242369000Y-54943220D02*
X232611000Y-54943220D01*
X242431000Y-54903220D02*
X232549000Y-54903220D01*
X242492000Y-54863220D02*
X232488000Y-54863220D01*
X242552000Y-54823220D02*
X232428000Y-54823220D01*
X242605000Y-37502780D02*
X242605000Y-39302780D01*
X242610000Y-54783220D02*
X232370000Y-54783220D01*
X242668000Y-54743220D02*
X232312000Y-54743220D01*
X242725000Y-54703220D02*
X232255000Y-54703220D01*
X242781000Y-54663220D02*
X232199000Y-54663220D01*
X242836000Y-54623220D02*
X232144000Y-54623220D01*
X242890000Y-54583220D02*
X232090000Y-54583220D01*
X242944000Y-54543220D02*
X232036000Y-54543220D01*
X242996000Y-54503220D02*
X231984000Y-54503220D01*
X243048000Y-54463220D02*
X231932000Y-54463220D01*
X243099000Y-54423220D02*
X231881000Y-54423220D01*
X243150000Y-54383220D02*
X231830000Y-54383220D01*
X243199000Y-54343220D02*
X231781000Y-54343220D01*
X243248000Y-54303220D02*
X231732000Y-54303220D01*
X243296000Y-54263220D02*
X231684000Y-54263220D01*
X243344000Y-54223220D02*
X231636000Y-54223220D01*
X243391000Y-54183220D02*
X231589000Y-54183220D01*
X243437000Y-54143220D02*
X231543000Y-54143220D01*
X243483000Y-54103220D02*
X231497000Y-54103220D01*
X243505000Y-38402780D02*
X241705000Y-38402780D01*
X243528000Y-54063220D02*
X231452000Y-54063220D01*
X243572000Y-54023220D02*
X231408000Y-54023220D01*
X243616000Y-53983220D02*
X231364000Y-53983220D01*
X243660000Y-53943220D02*
X231320000Y-53943220D01*
X243702000Y-53903220D02*
X231278000Y-53903220D01*
X243744000Y-53863220D02*
X231236000Y-53863220D01*
X243786000Y-53823220D02*
X231194000Y-53823220D01*
X243827000Y-53783220D02*
X231153000Y-53783220D01*
X243868000Y-53743220D02*
X231112000Y-53743220D01*
X243908000Y-53703220D02*
X231072000Y-53703220D01*
X243948000Y-53663220D02*
X231032000Y-53663220D01*
X243987000Y-53623220D02*
X230993000Y-53623220D01*
X244026000Y-53583220D02*
X230954000Y-53583220D01*
X244064000Y-53543220D02*
X230916000Y-53543220D01*
X244102000Y-53503220D02*
X230878000Y-53503220D01*
X244139000Y-53463220D02*
X230841000Y-53463220D01*
X244176000Y-53423220D02*
X230804000Y-53423220D01*
X244212000Y-53383220D02*
X230768000Y-53383220D01*
X244248000Y-53343220D02*
X230732000Y-53343220D01*
X244284000Y-53303220D02*
X230696000Y-53303220D01*
X244319000Y-53263220D02*
X230661000Y-53263220D01*
X244354000Y-53223220D02*
X230626000Y-53223220D01*
X244388000Y-53183220D02*
X230592000Y-53183220D01*
X244422000Y-53143220D02*
X230558000Y-53143220D01*
X244455000Y-53103220D02*
X230525000Y-53103220D01*
X244489000Y-53063220D02*
X230491000Y-53063220D01*
X244521000Y-53023220D02*
X230459000Y-53023220D01*
X244554000Y-52983220D02*
X230426000Y-52983220D01*
X244586000Y-52943220D02*
X230394000Y-52943220D01*
X244617000Y-52903220D02*
X230363000Y-52903220D01*
X244649000Y-52863220D02*
X230331000Y-52863220D01*
X244680000Y-52823220D02*
X230300000Y-52823220D01*
X244710000Y-52783220D02*
X230270000Y-52783220D01*
X244740000Y-52743220D02*
X230240000Y-52743220D01*
X244770000Y-52703220D02*
X230210000Y-52703220D01*
X244800000Y-52663220D02*
X230180000Y-52663220D01*
X244829000Y-52623220D02*
X230151000Y-52623220D01*
X244858000Y-52583220D02*
X230122000Y-52583220D01*
X244887000Y-52543220D02*
X230093000Y-52543220D01*
X244915000Y-52503220D02*
X230065000Y-52503220D01*
X244943000Y-52463220D02*
X230037000Y-52463220D01*
X244970000Y-52423220D02*
X238930000Y-52423220D01*
X244998000Y-52383220D02*
X238930000Y-52383220D01*
X245025000Y-52343220D02*
X238930000Y-52343220D01*
X245051000Y-52303220D02*
X238930000Y-52303220D01*
X245078000Y-52263220D02*
X238930000Y-52263220D01*
X245104000Y-52223220D02*
X238930000Y-52223220D01*
X245130000Y-52183220D02*
X238930000Y-52183220D01*
X245155000Y-52143220D02*
X238930000Y-52143220D01*
X245180000Y-52103220D02*
X238930000Y-52103220D01*
X245205000Y-52063220D02*
X238930000Y-52063220D01*
X245230000Y-52023220D02*
X238930000Y-52023220D01*
X245254000Y-51983220D02*
X238930000Y-51983220D01*
X245278000Y-51943220D02*
X238930000Y-51943220D01*
X245302000Y-51903220D02*
X238930000Y-51903220D01*
X245325000Y-51863220D02*
X238930000Y-51863220D01*
X245349000Y-51823220D02*
X238930000Y-51823220D01*
X245372000Y-51783220D02*
X238930000Y-51783220D01*
X245394000Y-51743220D02*
X238930000Y-51743220D01*
X245417000Y-51703220D02*
X238930000Y-51703220D01*
X245439000Y-51663220D02*
X238930000Y-51663220D01*
X245461000Y-51623220D02*
X238930000Y-51623220D01*
X245482000Y-51583220D02*
X238930000Y-51583220D01*
X245504000Y-51543220D02*
X238930000Y-51543220D01*
X245525000Y-51503220D02*
X238930000Y-51503220D01*
X245546000Y-51463220D02*
X238930000Y-51463220D01*
X245566000Y-51423220D02*
X238930000Y-51423220D01*
X245587000Y-51383220D02*
X238930000Y-51383220D01*
X245607000Y-51343220D02*
X238930000Y-51343220D01*
X245627000Y-51303220D02*
X238930000Y-51303220D01*
X245646000Y-51263220D02*
X238930000Y-51263220D01*
X245666000Y-51223220D02*
X238930000Y-51223220D01*
X245685000Y-51183220D02*
X238930000Y-51183220D01*
X245704000Y-51143220D02*
X238930000Y-51143220D01*
X245723000Y-51103220D02*
X238930000Y-51103220D01*
X245741000Y-51063220D02*
X238930000Y-51063220D01*
X245759000Y-51023220D02*
X238930000Y-51023220D01*
X245777000Y-50983220D02*
X238930000Y-50983220D01*
X245795000Y-50943220D02*
X238930000Y-50943220D01*
X245813000Y-50903220D02*
X238930000Y-50903220D01*
X245830000Y-50863220D02*
X238930000Y-50863220D01*
X245847000Y-50823220D02*
X238930000Y-50823220D01*
X245864000Y-50783220D02*
X238930000Y-50783220D01*
X245880000Y-50743220D02*
X238930000Y-50743220D01*
X245897000Y-50703220D02*
X238930000Y-50703220D01*
X245913000Y-50663220D02*
X238930000Y-50663220D01*
X245929000Y-50623220D02*
X238930000Y-50623220D01*
X245945000Y-50583220D02*
X238930000Y-50583220D01*
X245960000Y-50543220D02*
X238930000Y-50543220D01*
X245976000Y-50503220D02*
X238930000Y-50503220D01*
X245991000Y-50463220D02*
X238930000Y-50463220D01*
X246006000Y-50423220D02*
X238930000Y-50423220D01*
X246020000Y-50383220D02*
X238930000Y-50383220D01*
X246035000Y-50343220D02*
X238930000Y-50343220D01*
X246049000Y-50303220D02*
X238930000Y-50303220D01*
X246063000Y-50263220D02*
X238930000Y-50263220D01*
X246077000Y-50223220D02*
X238930000Y-50223220D01*
X246090000Y-50183220D02*
X238930000Y-50183220D01*
X246104000Y-50143220D02*
X238930000Y-50143220D01*
X246117000Y-50103220D02*
X238930000Y-50103220D01*
X246130000Y-50063220D02*
X238930000Y-50063220D01*
X246143000Y-50023220D02*
X238930000Y-50023220D01*
X246155000Y-49983220D02*
X238930000Y-49983220D01*
X246168000Y-49943220D02*
X238930000Y-49943220D01*
X246180000Y-49903220D02*
X238930000Y-49903220D01*
X246192000Y-49863220D02*
X238930000Y-49863220D01*
X246204000Y-49823220D02*
X238930000Y-49823220D01*
X246215000Y-49783220D02*
X238930000Y-49783220D01*
X246227000Y-49743220D02*
X238930000Y-49743220D01*
X246238000Y-49703220D02*
X238930000Y-49703220D01*
X246249000Y-49663220D02*
X238930000Y-49663220D01*
X246260000Y-49623220D02*
X238930000Y-49623220D01*
X246270000Y-49583220D02*
X238930000Y-49583220D01*
X246281000Y-49543220D02*
X228699000Y-49543220D01*
X246291000Y-49503220D02*
X228689000Y-49503220D01*
X246301000Y-49463220D02*
X228679000Y-49463220D01*
X246311000Y-49423220D02*
X228669000Y-49423220D01*
X246321000Y-49383220D02*
X228659000Y-49383220D01*
X246330000Y-49343220D02*
X228650000Y-49343220D01*
X246339000Y-49303220D02*
X228641000Y-49303220D01*
X246348000Y-49263220D02*
X228632000Y-49263220D01*
X246357000Y-49223220D02*
X228623000Y-49223220D01*
X246366000Y-49183220D02*
X228614000Y-49183220D01*
X246375000Y-49143220D02*
X228605000Y-49143220D01*
X246383000Y-49103220D02*
X228597000Y-49103220D01*
X246391000Y-49063220D02*
X228589000Y-49063220D01*
X246399000Y-49023220D02*
X228581000Y-49023220D01*
X246407000Y-48983220D02*
X228573000Y-48983220D01*
X246414000Y-48943220D02*
X228566000Y-48943220D01*
X246422000Y-48903220D02*
X228558000Y-48903220D01*
X246429000Y-48863220D02*
X228551000Y-48863220D01*
X246436000Y-48823220D02*
X228544000Y-48823220D01*
X246443000Y-48783220D02*
X228537000Y-48783220D01*
X246450000Y-48743220D02*
X228530000Y-48743220D01*
X246456000Y-48703220D02*
X228524000Y-48703220D01*
X246462000Y-48663220D02*
X228518000Y-48663220D01*
X246469000Y-48623220D02*
X228511000Y-48623220D01*
X246474000Y-48583220D02*
X228506000Y-48583220D01*
X246480000Y-48543220D02*
X228500000Y-48543220D01*
X246486000Y-48503220D02*
X228494000Y-48503220D01*
X246491000Y-48463220D02*
X228489000Y-48463220D01*
X246496000Y-48423220D02*
X228484000Y-48423220D01*
X246501000Y-48383220D02*
X228479000Y-48383220D01*
X246506000Y-48343220D02*
X228474000Y-48343220D01*
X246511000Y-48303220D02*
X228469000Y-48303220D01*
X246516000Y-48263220D02*
X228464000Y-48263220D01*
X246520000Y-48223220D02*
X228460000Y-48223220D01*
X246524000Y-48183220D02*
X228456000Y-48183220D01*
X246528000Y-48143220D02*
X228452000Y-48143220D01*
X246532000Y-48103220D02*
X228448000Y-48103220D01*
X246535000Y-48063220D02*
X228445000Y-48063220D01*
X246539000Y-48023220D02*
X228441000Y-48023220D01*
X246542000Y-47983220D02*
X228438000Y-47983220D01*
X246545000Y-47942220D02*
X228435000Y-47942220D01*
X246548000Y-47902220D02*
X228432000Y-47902220D01*
X246551000Y-47862220D02*
X228429000Y-47862220D01*
X246553000Y-47822220D02*
X228427000Y-47822220D01*
X246556000Y-47782220D02*
X228424000Y-47782220D01*
X246558000Y-47742220D02*
X228422000Y-47742220D01*
X246560000Y-47702220D02*
X228420000Y-47702220D01*
X246562000Y-47662220D02*
X228418000Y-47662220D01*
X246563000Y-47622220D02*
X228417000Y-47622220D01*
X246565000Y-47582220D02*
X228415000Y-47582220D01*
X246566000Y-47542220D02*
X228414000Y-47542220D01*
X246567000Y-47502220D02*
X228413000Y-47502220D01*
X246568000Y-47462220D02*
X228412000Y-47462220D01*
X246569000Y-47422220D02*
X228411000Y-47422220D01*
X246570000Y-47302220D02*
X228410000Y-47302220D01*
X246570000Y-47342220D02*
X228410000Y-47342220D01*
X246570000Y-47382220D02*
X228410000Y-47382220D01*
X246571000Y-47262220D02*
X228409000Y-47262220D01*
X246610000Y-47262220D02*
G75*
G02*
X228370000Y-47262220I-9120000J0D01*
G01*
X228370000Y-47262220D02*
G75*
G02*
X246610000Y-47262220I9120000J0D01*
G01*
%TO.C,Q4*%
X211535000Y-37360000D02*
X211535000Y-33760000D01*
X207335000Y-34450000D02*
G75*
G02*
X208586629Y-33204542I2350000J-1110000D01*
G01*
X208581158Y-37927199D02*
G75*
G02*
X207335000Y-36700000I1103842J2367199D01*
G01*
X210807795Y-33235816D02*
G75*
G02*
X211535000Y-33760000I-1122795J-2324184D01*
G01*
X211535000Y-37360000D02*
G75*
G02*
X210807795Y-37884184I-1850000J1800000D01*
G01*
%TO.C,Q1*%
X212145000Y-43920000D02*
X212145000Y-47520000D01*
X212145000Y-43920000D02*
G75*
G02*
X212872205Y-43395816I1850000J-1800000D01*
G01*
X212872205Y-48044184D02*
G75*
G02*
X212145000Y-47520000I1122795J2324184D01*
G01*
X215098842Y-43352801D02*
G75*
G02*
X216345000Y-44580000I-1103842J-2367199D01*
G01*
X216345000Y-46830000D02*
G75*
G02*
X215093371Y-48075458I-2350000J1110000D01*
G01*
%TO.C,R5*%
X204140000Y-77470000D02*
X205090000Y-77470000D01*
X205090000Y-76550000D02*
X205090000Y-78390000D01*
X205090000Y-78390000D02*
X208930000Y-78390000D01*
X208930000Y-76550000D02*
X205090000Y-76550000D01*
X208930000Y-78390000D02*
X208930000Y-76550000D01*
X209880000Y-77470000D02*
X208930000Y-77470000D01*
%TO.C,D6*%
X248720000Y-47445000D02*
X248720000Y-52885000D01*
X248720000Y-51865000D02*
X251660000Y-51865000D01*
X248720000Y-51985000D02*
X251660000Y-51985000D01*
X248720000Y-52105000D02*
X251660000Y-52105000D01*
X248720000Y-52885000D02*
X251660000Y-52885000D01*
X250190000Y-46425000D02*
X250190000Y-47445000D01*
X250190000Y-53905000D02*
X250190000Y-52885000D01*
X251660000Y-47445000D02*
X248720000Y-47445000D01*
X251660000Y-52885000D02*
X251660000Y-47445000D01*
%TO.C,C2*%
X193960000Y-48985000D02*
X193960000Y-56425000D01*
X197200000Y-48985000D02*
X193960000Y-48985000D01*
X197200000Y-48985000D02*
X197200000Y-56425000D01*
X197200000Y-56425000D02*
X193960000Y-56425000D01*
%TO.C,R9*%
X216885000Y-60945000D02*
X216885000Y-64785000D01*
X216885000Y-64785000D02*
X218725000Y-64785000D01*
X217805000Y-59995000D02*
X217805000Y-60945000D01*
X217805000Y-65735000D02*
X217805000Y-64785000D01*
X218725000Y-60945000D02*
X216885000Y-60945000D01*
X218725000Y-64785000D02*
X218725000Y-60945000D01*
%TO.C,R3*%
X220695000Y-36180000D02*
X220695000Y-40020000D01*
X220695000Y-40020000D02*
X222535000Y-40020000D01*
X221615000Y-35230000D02*
X221615000Y-36180000D01*
X221615000Y-40970000D02*
X221615000Y-40020000D01*
X222535000Y-36180000D02*
X220695000Y-36180000D01*
X222535000Y-40020000D02*
X222535000Y-36180000D01*
%TO.C,D11*%
X248720000Y-89990000D02*
X248720000Y-95430000D01*
X248720000Y-95430000D02*
X251660000Y-95430000D01*
X250190000Y-88970000D02*
X250190000Y-89990000D01*
X250190000Y-96450000D02*
X250190000Y-95430000D01*
X251660000Y-89990000D02*
X248720000Y-89990000D01*
X251660000Y-90770000D02*
X248720000Y-90770000D01*
X251660000Y-90890000D02*
X248720000Y-90890000D01*
X251660000Y-91010000D02*
X248720000Y-91010000D01*
X251660000Y-95430000D02*
X251660000Y-89990000D01*
%TO.C,J2*%
D10*
X258445000Y-107315000D02*
X268605000Y-107315000D01*
X268605000Y-112395000D01*
X258445000Y-112395000D01*
X258445000Y-107315000D01*
D12*
%TO.C,Q7*%
X271178000Y-69279000D02*
X271178000Y-77520000D01*
X271498000Y-71800000D02*
X271178000Y-71800000D01*
X271498000Y-75000000D02*
X271178000Y-75000000D01*
X274668000Y-69279000D02*
X271178000Y-69279000D01*
X274668000Y-69279000D02*
X274668000Y-77520000D01*
X274668000Y-71800000D02*
X273598000Y-71800000D01*
X274668000Y-75000000D02*
X273598000Y-75000000D01*
X274668000Y-77520000D02*
X271178000Y-77520000D01*
%TO.C,D10*%
X246450000Y-107950000D02*
X247470000Y-107950000D01*
X247470000Y-106480000D02*
X247470000Y-109420000D01*
X247470000Y-109420000D02*
X252910000Y-109420000D01*
X248250000Y-106480000D02*
X248250000Y-109420000D01*
X248370000Y-106480000D02*
X248370000Y-109420000D01*
X248490000Y-106480000D02*
X248490000Y-109420000D01*
X252910000Y-106480000D02*
X247470000Y-106480000D01*
X252910000Y-109420000D02*
X252910000Y-106480000D01*
X253930000Y-107950000D02*
X252910000Y-107950000D01*
%TO.C,R14*%
X210535000Y-94600000D02*
X210535000Y-98440000D01*
X210535000Y-98440000D02*
X212375000Y-98440000D01*
X211455000Y-93650000D02*
X211455000Y-94600000D01*
X211455000Y-99390000D02*
X211455000Y-98440000D01*
X212375000Y-94600000D02*
X210535000Y-94600000D01*
X212375000Y-98440000D02*
X212375000Y-94600000D01*
%TO.C,J5*%
D10*
X221996000Y-90805000D02*
X227076000Y-90805000D01*
X227076000Y-80645000D01*
X221996000Y-80645000D01*
X221996000Y-90805000D01*
D12*
%TO.C,D7*%
X245815000Y-34925000D02*
X246835000Y-34925000D01*
X246835000Y-33455000D02*
X246835000Y-36395000D01*
X246835000Y-36395000D02*
X252275000Y-36395000D01*
X251255000Y-36395000D02*
X251255000Y-33455000D01*
X251375000Y-36395000D02*
X251375000Y-33455000D01*
X251495000Y-36395000D02*
X251495000Y-33455000D01*
X252275000Y-33455000D02*
X246835000Y-33455000D01*
X252275000Y-36395000D02*
X252275000Y-33455000D01*
X253295000Y-34925000D02*
X252275000Y-34925000D01*
%TO.C,C6*%
X262660199Y-71830000D02*
X263060199Y-71830000D01*
X262860199Y-71630000D02*
X262860199Y-72030000D01*
X264930000Y-70945000D02*
X264930000Y-75105000D01*
X264970000Y-70945000D02*
X264970000Y-75105000D01*
X265010000Y-70946000D02*
X265010000Y-75104000D01*
X265050000Y-70948000D02*
X265050000Y-75102000D01*
X265090000Y-70951000D02*
X265090000Y-75099000D01*
X265130000Y-70954000D02*
X265130000Y-72185000D01*
X265130000Y-73865000D02*
X265130000Y-75096000D01*
X265170000Y-70958000D02*
X265170000Y-72185000D01*
X265170000Y-73865000D02*
X265170000Y-75092000D01*
X265210000Y-70963000D02*
X265210000Y-72185000D01*
X265210000Y-73865000D02*
X265210000Y-75087000D01*
X265250000Y-70969000D02*
X265250000Y-72185000D01*
X265250000Y-73865000D02*
X265250000Y-75081000D01*
X265290000Y-70975000D02*
X265290000Y-72185000D01*
X265290000Y-73865000D02*
X265290000Y-75075000D01*
X265330000Y-70983000D02*
X265330000Y-72185000D01*
X265330000Y-73865000D02*
X265330000Y-75067000D01*
X265370000Y-70991000D02*
X265370000Y-72185000D01*
X265370000Y-73865000D02*
X265370000Y-75059000D01*
X265410000Y-71000000D02*
X265410000Y-72185000D01*
X265410000Y-73865000D02*
X265410000Y-75050000D01*
X265450000Y-71009000D02*
X265450000Y-72185000D01*
X265450000Y-73865000D02*
X265450000Y-75041000D01*
X265490000Y-71020000D02*
X265490000Y-72185000D01*
X265490000Y-73865000D02*
X265490000Y-75030000D01*
X265530000Y-71031000D02*
X265530000Y-72185000D01*
X265530000Y-73865000D02*
X265530000Y-75019000D01*
X265570000Y-71043000D02*
X265570000Y-72185000D01*
X265570000Y-73865000D02*
X265570000Y-75007000D01*
X265610000Y-71057000D02*
X265610000Y-72185000D01*
X265610000Y-73865000D02*
X265610000Y-74993000D01*
X265651000Y-71071000D02*
X265651000Y-72185000D01*
X265651000Y-73865000D02*
X265651000Y-74979000D01*
X265691000Y-71085000D02*
X265691000Y-72185000D01*
X265691000Y-73865000D02*
X265691000Y-74965000D01*
X265731000Y-71101000D02*
X265731000Y-72185000D01*
X265731000Y-73865000D02*
X265731000Y-74949000D01*
X265771000Y-71118000D02*
X265771000Y-72185000D01*
X265771000Y-73865000D02*
X265771000Y-74932000D01*
X265811000Y-71136000D02*
X265811000Y-72185000D01*
X265811000Y-73865000D02*
X265811000Y-74914000D01*
X265851000Y-71155000D02*
X265851000Y-72185000D01*
X265851000Y-73865000D02*
X265851000Y-74895000D01*
X265891000Y-71174000D02*
X265891000Y-72185000D01*
X265891000Y-73865000D02*
X265891000Y-74876000D01*
X265931000Y-71195000D02*
X265931000Y-72185000D01*
X265931000Y-73865000D02*
X265931000Y-74855000D01*
X265971000Y-71217000D02*
X265971000Y-72185000D01*
X265971000Y-73865000D02*
X265971000Y-74833000D01*
X266011000Y-71240000D02*
X266011000Y-72185000D01*
X266011000Y-73865000D02*
X266011000Y-74810000D01*
X266051000Y-71265000D02*
X266051000Y-72185000D01*
X266051000Y-73865000D02*
X266051000Y-74785000D01*
X266091000Y-71290000D02*
X266091000Y-72185000D01*
X266091000Y-73865000D02*
X266091000Y-74760000D01*
X266131000Y-71317000D02*
X266131000Y-72185000D01*
X266131000Y-73865000D02*
X266131000Y-74733000D01*
X266171000Y-71345000D02*
X266171000Y-72185000D01*
X266171000Y-73865000D02*
X266171000Y-74705000D01*
X266211000Y-71375000D02*
X266211000Y-72185000D01*
X266211000Y-73865000D02*
X266211000Y-74675000D01*
X266251000Y-71406000D02*
X266251000Y-72185000D01*
X266251000Y-73865000D02*
X266251000Y-74644000D01*
X266291000Y-71438000D02*
X266291000Y-72185000D01*
X266291000Y-73865000D02*
X266291000Y-74612000D01*
X266331000Y-71473000D02*
X266331000Y-72185000D01*
X266331000Y-73865000D02*
X266331000Y-74577000D01*
X266371000Y-71509000D02*
X266371000Y-72185000D01*
X266371000Y-73865000D02*
X266371000Y-74541000D01*
X266411000Y-71547000D02*
X266411000Y-72185000D01*
X266411000Y-73865000D02*
X266411000Y-74503000D01*
X266451000Y-71587000D02*
X266451000Y-72185000D01*
X266451000Y-73865000D02*
X266451000Y-74463000D01*
X266491000Y-71629000D02*
X266491000Y-72185000D01*
X266491000Y-73865000D02*
X266491000Y-74421000D01*
X266531000Y-71674000D02*
X266531000Y-72185000D01*
X266531000Y-73865000D02*
X266531000Y-74376000D01*
X266571000Y-71721000D02*
X266571000Y-72185000D01*
X266571000Y-73865000D02*
X266571000Y-74329000D01*
X266611000Y-71771000D02*
X266611000Y-72185000D01*
X266611000Y-73865000D02*
X266611000Y-74279000D01*
X266651000Y-71825000D02*
X266651000Y-72185000D01*
X266651000Y-73865000D02*
X266651000Y-74225000D01*
X266691000Y-71883000D02*
X266691000Y-72185000D01*
X266691000Y-73865000D02*
X266691000Y-74167000D01*
X266731000Y-71945000D02*
X266731000Y-72185000D01*
X266731000Y-73865000D02*
X266731000Y-74105000D01*
X266771000Y-72012000D02*
X266771000Y-74038000D01*
X266811000Y-72085000D02*
X266811000Y-73965000D01*
X266851000Y-72166000D02*
X266851000Y-73884000D01*
X266891000Y-72257000D02*
X266891000Y-73793000D01*
X266931000Y-72361000D02*
X266931000Y-73689000D01*
X266971000Y-72488000D02*
X266971000Y-73562000D01*
X267011000Y-72655000D02*
X267011000Y-73395000D01*
X267050000Y-73025000D02*
G75*
G02*
X262810000Y-73025000I-2120000J0D01*
G01*
X262810000Y-73025000D02*
G75*
G02*
X267050000Y-73025000I2120000J0D01*
G01*
%TO.C,R17*%
X257980000Y-85370000D02*
X257980000Y-97510000D01*
X257980000Y-97510000D02*
X262720000Y-97510000D01*
X260350000Y-85260000D02*
X260350000Y-85370000D01*
X260350000Y-97620000D02*
X260350000Y-97510000D01*
X262720000Y-85370000D02*
X257980000Y-85370000D01*
X262720000Y-97510000D02*
X262720000Y-85370000D01*
%TO.C,R11*%
X264795000Y-67210000D02*
X264795000Y-67140000D01*
X266165000Y-68580000D02*
G75*
G02*
X263425000Y-68580000I-1370000J0D01*
G01*
X263425000Y-68580000D02*
G75*
G02*
X266165000Y-68580000I1370000J0D01*
G01*
%TO.C,R13*%
X215615000Y-94600000D02*
X215615000Y-98440000D01*
X215615000Y-98440000D02*
X217455000Y-98440000D01*
X216535000Y-93650000D02*
X216535000Y-94600000D01*
X216535000Y-99390000D02*
X216535000Y-98440000D01*
X217455000Y-94600000D02*
X215615000Y-94600000D01*
X217455000Y-98440000D02*
X217455000Y-94600000D01*
%TO.C,Q15*%
X204575000Y-67255000D02*
X208175000Y-67255000D01*
X204007801Y-64301158D02*
G75*
G02*
X205235000Y-63055000I2367199J-1103842D01*
G01*
X204575000Y-67255000D02*
G75*
G02*
X204050816Y-66527795I1800000J1850000D01*
G01*
X207485000Y-63055000D02*
G75*
G02*
X208730458Y-64306629I-1110000J-2350000D01*
G01*
X208699184Y-66527795D02*
G75*
G02*
X208175000Y-67255000I-2324184J1122795D01*
G01*
%TO.C,R1*%
X202565000Y-43363000D02*
X202565000Y-43293000D01*
X203935000Y-44733000D02*
G75*
G02*
X201195000Y-44733000I-1370000J0D01*
G01*
X201195000Y-44733000D02*
G75*
G02*
X203935000Y-44733000I1370000J0D01*
G01*
%TO.C,R18*%
X268910000Y-80010000D02*
X269860000Y-80010000D01*
X269860000Y-79090000D02*
X269860000Y-80930000D01*
X269860000Y-80930000D02*
X273700000Y-80930000D01*
X273700000Y-79090000D02*
X269860000Y-79090000D01*
X273700000Y-80930000D02*
X273700000Y-79090000D01*
X274650000Y-80010000D02*
X273700000Y-80010000D01*
%TO.C,Q8*%
X219102000Y-93039000D02*
X219102000Y-101280000D01*
X219422000Y-95560000D02*
X219102000Y-95560000D01*
X219422000Y-98760000D02*
X219102000Y-98760000D01*
X222592000Y-93039000D02*
X219102000Y-93039000D01*
X222592000Y-93039000D02*
X222592000Y-101280000D01*
X222592000Y-95560000D02*
X221522000Y-95560000D01*
X222592000Y-98760000D02*
X221522000Y-98760000D01*
X222592000Y-101280000D02*
X219102000Y-101280000D01*
%TO.C,R7*%
X213075000Y-60945000D02*
X213075000Y-64785000D01*
X213075000Y-64785000D02*
X214915000Y-64785000D01*
X213995000Y-59995000D02*
X213995000Y-60945000D01*
X213995000Y-65735000D02*
X213995000Y-64785000D01*
X214915000Y-60945000D02*
X213075000Y-60945000D01*
X214915000Y-64785000D02*
X214915000Y-60945000D01*
%TO.C,J1*%
X231320000Y-70940000D02*
X231320000Y-71440000D01*
X231560000Y-71180000D02*
X231560000Y-81300000D01*
X232060000Y-70940000D02*
X231320000Y-70940000D01*
X232120000Y-71180000D02*
X232120000Y-81300000D01*
X233620000Y-71180000D02*
X233620000Y-81300000D01*
X234981000Y-77706000D02*
X234946000Y-77671000D01*
X235197000Y-77513000D02*
X235151000Y-77466000D01*
X237289000Y-80015000D02*
X237243000Y-79968000D01*
X237495000Y-79810000D02*
X237459000Y-79775000D01*
X238521000Y-71180000D02*
X238521000Y-81300000D01*
X241481000Y-71180000D02*
X231560000Y-71180000D01*
X241481000Y-71180000D02*
X241481000Y-81300000D01*
X241481000Y-81300000D02*
X231560000Y-81300000D01*
X234539747Y-73768805D02*
G75*
G02*
X234685000Y-73056000I1680254J28806D01*
G01*
X234685244Y-74423318D02*
G75*
G02*
X234540000Y-73740000I1534756J683318D01*
G01*
X235536958Y-72204573D02*
G75*
G02*
X236904000Y-72205000I683041J-1535420D01*
G01*
X236903042Y-75275427D02*
G75*
G02*
X235536000Y-75275000I-683042J1535427D01*
G01*
X237755427Y-73056958D02*
G75*
G02*
X237755000Y-74424000I-1535420J-683041D01*
G01*
X237900000Y-78740000D02*
G75*
G02*
X234540000Y-78740000I-1680000J0D01*
G01*
X234540000Y-78740000D02*
G75*
G02*
X237900000Y-78740000I1680000J0D01*
G01*
%TO.C,R6*%
X198470000Y-72502000D02*
X198470000Y-76342000D01*
X198470000Y-76342000D02*
X200310000Y-76342000D01*
X199390000Y-71552000D02*
X199390000Y-72502000D01*
X199390000Y-77292000D02*
X199390000Y-76342000D01*
X200310000Y-72502000D02*
X198470000Y-72502000D01*
X200310000Y-76342000D02*
X200310000Y-72502000D01*
D13*
%TO.C,RV1*%
X255945000Y-68810000D02*
X260945000Y-68810000D01*
X255945000Y-78510000D02*
X255945000Y-68810000D01*
X260945000Y-68810000D02*
X260945000Y-78510000D01*
X260945000Y-78510000D02*
X255945000Y-78510000D01*
D12*
%TO.C,Q9*%
X269341000Y-48180000D02*
X269341000Y-64320000D01*
X274612000Y-48180000D02*
X269341000Y-48180000D01*
X274612000Y-48180000D02*
X274612000Y-64320000D01*
X274612000Y-54446000D02*
X269341000Y-54446000D01*
X274612000Y-58055000D02*
X269341000Y-58055000D01*
X274612000Y-64320000D02*
X269341000Y-64320000D01*
%TO.C,D8*%
X254705000Y-40005000D02*
X255725000Y-40005000D01*
X255725000Y-38535000D02*
X255725000Y-41475000D01*
X255725000Y-41475000D02*
X261165000Y-41475000D01*
X260145000Y-41475000D02*
X260145000Y-38535000D01*
X260265000Y-41475000D02*
X260265000Y-38535000D01*
X260385000Y-41475000D02*
X260385000Y-38535000D01*
X261165000Y-38535000D02*
X255725000Y-38535000D01*
X261165000Y-41475000D02*
X261165000Y-38535000D01*
X262185000Y-40005000D02*
X261165000Y-40005000D01*
%TO.C,R4*%
X225775000Y-36180000D02*
X225775000Y-40020000D01*
X225775000Y-40020000D02*
X227615000Y-40020000D01*
X226695000Y-35230000D02*
X226695000Y-36180000D01*
X226695000Y-40970000D02*
X226695000Y-40020000D01*
X227615000Y-36180000D02*
X225775000Y-36180000D01*
X227615000Y-40020000D02*
X227615000Y-36180000D01*
%TO.C,R8*%
X269545000Y-67310000D02*
X270495000Y-67310000D01*
X270495000Y-66390000D02*
X270495000Y-68230000D01*
X270495000Y-68230000D02*
X274335000Y-68230000D01*
X274335000Y-66390000D02*
X270495000Y-66390000D01*
X274335000Y-68230000D02*
X274335000Y-66390000D01*
X275285000Y-67310000D02*
X274335000Y-67310000D01*
%TO.C,J4*%
D10*
X257810000Y-33020000D02*
X267970000Y-33020000D01*
X267970000Y-38100000D01*
X257810000Y-38100000D01*
X257810000Y-33020000D01*
D12*
%TO.C,D5*%
X254785000Y-46775000D02*
X254785000Y-51015000D01*
X254785000Y-50175000D02*
X257025000Y-50175000D01*
X254785000Y-50295000D02*
X257025000Y-50295000D01*
X254785000Y-50415000D02*
X257025000Y-50415000D01*
X254785000Y-51015000D02*
X257025000Y-51015000D01*
X255905000Y-46125000D02*
X255905000Y-46775000D01*
X255905000Y-51665000D02*
X255905000Y-51015000D01*
X257025000Y-46775000D02*
X254785000Y-46775000D01*
X257025000Y-51015000D02*
X257025000Y-46775000D01*
%TO.C,R19*%
X220695000Y-46340000D02*
X220695000Y-50180000D01*
X220695000Y-50180000D02*
X222535000Y-50180000D01*
X221615000Y-45390000D02*
X221615000Y-46340000D01*
X221615000Y-51130000D02*
X221615000Y-50180000D01*
X222535000Y-46340000D02*
X220695000Y-46340000D01*
X222535000Y-50180000D02*
X222535000Y-46340000D01*
%TO.C,J3*%
X194220000Y-57425000D02*
X194220000Y-58925000D01*
X194460000Y-57665000D02*
X194460000Y-65485000D01*
X195960000Y-57425000D02*
X194220000Y-57425000D01*
X196020000Y-57665000D02*
X196020000Y-65485000D01*
X201580000Y-57665000D02*
X194460000Y-57665000D01*
X201580000Y-57665000D02*
X201580000Y-65485000D01*
X201580000Y-65485000D02*
X194460000Y-65485000D01*
X196564507Y-59852011D02*
G75*
G02*
X196688000Y-59217000I1555481J27013D01*
G01*
X196688615Y-60432587D02*
G75*
G02*
X196565000Y-59825000I1431385J607587D01*
G01*
X197512258Y-58392891D02*
G75*
G02*
X198728000Y-58393000I607742J-1432109D01*
G01*
X198727742Y-61257109D02*
G75*
G02*
X197512000Y-61257000I-607743J1432112D01*
G01*
X199552109Y-59217258D02*
G75*
G02*
X199552000Y-60433000I-1432109J-607742D01*
G01*
X199675000Y-63325000D02*
G75*
G02*
X196565000Y-63325000I-1555000J0D01*
G01*
X196565000Y-63325000D02*
G75*
G02*
X199675000Y-63325000I1555000J0D01*
G01*
%TO.C,C7*%
X202215000Y-95975000D02*
X202215000Y-103415000D01*
X205455000Y-95975000D02*
X202215000Y-95975000D01*
X205455000Y-95975000D02*
X205455000Y-103415000D01*
X205455000Y-103415000D02*
X202215000Y-103415000D01*
%TO.C,Q12*%
X214862000Y-88726000D02*
X218462000Y-88726000D01*
X214294801Y-85772158D02*
G75*
G02*
X215522000Y-84526000I2367199J-1103842D01*
G01*
X214862000Y-88726000D02*
G75*
G02*
X214337816Y-87998795I1800000J1850000D01*
G01*
X217772000Y-84526000D02*
G75*
G02*
X219017458Y-85777629I-1110000J-2350000D01*
G01*
X218986184Y-87998795D02*
G75*
G02*
X218462000Y-88726000I-2324184J1122795D01*
G01*
%TO.C,C4*%
X212356651Y-74828000D02*
X212356651Y-73762000D01*
X212396651Y-75063000D02*
X212396651Y-73527000D01*
X212436651Y-75243000D02*
X212436651Y-73347000D01*
X212476651Y-75393000D02*
X212476651Y-73197000D01*
X212516651Y-75524000D02*
X212516651Y-73066000D01*
X212556651Y-75641000D02*
X212556651Y-72949000D01*
X212596651Y-75748000D02*
X212596651Y-72842000D01*
X212636651Y-75847000D02*
X212636651Y-72743000D01*
X212676651Y-75940000D02*
X212676651Y-72650000D01*
X212716651Y-76026000D02*
X212716651Y-72564000D01*
X212756651Y-76108000D02*
X212756651Y-72482000D01*
X212796651Y-76185000D02*
X212796651Y-72405000D01*
X212836651Y-76259000D02*
X212836651Y-72331000D01*
X212876651Y-76329000D02*
X212876651Y-72261000D01*
X212916651Y-73255000D02*
X212916651Y-72193000D01*
X212916651Y-76397000D02*
X212916651Y-75335000D01*
X212956651Y-73255000D02*
X212956651Y-72129000D01*
X212956651Y-76461000D02*
X212956651Y-75335000D01*
X212996651Y-73255000D02*
X212996651Y-72067000D01*
X212996651Y-76523000D02*
X212996651Y-75335000D01*
X213036651Y-73255000D02*
X213036651Y-72008000D01*
X213036651Y-76582000D02*
X213036651Y-75335000D01*
X213076651Y-73255000D02*
X213076651Y-71950000D01*
X213076651Y-76640000D02*
X213076651Y-75335000D01*
X213116651Y-73255000D02*
X213116651Y-71895000D01*
X213116651Y-76695000D02*
X213116651Y-75335000D01*
X213156651Y-73255000D02*
X213156651Y-71841000D01*
X213156651Y-76749000D02*
X213156651Y-75335000D01*
X213196651Y-73255000D02*
X213196651Y-71790000D01*
X213196651Y-76800000D02*
X213196651Y-75335000D01*
X213236651Y-73255000D02*
X213236651Y-71739000D01*
X213236651Y-76851000D02*
X213236651Y-75335000D01*
X213276651Y-73255000D02*
X213276651Y-71691000D01*
X213276651Y-76899000D02*
X213276651Y-75335000D01*
X213316651Y-73255000D02*
X213316651Y-71644000D01*
X213316651Y-76946000D02*
X213316651Y-75335000D01*
X213356651Y-73255000D02*
X213356651Y-71598000D01*
X213356651Y-76992000D02*
X213356651Y-75335000D01*
X213396651Y-73255000D02*
X213396651Y-71554000D01*
X213396651Y-77036000D02*
X213396651Y-75335000D01*
X213436651Y-73255000D02*
X213436651Y-71511000D01*
X213436651Y-77079000D02*
X213436651Y-75335000D01*
X213476651Y-73255000D02*
X213476651Y-71469000D01*
X213476651Y-77121000D02*
X213476651Y-75335000D01*
X213516651Y-73255000D02*
X213516651Y-71428000D01*
X213516651Y-77162000D02*
X213516651Y-75335000D01*
X213556651Y-73255000D02*
X213556651Y-71388000D01*
X213556651Y-77202000D02*
X213556651Y-75335000D01*
X213596651Y-73255000D02*
X213596651Y-71350000D01*
X213596651Y-77240000D02*
X213596651Y-75335000D01*
X213636651Y-73255000D02*
X213636651Y-71312000D01*
X213636651Y-77278000D02*
X213636651Y-75335000D01*
X213676651Y-73255000D02*
X213676651Y-71276000D01*
X213676651Y-77314000D02*
X213676651Y-75335000D01*
X213716651Y-73255000D02*
X213716651Y-71240000D01*
X213716651Y-77350000D02*
X213716651Y-75335000D01*
X213756651Y-73255000D02*
X213756651Y-71205000D01*
X213756651Y-77385000D02*
X213756651Y-75335000D01*
X213796651Y-73255000D02*
X213796651Y-71171000D01*
X213796651Y-77419000D02*
X213796651Y-75335000D01*
X213836651Y-73255000D02*
X213836651Y-71139000D01*
X213836651Y-77451000D02*
X213836651Y-75335000D01*
X213876651Y-73255000D02*
X213876651Y-71106000D01*
X213876651Y-77484000D02*
X213876651Y-75335000D01*
X213916651Y-73255000D02*
X213916651Y-71075000D01*
X213916651Y-77515000D02*
X213916651Y-75335000D01*
X213956651Y-73255000D02*
X213956651Y-71045000D01*
X213956651Y-77545000D02*
X213956651Y-75335000D01*
X213996651Y-73255000D02*
X213996651Y-71015000D01*
X213996651Y-77575000D02*
X213996651Y-75335000D01*
X214036651Y-73255000D02*
X214036651Y-70986000D01*
X214036651Y-77604000D02*
X214036651Y-75335000D01*
X214076651Y-73255000D02*
X214076651Y-70957000D01*
X214076651Y-77633000D02*
X214076651Y-75335000D01*
X214116651Y-73255000D02*
X214116651Y-70930000D01*
X214116651Y-77660000D02*
X214116651Y-75335000D01*
X214156651Y-73255000D02*
X214156651Y-70903000D01*
X214156651Y-77687000D02*
X214156651Y-75335000D01*
X214196651Y-73255000D02*
X214196651Y-70877000D01*
X214196651Y-77713000D02*
X214196651Y-75335000D01*
X214236651Y-73255000D02*
X214236651Y-70851000D01*
X214236651Y-77739000D02*
X214236651Y-75335000D01*
X214276651Y-73255000D02*
X214276651Y-70826000D01*
X214276651Y-77764000D02*
X214276651Y-75335000D01*
X214316651Y-73255000D02*
X214316651Y-70802000D01*
X214316651Y-77788000D02*
X214316651Y-75335000D01*
X214356651Y-73255000D02*
X214356651Y-70778000D01*
X214356651Y-77812000D02*
X214356651Y-75335000D01*
X214396651Y-73255000D02*
X214396651Y-70755000D01*
X214396651Y-77835000D02*
X214396651Y-75335000D01*
X214436651Y-73255000D02*
X214436651Y-70733000D01*
X214436651Y-77857000D02*
X214436651Y-75335000D01*
X214476651Y-73255000D02*
X214476651Y-70711000D01*
X214476651Y-77879000D02*
X214476651Y-75335000D01*
X214516651Y-73255000D02*
X214516651Y-70689000D01*
X214516651Y-77901000D02*
X214516651Y-75335000D01*
X214556651Y-73255000D02*
X214556651Y-70668000D01*
X214556651Y-77922000D02*
X214556651Y-75335000D01*
X214596651Y-73255000D02*
X214596651Y-70648000D01*
X214596651Y-77942000D02*
X214596651Y-75335000D01*
X214636651Y-73255000D02*
X214636651Y-70629000D01*
X214636651Y-77961000D02*
X214636651Y-75335000D01*
X214676651Y-73255000D02*
X214676651Y-70609000D01*
X214676651Y-77981000D02*
X214676651Y-75335000D01*
X214716651Y-73255000D02*
X214716651Y-70591000D01*
X214716651Y-77999000D02*
X214716651Y-75335000D01*
X214756651Y-73255000D02*
X214756651Y-70573000D01*
X214756651Y-78017000D02*
X214756651Y-75335000D01*
X214796651Y-73255000D02*
X214796651Y-70555000D01*
X214796651Y-78035000D02*
X214796651Y-75335000D01*
X214836651Y-73255000D02*
X214836651Y-70538000D01*
X214836651Y-78052000D02*
X214836651Y-75335000D01*
X214876651Y-73255000D02*
X214876651Y-70521000D01*
X214876651Y-78069000D02*
X214876651Y-75335000D01*
X214916651Y-73255000D02*
X214916651Y-70505000D01*
X214916651Y-78085000D02*
X214916651Y-75335000D01*
X214956651Y-73255000D02*
X214956651Y-70490000D01*
X214956651Y-78100000D02*
X214956651Y-75335000D01*
X214996651Y-78116000D02*
X214996651Y-70474000D01*
X215036651Y-78130000D02*
X215036651Y-70460000D01*
X215076651Y-78145000D02*
X215076651Y-70445000D01*
X215116651Y-78158000D02*
X215116651Y-70432000D01*
X215156651Y-78172000D02*
X215156651Y-70418000D01*
X215196651Y-78184000D02*
X215196651Y-70406000D01*
X215236651Y-78197000D02*
X215236651Y-70393000D01*
X215276651Y-78209000D02*
X215276651Y-70381000D01*
X215316651Y-78220000D02*
X215316651Y-70370000D01*
X215356651Y-78231000D02*
X215356651Y-70359000D01*
X215396651Y-78242000D02*
X215396651Y-70348000D01*
X215436651Y-78252000D02*
X215436651Y-70338000D01*
X215476651Y-78262000D02*
X215476651Y-70328000D01*
X215516651Y-78271000D02*
X215516651Y-70319000D01*
X215556651Y-78280000D02*
X215556651Y-70310000D01*
X215596651Y-78289000D02*
X215596651Y-70301000D01*
X215636651Y-78297000D02*
X215636651Y-70293000D01*
X215676651Y-78305000D02*
X215676651Y-70285000D01*
X215716651Y-78312000D02*
X215716651Y-70278000D01*
X215757651Y-78319000D02*
X215757651Y-70271000D01*
X215797651Y-78325000D02*
X215797651Y-70265000D01*
X215837651Y-78332000D02*
X215837651Y-70258000D01*
X215877651Y-78337000D02*
X215877651Y-70253000D01*
X215917651Y-78343000D02*
X215917651Y-70247000D01*
X215957651Y-78347000D02*
X215957651Y-70243000D01*
X215997651Y-78352000D02*
X215997651Y-70238000D01*
X216037651Y-78356000D02*
X216037651Y-70234000D01*
X216077651Y-78360000D02*
X216077651Y-70230000D01*
X216117651Y-78363000D02*
X216117651Y-70227000D01*
X216157651Y-78366000D02*
X216157651Y-70224000D01*
X216197651Y-78369000D02*
X216197651Y-70221000D01*
X216237651Y-78371000D02*
X216237651Y-70219000D01*
X216277651Y-78372000D02*
X216277651Y-70218000D01*
X216317651Y-78374000D02*
X216317651Y-70216000D01*
X216357651Y-78375000D02*
X216357651Y-70215000D01*
X216397651Y-78375000D02*
X216397651Y-70215000D01*
X216437651Y-78375000D02*
X216437651Y-70215000D01*
X220447349Y-77010000D02*
X220447349Y-76210000D01*
X220847349Y-76610000D02*
X220047349Y-76610000D01*
X220557651Y-74295000D02*
G75*
G02*
X212317651Y-74295000I-4120000J0D01*
G01*
X212317651Y-74295000D02*
G75*
G02*
X220557651Y-74295000I4120000J0D01*
G01*
%TO.C,R12*%
X264795000Y-78640000D02*
X264795000Y-78570000D01*
X266165000Y-80010000D02*
G75*
G02*
X263425000Y-80010000I-1370000J0D01*
G01*
X263425000Y-80010000D02*
G75*
G02*
X266165000Y-80010000I1370000J0D01*
G01*
%TO.C,Q2*%
X211535000Y-47520000D02*
X211535000Y-43920000D01*
X207335000Y-44610000D02*
G75*
G02*
X208586629Y-43364542I2350000J-1110000D01*
G01*
X208581158Y-48087199D02*
G75*
G02*
X207335000Y-46860000I1103842J2367199D01*
G01*
X210807795Y-43395816D02*
G75*
G02*
X211535000Y-43920000I-1122795J-2324184D01*
G01*
X211535000Y-47520000D02*
G75*
G02*
X210807795Y-48044184I-1850000J1800000D01*
G01*
%TO.C,R10*%
X225140000Y-46340000D02*
X225140000Y-50180000D01*
X225140000Y-50180000D02*
X226980000Y-50180000D01*
X226060000Y-45390000D02*
X226060000Y-46340000D01*
X226060000Y-51130000D02*
X226060000Y-50180000D01*
X226980000Y-46340000D02*
X225140000Y-46340000D01*
X226980000Y-50180000D02*
X226980000Y-46340000D01*
%TO.C,D4*%
X254404000Y-92114000D02*
X254404000Y-96354000D01*
X254404000Y-96354000D02*
X256644000Y-96354000D01*
X255524000Y-91464000D02*
X255524000Y-92114000D01*
X255524000Y-97004000D02*
X255524000Y-96354000D01*
X256644000Y-92114000D02*
X254404000Y-92114000D01*
X256644000Y-92714000D02*
X254404000Y-92714000D01*
X256644000Y-92834000D02*
X254404000Y-92834000D01*
X256644000Y-92954000D02*
X254404000Y-92954000D01*
X256644000Y-96354000D02*
X256644000Y-92114000D01*
%TO.C,Q6*%
X231300000Y-58114000D02*
X231300000Y-66355000D01*
X231620000Y-60635000D02*
X231300000Y-60635000D01*
X231620000Y-63835000D02*
X231300000Y-63835000D01*
X234790000Y-58114000D02*
X231300000Y-58114000D01*
X234790000Y-58114000D02*
X234790000Y-66355000D01*
X234790000Y-60635000D02*
X233720000Y-60635000D01*
X234790000Y-63835000D02*
X233720000Y-63835000D01*
X234790000Y-66355000D02*
X231300000Y-66355000D01*
%TO.C,R21*%
X245280000Y-69876000D02*
X245280000Y-82016000D01*
X245280000Y-82016000D02*
X250020000Y-82016000D01*
X247650000Y-69766000D02*
X247650000Y-69876000D01*
X247650000Y-82126000D02*
X247650000Y-82016000D01*
X250020000Y-69876000D02*
X245280000Y-69876000D01*
X250020000Y-82016000D02*
X250020000Y-69876000D01*
%TO.C,Q3*%
X212010000Y-33760000D02*
X212010000Y-37360000D01*
X212010000Y-33760000D02*
G75*
G02*
X212737205Y-33235816I1850000J-1800000D01*
G01*
X212737205Y-37884184D02*
G75*
G02*
X212010000Y-37360000I1122795J2324184D01*
G01*
X214963842Y-33192801D02*
G75*
G02*
X216210000Y-34420000I-1103842J-2367199D01*
G01*
X216210000Y-36670000D02*
G75*
G02*
X214958371Y-37915458I-2350000J1110000D01*
G01*
%TO.C,C15*%
X233135000Y-106330000D02*
X233135000Y-109570000D01*
X233135000Y-106330000D02*
X240575000Y-106330000D01*
X233135000Y-109570000D02*
X240575000Y-109570000D01*
X240575000Y-106330000D02*
X240575000Y-109570000D01*
%TO.C,D9*%
X259404000Y-103124000D02*
X260424000Y-103124000D01*
X260424000Y-101654000D02*
X260424000Y-104594000D01*
X260424000Y-104594000D02*
X265864000Y-104594000D01*
X261204000Y-101654000D02*
X261204000Y-104594000D01*
X261324000Y-101654000D02*
X261324000Y-104594000D01*
X261444000Y-101654000D02*
X261444000Y-104594000D01*
X265864000Y-101654000D02*
X260424000Y-101654000D01*
X265864000Y-104594000D02*
X265864000Y-101654000D01*
X266884000Y-103124000D02*
X265864000Y-103124000D01*
%TO.C,C3*%
X249840000Y-58510000D02*
X253080000Y-58510000D01*
X249840000Y-65950000D02*
X249840000Y-58510000D01*
X249840000Y-65950000D02*
X253080000Y-65950000D01*
X253080000Y-65950000D02*
X253080000Y-58510000D01*
%TO.C,C13*%
X235415000Y-98266000D02*
X228075000Y-98266000D01*
X235415000Y-98306000D02*
X228085000Y-98306000D01*
X235415000Y-98346000D02*
X228096000Y-98346000D01*
X235415000Y-98386000D02*
X228107000Y-98386000D01*
X235415000Y-98426000D02*
X228118000Y-98426000D01*
X235415000Y-98466000D02*
X228130000Y-98466000D01*
X235415000Y-98506000D02*
X228141000Y-98506000D01*
X235415000Y-98546000D02*
X228153000Y-98546000D01*
X235415000Y-98586000D02*
X228165000Y-98586000D01*
X235415000Y-98626000D02*
X228177000Y-98626000D01*
X235415000Y-98666000D02*
X228190000Y-98666000D01*
X235415000Y-98706000D02*
X228202000Y-98706000D01*
X235415000Y-98746000D02*
X228215000Y-98746000D01*
X235415000Y-98786000D02*
X228228000Y-98786000D01*
X235415000Y-98826000D02*
X228241000Y-98826000D01*
X235415000Y-98866000D02*
X228255000Y-98866000D01*
X235415000Y-98906000D02*
X228268000Y-98906000D01*
X235415000Y-98946000D02*
X228282000Y-98946000D01*
X235415000Y-98986000D02*
X228296000Y-98986000D01*
X235415000Y-99026000D02*
X228310000Y-99026000D01*
X235415000Y-99066000D02*
X228325000Y-99066000D01*
X235415000Y-99106000D02*
X228339000Y-99106000D01*
X235415000Y-99146000D02*
X228354000Y-99146000D01*
X235415000Y-99186000D02*
X228369000Y-99186000D01*
X235415000Y-99226000D02*
X228385000Y-99226000D01*
X235415000Y-99266000D02*
X228400000Y-99266000D01*
X235415000Y-99306000D02*
X228416000Y-99306000D01*
X235415000Y-99346000D02*
X228432000Y-99346000D01*
X235415000Y-99386000D02*
X228448000Y-99386000D01*
X235415000Y-99426000D02*
X228465000Y-99426000D01*
X235415000Y-99466000D02*
X228481000Y-99466000D01*
X235415000Y-99506000D02*
X228498000Y-99506000D01*
X235415000Y-99546000D02*
X228515000Y-99546000D01*
X235415000Y-99586000D02*
X228532000Y-99586000D01*
X235415000Y-99626000D02*
X228550000Y-99626000D01*
X235415000Y-99666000D02*
X228568000Y-99666000D01*
X235415000Y-99706000D02*
X228586000Y-99706000D01*
X235415000Y-99746000D02*
X228604000Y-99746000D01*
X235415000Y-99786000D02*
X228622000Y-99786000D01*
X235415000Y-99826000D02*
X228641000Y-99826000D01*
X235415000Y-99866000D02*
X228660000Y-99866000D01*
X235415000Y-99906000D02*
X228679000Y-99906000D01*
X235415000Y-99946000D02*
X228699000Y-99946000D01*
X235415000Y-99986000D02*
X228718000Y-99986000D01*
X235415000Y-100026000D02*
X228738000Y-100026000D01*
X235415000Y-100066000D02*
X228758000Y-100066000D01*
X235415000Y-100106000D02*
X228779000Y-100106000D01*
X235415000Y-100146000D02*
X228799000Y-100146000D01*
X235415000Y-100186000D02*
X228820000Y-100186000D01*
X235415000Y-100226000D02*
X228841000Y-100226000D01*
X235415000Y-100266000D02*
X228863000Y-100266000D01*
X235415000Y-100306000D02*
X228884000Y-100306000D01*
X235415000Y-100346000D02*
X228906000Y-100346000D01*
X235415000Y-100386000D02*
X228928000Y-100386000D01*
X235415000Y-100426000D02*
X228951000Y-100426000D01*
X235415000Y-100466000D02*
X228973000Y-100466000D01*
X235415000Y-100506000D02*
X228996000Y-100506000D01*
X235415000Y-100546000D02*
X229020000Y-100546000D01*
X235415000Y-100586000D02*
X229043000Y-100586000D01*
X235415000Y-100626000D02*
X229067000Y-100626000D01*
X235415000Y-100666000D02*
X229091000Y-100666000D01*
X235415000Y-100706000D02*
X229115000Y-100706000D01*
X235415000Y-100746000D02*
X229140000Y-100746000D01*
X235415000Y-100786000D02*
X229165000Y-100786000D01*
X235415000Y-100826000D02*
X229190000Y-100826000D01*
X235415000Y-100866000D02*
X229215000Y-100866000D01*
X235415000Y-100906000D02*
X229241000Y-100906000D01*
X235415000Y-100946000D02*
X229267000Y-100946000D01*
X235415000Y-100986000D02*
X229294000Y-100986000D01*
X235415000Y-101026000D02*
X229320000Y-101026000D01*
X235415000Y-101066000D02*
X229347000Y-101066000D01*
X235415000Y-101106000D02*
X229375000Y-101106000D01*
X236895000Y-105065000D02*
X236815000Y-105065000D01*
X237669000Y-105025000D02*
X236041000Y-105025000D01*
X238021000Y-104985000D02*
X235689000Y-104985000D01*
X238290000Y-104945000D02*
X235420000Y-104945000D01*
X238516000Y-104905000D02*
X235194000Y-104905000D01*
X238715000Y-104865000D02*
X234995000Y-104865000D01*
X238894000Y-104825000D02*
X234816000Y-104825000D01*
X239058000Y-104785000D02*
X234652000Y-104785000D01*
X239210000Y-104745000D02*
X234500000Y-104745000D01*
X239353000Y-104705000D02*
X234357000Y-104705000D01*
X239487000Y-104665000D02*
X234223000Y-104665000D01*
X239614000Y-104625000D02*
X234096000Y-104625000D01*
X239735000Y-104585000D02*
X233975000Y-104585000D01*
X239851000Y-104545000D02*
X233859000Y-104545000D01*
X239962000Y-104505000D02*
X233748000Y-104505000D01*
X240069000Y-104465000D02*
X233641000Y-104465000D01*
X240172000Y-104425000D02*
X233538000Y-104425000D01*
X240271000Y-104385000D02*
X233439000Y-104385000D01*
X240367000Y-104345000D02*
X233343000Y-104345000D01*
X240460000Y-104305000D02*
X233250000Y-104305000D01*
X240551000Y-104265000D02*
X233159000Y-104265000D01*
X240639000Y-104225000D02*
X233071000Y-104225000D01*
X240724000Y-104185000D02*
X232986000Y-104185000D01*
X240807000Y-104145000D02*
X232903000Y-104145000D01*
X240888000Y-104106000D02*
X232822000Y-104106000D01*
X240968000Y-104066000D02*
X232742000Y-104066000D01*
X241045000Y-104026000D02*
X232665000Y-104026000D01*
X241120000Y-103986000D02*
X232590000Y-103986000D01*
X241194000Y-103946000D02*
X232516000Y-103946000D01*
X241267000Y-103906000D02*
X232443000Y-103906000D01*
X241337000Y-103866000D02*
X232373000Y-103866000D01*
X241407000Y-103826000D02*
X232303000Y-103826000D01*
X241475000Y-103786000D02*
X232235000Y-103786000D01*
X241541000Y-103746000D02*
X232169000Y-103746000D01*
X241607000Y-103706000D02*
X232103000Y-103706000D01*
X241671000Y-103666000D02*
X232039000Y-103666000D01*
X241734000Y-103626000D02*
X231976000Y-103626000D01*
X241796000Y-103586000D02*
X231914000Y-103586000D01*
X241857000Y-103546000D02*
X231853000Y-103546000D01*
X241917000Y-103506000D02*
X231793000Y-103506000D01*
X241970000Y-86185560D02*
X241970000Y-87985560D01*
X241975000Y-103466000D02*
X231735000Y-103466000D01*
X242033000Y-103426000D02*
X231677000Y-103426000D01*
X242090000Y-103386000D02*
X231620000Y-103386000D01*
X242146000Y-103346000D02*
X231564000Y-103346000D01*
X242201000Y-103306000D02*
X231509000Y-103306000D01*
X242255000Y-103266000D02*
X231455000Y-103266000D01*
X242309000Y-103226000D02*
X231401000Y-103226000D01*
X242361000Y-103186000D02*
X231349000Y-103186000D01*
X242413000Y-103146000D02*
X231297000Y-103146000D01*
X242464000Y-103106000D02*
X231246000Y-103106000D01*
X242515000Y-103066000D02*
X231195000Y-103066000D01*
X242564000Y-103026000D02*
X231146000Y-103026000D01*
X242613000Y-102986000D02*
X231097000Y-102986000D01*
X242661000Y-102946000D02*
X231049000Y-102946000D01*
X242709000Y-102906000D02*
X231001000Y-102906000D01*
X242756000Y-102866000D02*
X230954000Y-102866000D01*
X242802000Y-102826000D02*
X230908000Y-102826000D01*
X242848000Y-102786000D02*
X230862000Y-102786000D01*
X242870000Y-87085560D02*
X241070000Y-87085560D01*
X242893000Y-102746000D02*
X230817000Y-102746000D01*
X242937000Y-102706000D02*
X230773000Y-102706000D01*
X242981000Y-102666000D02*
X230729000Y-102666000D01*
X243025000Y-102626000D02*
X230685000Y-102626000D01*
X243067000Y-102586000D02*
X230643000Y-102586000D01*
X243109000Y-102546000D02*
X230601000Y-102546000D01*
X243151000Y-102506000D02*
X230559000Y-102506000D01*
X243192000Y-102466000D02*
X230518000Y-102466000D01*
X243233000Y-102426000D02*
X230477000Y-102426000D01*
X243273000Y-102386000D02*
X230437000Y-102386000D01*
X243313000Y-102346000D02*
X230397000Y-102346000D01*
X243352000Y-102306000D02*
X230358000Y-102306000D01*
X243391000Y-102266000D02*
X230319000Y-102266000D01*
X243429000Y-102226000D02*
X230281000Y-102226000D01*
X243467000Y-102186000D02*
X230243000Y-102186000D01*
X243504000Y-102146000D02*
X230206000Y-102146000D01*
X243541000Y-102106000D02*
X230169000Y-102106000D01*
X243577000Y-102066000D02*
X230133000Y-102066000D01*
X243613000Y-102026000D02*
X230097000Y-102026000D01*
X243649000Y-101986000D02*
X230061000Y-101986000D01*
X243684000Y-101946000D02*
X230026000Y-101946000D01*
X243719000Y-101906000D02*
X229991000Y-101906000D01*
X243753000Y-101866000D02*
X229957000Y-101866000D01*
X243787000Y-101826000D02*
X229923000Y-101826000D01*
X243820000Y-101786000D02*
X229890000Y-101786000D01*
X243854000Y-101746000D02*
X229856000Y-101746000D01*
X243886000Y-101706000D02*
X229824000Y-101706000D01*
X243919000Y-101666000D02*
X229791000Y-101666000D01*
X243951000Y-101626000D02*
X229759000Y-101626000D01*
X243982000Y-101586000D02*
X229728000Y-101586000D01*
X244014000Y-101546000D02*
X229696000Y-101546000D01*
X244045000Y-101506000D02*
X229665000Y-101506000D01*
X244075000Y-101466000D02*
X229635000Y-101466000D01*
X244105000Y-101426000D02*
X229605000Y-101426000D01*
X244135000Y-101386000D02*
X229575000Y-101386000D01*
X244165000Y-101346000D02*
X229545000Y-101346000D01*
X244194000Y-101306000D02*
X229516000Y-101306000D01*
X244223000Y-101266000D02*
X229487000Y-101266000D01*
X244252000Y-101226000D02*
X229458000Y-101226000D01*
X244280000Y-101186000D02*
X229430000Y-101186000D01*
X244308000Y-101146000D02*
X229402000Y-101146000D01*
X244335000Y-101106000D02*
X238295000Y-101106000D01*
X244363000Y-101066000D02*
X238295000Y-101066000D01*
X244390000Y-101026000D02*
X238295000Y-101026000D01*
X244416000Y-100986000D02*
X238295000Y-100986000D01*
X244443000Y-100946000D02*
X238295000Y-100946000D01*
X244469000Y-100906000D02*
X238295000Y-100906000D01*
X244495000Y-100866000D02*
X238295000Y-100866000D01*
X244520000Y-100826000D02*
X238295000Y-100826000D01*
X244545000Y-100786000D02*
X238295000Y-100786000D01*
X244570000Y-100746000D02*
X238295000Y-100746000D01*
X244595000Y-100706000D02*
X238295000Y-100706000D01*
X244619000Y-100666000D02*
X238295000Y-100666000D01*
X244643000Y-100626000D02*
X238295000Y-100626000D01*
X244667000Y-100586000D02*
X238295000Y-100586000D01*
X244690000Y-100546000D02*
X238295000Y-100546000D01*
X244714000Y-100506000D02*
X238295000Y-100506000D01*
X244737000Y-100466000D02*
X238295000Y-100466000D01*
X244759000Y-100426000D02*
X238295000Y-100426000D01*
X244782000Y-100386000D02*
X238295000Y-100386000D01*
X244804000Y-100346000D02*
X238295000Y-100346000D01*
X244826000Y-100306000D02*
X238295000Y-100306000D01*
X244847000Y-100266000D02*
X238295000Y-100266000D01*
X244869000Y-100226000D02*
X238295000Y-100226000D01*
X244890000Y-100186000D02*
X238295000Y-100186000D01*
X244911000Y-100146000D02*
X238295000Y-100146000D01*
X244931000Y-100106000D02*
X238295000Y-100106000D01*
X244952000Y-100066000D02*
X238295000Y-100066000D01*
X244972000Y-100026000D02*
X238295000Y-100026000D01*
X244992000Y-99986000D02*
X238295000Y-99986000D01*
X245011000Y-99946000D02*
X238295000Y-99946000D01*
X245031000Y-99906000D02*
X238295000Y-99906000D01*
X245050000Y-99866000D02*
X238295000Y-99866000D01*
X245069000Y-99826000D02*
X238295000Y-99826000D01*
X245088000Y-99786000D02*
X238295000Y-99786000D01*
X245106000Y-99746000D02*
X238295000Y-99746000D01*
X245124000Y-99706000D02*
X238295000Y-99706000D01*
X245142000Y-99666000D02*
X238295000Y-99666000D01*
X245160000Y-99626000D02*
X238295000Y-99626000D01*
X245178000Y-99586000D02*
X238295000Y-99586000D01*
X245195000Y-99546000D02*
X238295000Y-99546000D01*
X245212000Y-99506000D02*
X238295000Y-99506000D01*
X245229000Y-99466000D02*
X238295000Y-99466000D01*
X245245000Y-99426000D02*
X238295000Y-99426000D01*
X245262000Y-99386000D02*
X238295000Y-99386000D01*
X245278000Y-99346000D02*
X238295000Y-99346000D01*
X245294000Y-99306000D02*
X238295000Y-99306000D01*
X245310000Y-99266000D02*
X238295000Y-99266000D01*
X245325000Y-99226000D02*
X238295000Y-99226000D01*
X245341000Y-99186000D02*
X238295000Y-99186000D01*
X245356000Y-99146000D02*
X238295000Y-99146000D01*
X245371000Y-99106000D02*
X238295000Y-99106000D01*
X245385000Y-99066000D02*
X238295000Y-99066000D01*
X245400000Y-99026000D02*
X238295000Y-99026000D01*
X245414000Y-98986000D02*
X238295000Y-98986000D01*
X245428000Y-98946000D02*
X238295000Y-98946000D01*
X245442000Y-98906000D02*
X238295000Y-98906000D01*
X245455000Y-98866000D02*
X238295000Y-98866000D01*
X245469000Y-98826000D02*
X238295000Y-98826000D01*
X245482000Y-98786000D02*
X238295000Y-98786000D01*
X245495000Y-98746000D02*
X238295000Y-98746000D01*
X245508000Y-98706000D02*
X238295000Y-98706000D01*
X245520000Y-98666000D02*
X238295000Y-98666000D01*
X245533000Y-98626000D02*
X238295000Y-98626000D01*
X245545000Y-98586000D02*
X238295000Y-98586000D01*
X245557000Y-98546000D02*
X238295000Y-98546000D01*
X245569000Y-98506000D02*
X238295000Y-98506000D01*
X245580000Y-98466000D02*
X238295000Y-98466000D01*
X245592000Y-98426000D02*
X238295000Y-98426000D01*
X245603000Y-98386000D02*
X238295000Y-98386000D01*
X245614000Y-98346000D02*
X238295000Y-98346000D01*
X245625000Y-98306000D02*
X238295000Y-98306000D01*
X245635000Y-98266000D02*
X238295000Y-98266000D01*
X245646000Y-98226000D02*
X228064000Y-98226000D01*
X245656000Y-98186000D02*
X228054000Y-98186000D01*
X245666000Y-98146000D02*
X228044000Y-98146000D01*
X245676000Y-98106000D02*
X228034000Y-98106000D01*
X245686000Y-98066000D02*
X228024000Y-98066000D01*
X245695000Y-98026000D02*
X228015000Y-98026000D01*
X245704000Y-97986000D02*
X228006000Y-97986000D01*
X245713000Y-97946000D02*
X227997000Y-97946000D01*
X245722000Y-97906000D02*
X227988000Y-97906000D01*
X245731000Y-97866000D02*
X227979000Y-97866000D01*
X245740000Y-97826000D02*
X227970000Y-97826000D01*
X245748000Y-97786000D02*
X227962000Y-97786000D01*
X245756000Y-97746000D02*
X227954000Y-97746000D01*
X245764000Y-97706000D02*
X227946000Y-97706000D01*
X245772000Y-97666000D02*
X227938000Y-97666000D01*
X245779000Y-97626000D02*
X227931000Y-97626000D01*
X245787000Y-97586000D02*
X227923000Y-97586000D01*
X245794000Y-97546000D02*
X227916000Y-97546000D01*
X245801000Y-97506000D02*
X227909000Y-97506000D01*
X245808000Y-97466000D02*
X227902000Y-97466000D01*
X245815000Y-97426000D02*
X227895000Y-97426000D01*
X245821000Y-97386000D02*
X227889000Y-97386000D01*
X245827000Y-97346000D02*
X227883000Y-97346000D01*
X245834000Y-97306000D02*
X227876000Y-97306000D01*
X245839000Y-97266000D02*
X227871000Y-97266000D01*
X245845000Y-97226000D02*
X227865000Y-97226000D01*
X245851000Y-97186000D02*
X227859000Y-97186000D01*
X245856000Y-97146000D02*
X227854000Y-97146000D01*
X245861000Y-97106000D02*
X227849000Y-97106000D01*
X245866000Y-97066000D02*
X227844000Y-97066000D01*
X245871000Y-97026000D02*
X227839000Y-97026000D01*
X245876000Y-96986000D02*
X227834000Y-96986000D01*
X245881000Y-96946000D02*
X227829000Y-96946000D01*
X245885000Y-96906000D02*
X227825000Y-96906000D01*
X245889000Y-96866000D02*
X227821000Y-96866000D01*
X245893000Y-96826000D02*
X227817000Y-96826000D01*
X245897000Y-96786000D02*
X227813000Y-96786000D01*
X245900000Y-96746000D02*
X227810000Y-96746000D01*
X245904000Y-96706000D02*
X227806000Y-96706000D01*
X245907000Y-96666000D02*
X227803000Y-96666000D01*
X245910000Y-96625000D02*
X227800000Y-96625000D01*
X245913000Y-96585000D02*
X227797000Y-96585000D01*
X245916000Y-96545000D02*
X227794000Y-96545000D01*
X245918000Y-96505000D02*
X227792000Y-96505000D01*
X245921000Y-96465000D02*
X227789000Y-96465000D01*
X245923000Y-96425000D02*
X227787000Y-96425000D01*
X245925000Y-96385000D02*
X227785000Y-96385000D01*
X245927000Y-96345000D02*
X227783000Y-96345000D01*
X245928000Y-96305000D02*
X227782000Y-96305000D01*
X245930000Y-96265000D02*
X227780000Y-96265000D01*
X245931000Y-96225000D02*
X227779000Y-96225000D01*
X245932000Y-96185000D02*
X227778000Y-96185000D01*
X245933000Y-96145000D02*
X227777000Y-96145000D01*
X245934000Y-96105000D02*
X227776000Y-96105000D01*
X245935000Y-95985000D02*
X227775000Y-95985000D01*
X245935000Y-96025000D02*
X227775000Y-96025000D01*
X245935000Y-96065000D02*
X227775000Y-96065000D01*
X245936000Y-95945000D02*
X227774000Y-95945000D01*
X245975000Y-95945000D02*
G75*
G02*
X227735000Y-95945000I-9120000J0D01*
G01*
X227735000Y-95945000D02*
G75*
G02*
X245975000Y-95945000I9120000J0D01*
G01*
%TO.C,R2*%
X195834000Y-43334000D02*
X195834000Y-43264000D01*
X197204000Y-44704000D02*
G75*
G02*
X194464000Y-44704000I-1370000J0D01*
G01*
X194464000Y-44704000D02*
G75*
G02*
X197204000Y-44704000I1370000J0D01*
G01*
%TO.C,C5*%
X221705000Y-63785000D02*
X221705000Y-67025000D01*
X221705000Y-63785000D02*
X229145000Y-63785000D01*
X221705000Y-67025000D02*
X229145000Y-67025000D01*
X229145000Y-63785000D02*
X229145000Y-67025000D01*
%TO.C,Q10*%
X269595000Y-82100000D02*
X269595000Y-98240000D01*
X274866000Y-82100000D02*
X269595000Y-82100000D01*
X274866000Y-82100000D02*
X274866000Y-98240000D01*
X274866000Y-88366000D02*
X269595000Y-88366000D01*
X274866000Y-91975000D02*
X269595000Y-91975000D01*
X274866000Y-98240000D02*
X269595000Y-98240000D01*
%TO.C,Q11*%
X204575000Y-74875000D02*
X208175000Y-74875000D01*
X204007801Y-71921158D02*
G75*
G02*
X205235000Y-70675000I2367199J-1103842D01*
G01*
X204575000Y-74875000D02*
G75*
G02*
X204050816Y-74147795I1800000J1850000D01*
G01*
X207485000Y-70675000D02*
G75*
G02*
X208730458Y-71926629I-1110000J-2350000D01*
G01*
X208699184Y-74147795D02*
G75*
G02*
X208175000Y-74875000I-2324184J1122795D01*
G01*
%TO.C,R20*%
X240030000Y-62150000D02*
X240030000Y-61190000D01*
X242650000Y-64770000D02*
G75*
G02*
X237410000Y-64770000I-2620000J0D01*
G01*
X237410000Y-64770000D02*
G75*
G02*
X242650000Y-64770000I2620000J0D01*
G01*
%TO.C,C1*%
X200430199Y-49605000D02*
X200830199Y-49605000D01*
X200630199Y-49405000D02*
X200630199Y-49805000D01*
X202700000Y-48720000D02*
X202700000Y-52880000D01*
X202740000Y-48720000D02*
X202740000Y-52880000D01*
X202780000Y-48721000D02*
X202780000Y-52879000D01*
X202820000Y-48723000D02*
X202820000Y-52877000D01*
X202860000Y-48726000D02*
X202860000Y-52874000D01*
X202900000Y-48729000D02*
X202900000Y-49960000D01*
X202900000Y-51640000D02*
X202900000Y-52871000D01*
X202940000Y-48733000D02*
X202940000Y-49960000D01*
X202940000Y-51640000D02*
X202940000Y-52867000D01*
X202980000Y-48738000D02*
X202980000Y-49960000D01*
X202980000Y-51640000D02*
X202980000Y-52862000D01*
X203020000Y-48744000D02*
X203020000Y-49960000D01*
X203020000Y-51640000D02*
X203020000Y-52856000D01*
X203060000Y-48750000D02*
X203060000Y-49960000D01*
X203060000Y-51640000D02*
X203060000Y-52850000D01*
X203100000Y-48758000D02*
X203100000Y-49960000D01*
X203100000Y-51640000D02*
X203100000Y-52842000D01*
X203140000Y-48766000D02*
X203140000Y-49960000D01*
X203140000Y-51640000D02*
X203140000Y-52834000D01*
X203180000Y-48775000D02*
X203180000Y-49960000D01*
X203180000Y-51640000D02*
X203180000Y-52825000D01*
X203220000Y-48784000D02*
X203220000Y-49960000D01*
X203220000Y-51640000D02*
X203220000Y-52816000D01*
X203260000Y-48795000D02*
X203260000Y-49960000D01*
X203260000Y-51640000D02*
X203260000Y-52805000D01*
X203300000Y-48806000D02*
X203300000Y-49960000D01*
X203300000Y-51640000D02*
X203300000Y-52794000D01*
X203340000Y-48818000D02*
X203340000Y-49960000D01*
X203340000Y-51640000D02*
X203340000Y-52782000D01*
X203380000Y-48832000D02*
X203380000Y-49960000D01*
X203380000Y-51640000D02*
X203380000Y-52768000D01*
X203421000Y-48846000D02*
X203421000Y-49960000D01*
X203421000Y-51640000D02*
X203421000Y-52754000D01*
X203461000Y-48860000D02*
X203461000Y-49960000D01*
X203461000Y-51640000D02*
X203461000Y-52740000D01*
X203501000Y-48876000D02*
X203501000Y-49960000D01*
X203501000Y-51640000D02*
X203501000Y-52724000D01*
X203541000Y-48893000D02*
X203541000Y-49960000D01*
X203541000Y-51640000D02*
X203541000Y-52707000D01*
X203581000Y-48911000D02*
X203581000Y-49960000D01*
X203581000Y-51640000D02*
X203581000Y-52689000D01*
X203621000Y-48930000D02*
X203621000Y-49960000D01*
X203621000Y-51640000D02*
X203621000Y-52670000D01*
X203661000Y-48949000D02*
X203661000Y-49960000D01*
X203661000Y-51640000D02*
X203661000Y-52651000D01*
X203701000Y-48970000D02*
X203701000Y-49960000D01*
X203701000Y-51640000D02*
X203701000Y-52630000D01*
X203741000Y-48992000D02*
X203741000Y-49960000D01*
X203741000Y-51640000D02*
X203741000Y-52608000D01*
X203781000Y-49015000D02*
X203781000Y-49960000D01*
X203781000Y-51640000D02*
X203781000Y-52585000D01*
X203821000Y-49040000D02*
X203821000Y-49960000D01*
X203821000Y-51640000D02*
X203821000Y-52560000D01*
X203861000Y-49065000D02*
X203861000Y-49960000D01*
X203861000Y-51640000D02*
X203861000Y-52535000D01*
X203901000Y-49092000D02*
X203901000Y-49960000D01*
X203901000Y-51640000D02*
X203901000Y-52508000D01*
X203941000Y-49120000D02*
X203941000Y-49960000D01*
X203941000Y-51640000D02*
X203941000Y-52480000D01*
X203981000Y-49150000D02*
X203981000Y-49960000D01*
X203981000Y-51640000D02*
X203981000Y-52450000D01*
X204021000Y-49181000D02*
X204021000Y-49960000D01*
X204021000Y-51640000D02*
X204021000Y-52419000D01*
X204061000Y-49213000D02*
X204061000Y-49960000D01*
X204061000Y-51640000D02*
X204061000Y-52387000D01*
X204101000Y-49248000D02*
X204101000Y-49960000D01*
X204101000Y-51640000D02*
X204101000Y-52352000D01*
X204141000Y-49284000D02*
X204141000Y-49960000D01*
X204141000Y-51640000D02*
X204141000Y-52316000D01*
X204181000Y-49322000D02*
X204181000Y-49960000D01*
X204181000Y-51640000D02*
X204181000Y-52278000D01*
X204221000Y-49362000D02*
X204221000Y-49960000D01*
X204221000Y-51640000D02*
X204221000Y-52238000D01*
X204261000Y-49404000D02*
X204261000Y-49960000D01*
X204261000Y-51640000D02*
X204261000Y-52196000D01*
X204301000Y-49449000D02*
X204301000Y-49960000D01*
X204301000Y-51640000D02*
X204301000Y-52151000D01*
X204341000Y-49496000D02*
X204341000Y-49960000D01*
X204341000Y-51640000D02*
X204341000Y-52104000D01*
X204381000Y-49546000D02*
X204381000Y-49960000D01*
X204381000Y-51640000D02*
X204381000Y-52054000D01*
X204421000Y-49600000D02*
X204421000Y-49960000D01*
X204421000Y-51640000D02*
X204421000Y-52000000D01*
X204461000Y-49658000D02*
X204461000Y-49960000D01*
X204461000Y-51640000D02*
X204461000Y-51942000D01*
X204501000Y-49720000D02*
X204501000Y-49960000D01*
X204501000Y-51640000D02*
X204501000Y-51880000D01*
X204541000Y-49787000D02*
X204541000Y-51813000D01*
X204581000Y-49860000D02*
X204581000Y-51740000D01*
X204621000Y-49941000D02*
X204621000Y-51659000D01*
X204661000Y-50032000D02*
X204661000Y-51568000D01*
X204701000Y-50136000D02*
X204701000Y-51464000D01*
X204741000Y-50263000D02*
X204741000Y-51337000D01*
X204781000Y-50430000D02*
X204781000Y-51170000D01*
X204820000Y-50800000D02*
G75*
G02*
X200580000Y-50800000I-2120000J0D01*
G01*
X200580000Y-50800000D02*
G75*
G02*
X204820000Y-50800000I2120000J0D01*
G01*
%TO.C,R15*%
X196385000Y-88545000D02*
X196385000Y-100685000D01*
X196385000Y-100685000D02*
X201125000Y-100685000D01*
X198755000Y-88435000D02*
X198755000Y-88545000D01*
X198755000Y-100795000D02*
X198755000Y-100685000D01*
X201125000Y-88545000D02*
X196385000Y-88545000D01*
X201125000Y-100685000D02*
X201125000Y-88545000D01*
%TO.C,C16*%
X232500000Y-33305000D02*
X232500000Y-36545000D01*
X232500000Y-33305000D02*
X239940000Y-33305000D01*
X232500000Y-36545000D02*
X239940000Y-36545000D01*
X239940000Y-33305000D02*
X239940000Y-36545000D01*
%TD*%
M02*
