%TF.GenerationSoftware,KiCad,Pcbnew,8.0.7*%
%TF.CreationDate,2025-01-25T09:59:56-05:00*%
%TF.ProjectId,classab-amp,636c6173-7361-4622-9d61-6d702e6b6963,rev?*%
%TF.SameCoordinates,Original*%
%TF.FileFunction,Soldermask,Bot*%
%TF.FilePolarity,Negative*%
%FSLAX46Y46*%
G04 Gerber Fmt 4.6, Leading zero omitted, Abs format (unit mm)*
G04 Created by KiCad (PCBNEW 8.0.7) date 2025-01-25 09:59:56*
%MOMM*%
%LPD*%
G01*
G04 APERTURE LIST*
%ADD10C,1.600000*%
%ADD11O,1.600000X1.600000*%
%ADD12R,1.600000X1.600000*%
%ADD13C,1.400000*%
%ADD14O,1.400000X1.400000*%
%ADD15C,2.400000*%
%ADD16O,2.400000X2.400000*%
%ADD17R,1.500000X1.500000*%
%ADD18C,1.500000*%
%ADD19R,2.400000X2.400000*%
%ADD20C,3.200000*%
%ADD21R,2.200000X2.200000*%
%ADD22O,2.200000X2.200000*%
%ADD23C,3.000000*%
%ADD24R,1.800000X1.710000*%
%ADD25O,1.800000X1.710000*%
%ADD26R,1.200000X1.200000*%
%ADD27C,1.200000*%
%ADD28R,2.600000X2.600000*%
%ADD29C,2.600000*%
%ADD30C,5.700000*%
%ADD31C,1.512000*%
%ADD32R,4.500000X2.500000*%
%ADD33O,4.500000X2.500000*%
G04 APERTURE END LIST*
D10*
%TO.C,R24*%
X208788000Y-53848000D03*
D11*
X208788000Y-56388000D03*
%TD*%
D10*
%TO.C,R23*%
X213360000Y-55909000D03*
D11*
X213360000Y-53369000D03*
%TD*%
D12*
%TO.C,D1*%
X220472000Y-69596000D03*
D11*
X228092000Y-69596000D03*
%TD*%
D13*
%TO.C,R22*%
X195580000Y-70612000D03*
D14*
X195580000Y-78232000D03*
%TD*%
D15*
%TO.C,R16*%
X260350000Y-46990000D03*
D16*
X260350000Y-62230000D03*
%TD*%
D17*
%TO.C,Q16*%
X222885000Y-59190000D03*
D18*
X225425000Y-56650000D03*
X227965000Y-59190000D03*
%TD*%
D19*
%TO.C,C14*%
X237490000Y-43512220D03*
D15*
X237490000Y-51012220D03*
%TD*%
D17*
%TO.C,Q4*%
X209685000Y-38100000D03*
D18*
X207145000Y-35560000D03*
X209685000Y-33020000D03*
%TD*%
D17*
%TO.C,Q1*%
X213995000Y-43180000D03*
D18*
X216535000Y-45720000D03*
X213995000Y-48260000D03*
%TD*%
D13*
%TO.C,R5*%
X210820000Y-77470000D03*
D14*
X203200000Y-77470000D03*
%TD*%
D20*
%TO.C,REF\u002A\u002A*%
X273685000Y-109220000D03*
%TD*%
D21*
%TO.C,D6*%
X250190000Y-55245000D03*
D22*
X250190000Y-45085000D03*
%TD*%
D10*
%TO.C,C2*%
X195580000Y-50205000D03*
X195580000Y-55205000D03*
%TD*%
D13*
%TO.C,R9*%
X217805000Y-59055000D03*
D14*
X217805000Y-66675000D03*
%TD*%
D13*
%TO.C,R3*%
X221615000Y-34290000D03*
D14*
X221615000Y-41910000D03*
%TD*%
D21*
%TO.C,D11*%
X250190000Y-87630000D03*
D22*
X250190000Y-97790000D03*
%TD*%
D23*
%TO.C,J2*%
X260985000Y-109855000D03*
X266065000Y-109855000D03*
%TD*%
D24*
%TO.C,Q7*%
X272548000Y-71120000D03*
D25*
X272548000Y-73400000D03*
X272548000Y-75680000D03*
%TD*%
D21*
%TO.C,D10*%
X245110000Y-107950000D03*
D22*
X255270000Y-107950000D03*
%TD*%
D13*
%TO.C,R14*%
X211455000Y-92710000D03*
D14*
X211455000Y-100330000D03*
%TD*%
D23*
%TO.C,J5*%
X224536000Y-88265000D03*
X224536000Y-83185000D03*
%TD*%
D21*
%TO.C,D7*%
X254635000Y-34925000D03*
D22*
X244475000Y-34925000D03*
%TD*%
D26*
%TO.C,C6*%
X263930000Y-73025000D03*
D27*
X265930000Y-73025000D03*
%TD*%
D15*
%TO.C,R17*%
X260350000Y-83820000D03*
D16*
X260350000Y-99060000D03*
%TD*%
D10*
%TO.C,R11*%
X264795000Y-68580000D03*
D11*
X264795000Y-66040000D03*
%TD*%
D13*
%TO.C,R13*%
X216535000Y-92710000D03*
D14*
X216535000Y-100330000D03*
%TD*%
D17*
%TO.C,Q15*%
X203835000Y-65405000D03*
D18*
X206375000Y-62865000D03*
X208915000Y-65405000D03*
%TD*%
D10*
%TO.C,R1*%
X202565000Y-44733000D03*
D11*
X202565000Y-42193000D03*
%TD*%
D13*
%TO.C,R18*%
X267970000Y-80010000D03*
D14*
X275590000Y-80010000D03*
%TD*%
D24*
%TO.C,Q8*%
X220472000Y-94880000D03*
D25*
X220472000Y-97160000D03*
X220472000Y-99440000D03*
%TD*%
D13*
%TO.C,R7*%
X213995000Y-59055000D03*
D14*
X213995000Y-66675000D03*
%TD*%
D28*
%TO.C,J1*%
X236220000Y-73740000D03*
D29*
X236220000Y-78740000D03*
%TD*%
D30*
%TO.C,*%
X196850000Y-109220000D03*
%TD*%
D13*
%TO.C,R6*%
X199390000Y-70612000D03*
D14*
X199390000Y-78232000D03*
%TD*%
D31*
%TO.C,RV1*%
X258445000Y-71120000D03*
X258445000Y-73660000D03*
X258445000Y-76200000D03*
%TD*%
D32*
%TO.C,Q9*%
X272161000Y-50800000D03*
D33*
X272161000Y-56250000D03*
X272161000Y-61700000D03*
%TD*%
D21*
%TO.C,D8*%
X263525000Y-40005000D03*
D22*
X253365000Y-40005000D03*
%TD*%
D13*
%TO.C,R4*%
X226695000Y-34290000D03*
D14*
X226695000Y-41910000D03*
%TD*%
D13*
%TO.C,R8*%
X268605000Y-67310000D03*
D14*
X276225000Y-67310000D03*
%TD*%
D23*
%TO.C,J4*%
X260350000Y-35560000D03*
X265430000Y-35560000D03*
%TD*%
D12*
%TO.C,D5*%
X255905000Y-52705000D03*
D11*
X255905000Y-45085000D03*
%TD*%
D13*
%TO.C,R19*%
X221615000Y-44450000D03*
D14*
X221615000Y-52070000D03*
%TD*%
D19*
%TO.C,J3*%
X198120000Y-59825000D03*
D15*
X198120000Y-63325000D03*
%TD*%
D10*
%TO.C,C7*%
X203835000Y-97195000D03*
X203835000Y-102195000D03*
%TD*%
D17*
%TO.C,Q12*%
X214122000Y-86876000D03*
D18*
X216662000Y-84336000D03*
X219202000Y-86876000D03*
%TD*%
D12*
%TO.C,C4*%
X218937651Y-74295000D03*
D10*
X213937651Y-74295000D03*
%TD*%
%TO.C,R12*%
X264795000Y-80010000D03*
D11*
X264795000Y-77470000D03*
%TD*%
D17*
%TO.C,Q2*%
X209685000Y-48260000D03*
D18*
X207145000Y-45720000D03*
X209685000Y-43180000D03*
%TD*%
D13*
%TO.C,R10*%
X226060000Y-52070000D03*
D14*
X226060000Y-44450000D03*
%TD*%
D12*
%TO.C,D4*%
X255524000Y-90424000D03*
D11*
X255524000Y-98044000D03*
%TD*%
D20*
%TO.C,REF\u002A\u002A*%
X196850000Y-34290000D03*
%TD*%
D24*
%TO.C,Q6*%
X232670000Y-59955000D03*
D25*
X232670000Y-62235000D03*
X232670000Y-64515000D03*
%TD*%
D15*
%TO.C,R21*%
X247650000Y-83566000D03*
D16*
X247650000Y-68326000D03*
%TD*%
D17*
%TO.C,Q3*%
X213860000Y-33020000D03*
D18*
X216400000Y-35560000D03*
X213860000Y-38100000D03*
%TD*%
D10*
%TO.C,C15*%
X234355000Y-107950000D03*
X239355000Y-107950000D03*
%TD*%
D21*
%TO.C,D9*%
X258064000Y-103124000D03*
D22*
X268224000Y-103124000D03*
%TD*%
D10*
%TO.C,C3*%
X251460000Y-64730000D03*
X251460000Y-59730000D03*
%TD*%
D19*
%TO.C,C13*%
X236855000Y-92195000D03*
D15*
X236855000Y-99695000D03*
%TD*%
D10*
%TO.C,R2*%
X195834000Y-44704000D03*
D11*
X195834000Y-42164000D03*
%TD*%
D10*
%TO.C,C5*%
X222925000Y-65405000D03*
X227925000Y-65405000D03*
%TD*%
D32*
%TO.C,Q10*%
X272415000Y-84720000D03*
D33*
X272415000Y-90170000D03*
X272415000Y-95620000D03*
%TD*%
D17*
%TO.C,Q11*%
X203835000Y-73025000D03*
D18*
X206375000Y-70485000D03*
X208915000Y-73025000D03*
%TD*%
D20*
%TO.C,REF\u002A\u002A*%
X273685000Y-34290000D03*
%TD*%
D15*
%TO.C,R20*%
X240030000Y-64770000D03*
D16*
X240030000Y-59690000D03*
%TD*%
D26*
%TO.C,C1*%
X201700000Y-50800000D03*
D27*
X203700000Y-50800000D03*
%TD*%
D15*
%TO.C,R15*%
X198755000Y-102235000D03*
D16*
X198755000Y-86995000D03*
%TD*%
D10*
%TO.C,C16*%
X233720000Y-34925000D03*
X238720000Y-34925000D03*
%TD*%
M02*
