%TF.GenerationSoftware,KiCad,Pcbnew,8.0.5*%
%TF.CreationDate,2024-10-27T20:16:48-04:00*%
%TF.ProjectId,classab-amp,636c6173-7361-4622-9d61-6d702e6b6963,rev?*%
%TF.SameCoordinates,Original*%
%TF.FileFunction,Copper,L2,Bot*%
%TF.FilePolarity,Positive*%
%FSLAX46Y46*%
G04 Gerber Fmt 4.6, Leading zero omitted, Abs format (unit mm)*
G04 Created by KiCad (PCBNEW 8.0.5) date 2024-10-27 20:16:48*
%MOMM*%
%LPD*%
G01*
G04 APERTURE LIST*
%TA.AperFunction,ComponentPad*%
%ADD10C,2.400000*%
%TD*%
%TA.AperFunction,ComponentPad*%
%ADD11O,2.400000X2.400000*%
%TD*%
%TA.AperFunction,ComponentPad*%
%ADD12R,1.500000X1.500000*%
%TD*%
%TA.AperFunction,ComponentPad*%
%ADD13C,1.500000*%
%TD*%
%TA.AperFunction,ComponentPad*%
%ADD14R,2.400000X2.400000*%
%TD*%
%TA.AperFunction,ComponentPad*%
%ADD15C,1.400000*%
%TD*%
%TA.AperFunction,ComponentPad*%
%ADD16O,1.400000X1.400000*%
%TD*%
%TA.AperFunction,ComponentPad*%
%ADD17R,2.200000X2.200000*%
%TD*%
%TA.AperFunction,ComponentPad*%
%ADD18O,2.200000X2.200000*%
%TD*%
%TA.AperFunction,ComponentPad*%
%ADD19C,1.600000*%
%TD*%
%TA.AperFunction,ComponentPad*%
%ADD20C,3.000000*%
%TD*%
%TA.AperFunction,ComponentPad*%
%ADD21R,1.800000X1.710000*%
%TD*%
%TA.AperFunction,ComponentPad*%
%ADD22O,1.800000X1.710000*%
%TD*%
%TA.AperFunction,ComponentPad*%
%ADD23R,1.200000X1.200000*%
%TD*%
%TA.AperFunction,ComponentPad*%
%ADD24C,1.200000*%
%TD*%
%TA.AperFunction,ComponentPad*%
%ADD25O,1.600000X1.600000*%
%TD*%
%TA.AperFunction,ComponentPad*%
%ADD26R,2.600000X2.600000*%
%TD*%
%TA.AperFunction,ComponentPad*%
%ADD27C,2.600000*%
%TD*%
%TA.AperFunction,ComponentPad*%
%ADD28C,5.700000*%
%TD*%
%TA.AperFunction,ComponentPad*%
%ADD29C,1.308000*%
%TD*%
%TA.AperFunction,ComponentPad*%
%ADD30R,4.500000X2.500000*%
%TD*%
%TA.AperFunction,ComponentPad*%
%ADD31O,4.500000X2.500000*%
%TD*%
%TA.AperFunction,ComponentPad*%
%ADD32R,1.600000X1.600000*%
%TD*%
%TA.AperFunction,ViaPad*%
%ADD33C,1.000000*%
%TD*%
%TA.AperFunction,Conductor*%
%ADD34C,5.000000*%
%TD*%
%TA.AperFunction,Conductor*%
%ADD35C,4.000000*%
%TD*%
%TA.AperFunction,Conductor*%
%ADD36C,2.000000*%
%TD*%
%TA.AperFunction,Conductor*%
%ADD37C,1.000000*%
%TD*%
%TA.AperFunction,Conductor*%
%ADD38C,0.500000*%
%TD*%
G04 APERTURE END LIST*
D10*
%TO.P,R16,1*%
%TO.N,Net-(D8-A)*%
X260350000Y-46990000D03*
D11*
%TO.P,R16,2*%
%TO.N,Net-(D11-K)*%
X260350000Y-62230000D03*
%TD*%
D12*
%TO.P,Q16,1,E*%
%TO.N,Net-(Q16-E)*%
X222885000Y-59190000D03*
D13*
%TO.P,Q16,2,B*%
%TO.N,Net-(Q16-B)*%
X225425000Y-56650000D03*
%TO.P,Q16,3,C*%
%TO.N,GND*%
X227965000Y-59190000D03*
%TD*%
D14*
%TO.P,C14,1*%
%TO.N,B+*%
X237490000Y-43512220D03*
D10*
%TO.P,C14,2*%
%TO.N,PWRGND*%
X237490000Y-51012220D03*
%TD*%
D12*
%TO.P,Q4,1,E*%
%TO.N,Net-(Q4-E)*%
X209685000Y-38100000D03*
D13*
%TO.P,Q4,2,B*%
%TO.N,/LTP COM*%
X207145000Y-35560000D03*
%TO.P,Q4,3,C*%
%TO.N,Net-(Q16-B)*%
X209685000Y-33020000D03*
%TD*%
D12*
%TO.P,Q1,1,E*%
%TO.N,Net-(Q1-E)*%
X213995000Y-43180000D03*
D13*
%TO.P,Q1,2,B*%
%TO.N,Net-(Q1-B)*%
X216535000Y-45720000D03*
%TO.P,Q1,3,C*%
%TO.N,/LTP COM*%
X213995000Y-48260000D03*
%TD*%
D15*
%TO.P,R5,1*%
%TO.N,Net-(Q11-B)*%
X210820000Y-77470000D03*
D16*
%TO.P,R5,2*%
%TO.N,B-*%
X203200000Y-77470000D03*
%TD*%
D17*
%TO.P,D6,1,K*%
%TO.N,Net-(D6-K)*%
X250190000Y-55245000D03*
D18*
%TO.P,D6,2,A*%
%TO.N,Net-(D5-A)*%
X250190000Y-45085000D03*
%TD*%
D19*
%TO.P,C2,1*%
%TO.N,Net-(Q2-B)*%
X195580000Y-50205000D03*
%TO.P,C2,2*%
%TO.N,GND*%
X195580000Y-55205000D03*
%TD*%
D15*
%TO.P,R9,1*%
%TO.N,Net-(Q1-B)*%
X217805000Y-59055000D03*
D16*
%TO.P,R9,2*%
%TO.N,Net-(D11-K)*%
X217805000Y-66675000D03*
%TD*%
D15*
%TO.P,R3,1*%
%TO.N,B+*%
X221615000Y-34290000D03*
D16*
%TO.P,R3,2*%
%TO.N,Net-(Q4-E)*%
X221615000Y-41910000D03*
%TD*%
D17*
%TO.P,D11,1,K*%
%TO.N,Net-(D11-K)*%
X250190000Y-87630000D03*
D18*
%TO.P,D11,2,A*%
%TO.N,Net-(D11-A)*%
X250190000Y-97790000D03*
%TD*%
D20*
%TO.P,J2,1,1*%
%TO.N,B-*%
X260985000Y-109855000D03*
%TO.P,J2,2,2*%
X266065000Y-109855000D03*
%TD*%
D21*
%TO.P,Q7,1,E*%
%TO.N,Net-(D4-K)*%
X272548000Y-71120000D03*
D22*
%TO.P,Q7,2,C*%
%TO.N,Net-(D6-K)*%
X272548000Y-73400000D03*
%TO.P,Q7,3,B*%
%TO.N,Net-(Q7-B)*%
X272548000Y-75680000D03*
%TD*%
D17*
%TO.P,D10,1,K*%
%TO.N,PWRGND*%
X245110000Y-107950000D03*
D18*
%TO.P,D10,2,A*%
%TO.N,B-*%
X255270000Y-107950000D03*
%TD*%
D15*
%TO.P,R14,1*%
%TO.N,Net-(Q12-B)*%
X213995000Y-92710000D03*
D16*
%TO.P,R14,2*%
%TO.N,B-*%
X213995000Y-100330000D03*
%TD*%
D20*
%TO.P,J5,1,1*%
%TO.N,PWRGND*%
X226060000Y-88265000D03*
%TO.P,J5,2,2*%
X226060000Y-83185000D03*
%TD*%
D17*
%TO.P,D7,1,K*%
%TO.N,B+*%
X254635000Y-34925000D03*
D18*
%TO.P,D7,2,A*%
%TO.N,PWRGND*%
X244475000Y-34925000D03*
%TD*%
D23*
%TO.P,C6,1*%
%TO.N,Net-(D6-K)*%
X263930000Y-73025000D03*
D24*
%TO.P,C6,2*%
%TO.N,Net-(D4-K)*%
X265930000Y-73025000D03*
%TD*%
D10*
%TO.P,R17,1*%
%TO.N,Net-(D11-K)*%
X260350000Y-83820000D03*
D11*
%TO.P,R17,2*%
%TO.N,Net-(D9-K)*%
X260350000Y-99060000D03*
%TD*%
D19*
%TO.P,R11,1*%
%TO.N,Net-(D6-K)*%
X264795000Y-68580000D03*
D25*
%TO.P,R11,2*%
%TO.N,Net-(Q7-B)*%
X264795000Y-66040000D03*
%TD*%
D15*
%TO.P,R13,1*%
%TO.N,Net-(Q12-C)*%
X219075000Y-92710000D03*
D16*
%TO.P,R13,2*%
%TO.N,GND*%
X219075000Y-100330000D03*
%TD*%
D12*
%TO.P,Q15,1,E*%
%TO.N,Net-(Q11-B)*%
X203835000Y-65405000D03*
D13*
%TO.P,Q15,2,B*%
%TO.N,Net-(Q11-C)*%
X206375000Y-62865000D03*
%TO.P,Q15,3,C*%
%TO.N,Net-(Q15-C)*%
X208915000Y-65405000D03*
%TD*%
D19*
%TO.P,R1,1*%
%TO.N,Net-(C1-Pad2)*%
X202565000Y-44733000D03*
D25*
%TO.P,R1,2*%
%TO.N,Net-(Q2-B)*%
X202565000Y-42193000D03*
%TD*%
D15*
%TO.P,R18,1*%
%TO.N,Net-(D4-K)*%
X267970000Y-80010000D03*
D16*
%TO.P,R18,2*%
%TO.N,Net-(Q10-G)*%
X275590000Y-80010000D03*
%TD*%
D21*
%TO.P,Q8,1,E*%
%TO.N,Net-(Q12-B)*%
X224415000Y-94880000D03*
D22*
%TO.P,Q8,2,C*%
%TO.N,Net-(D4-K)*%
X224415000Y-97160000D03*
%TO.P,Q8,3,B*%
%TO.N,Net-(Q12-C)*%
X224415000Y-99440000D03*
%TD*%
D15*
%TO.P,R7,1*%
%TO.N,GND*%
X213995000Y-59055000D03*
D16*
%TO.P,R7,2*%
%TO.N,Net-(C4-Pad2)*%
X213995000Y-66675000D03*
%TD*%
D26*
%TO.P,J1,1,Pin_1*%
%TO.N,/SPEAKER*%
X236220000Y-73740000D03*
D27*
%TO.P,J1,2,Pin_2*%
%TO.N,PWRGND*%
X236220000Y-78740000D03*
%TD*%
D28*
%TO.P,,1*%
%TO.N,CHASSIS*%
X196850000Y-109220000D03*
%TD*%
D15*
%TO.P,R6,1*%
%TO.N,Net-(Q11-C)*%
X198755000Y-70485000D03*
D16*
%TO.P,R6,2*%
%TO.N,GND*%
X198755000Y-78105000D03*
%TD*%
D29*
%TO.P,RV1,1,1*%
%TO.N,Net-(Q7-B)*%
X258445000Y-71120000D03*
%TO.P,RV1,2,2*%
X258445000Y-73660000D03*
%TO.P,RV1,3,3*%
%TO.N,Net-(R12-Pad1)*%
X258445000Y-76200000D03*
%TD*%
D30*
%TO.P,Q9,1,G*%
%TO.N,Net-(Q9-G)*%
X272161000Y-50800000D03*
D31*
%TO.P,Q9,2,D*%
%TO.N,B+*%
X272161000Y-56250000D03*
%TO.P,Q9,3,S*%
%TO.N,Net-(D8-A)*%
X272161000Y-61700000D03*
%TD*%
D17*
%TO.P,D8,1,K*%
%TO.N,B+*%
X263525000Y-40005000D03*
D18*
%TO.P,D8,2,A*%
%TO.N,Net-(D8-A)*%
X253365000Y-40005000D03*
%TD*%
D15*
%TO.P,R4,1*%
%TO.N,B+*%
X226695000Y-34290000D03*
D16*
%TO.P,R4,2*%
%TO.N,Net-(Q3-E)*%
X226695000Y-41910000D03*
%TD*%
D15*
%TO.P,R8,1*%
%TO.N,Net-(D6-K)*%
X268605000Y-67310000D03*
D16*
%TO.P,R8,2*%
%TO.N,Net-(Q9-G)*%
X276225000Y-67310000D03*
%TD*%
D20*
%TO.P,J4,1,1*%
%TO.N,B+*%
X260350000Y-35560000D03*
%TO.P,J4,2,2*%
X265430000Y-35560000D03*
%TD*%
D32*
%TO.P,D5,1,K*%
%TO.N,Net-(D11-K)*%
X255905000Y-52705000D03*
D25*
%TO.P,D5,2,A*%
%TO.N,Net-(D5-A)*%
X255905000Y-45085000D03*
%TD*%
D15*
%TO.P,R19,1*%
%TO.N,B+*%
X221615000Y-44450000D03*
D16*
%TO.P,R19,2*%
%TO.N,Net-(Q16-E)*%
X221615000Y-52070000D03*
%TD*%
D29*
%TO.P,RV2,1,1*%
%TO.N,Net-(Q1-E)*%
X213995000Y-53340000D03*
%TO.P,RV2,2,2*%
%TO.N,Net-(Q15-C)*%
X211455000Y-53340000D03*
%TO.P,RV2,3,3*%
%TO.N,Net-(Q2-E)*%
X208915000Y-53340000D03*
%TD*%
D14*
%TO.P,J3,1,Pin_1*%
%TO.N,GND*%
X198120000Y-59825000D03*
D10*
%TO.P,J3,2,Pin_2*%
%TO.N,Net-(J3-Pin_2)*%
X198120000Y-63325000D03*
%TD*%
D19*
%TO.P,C7,1*%
%TO.N,GND*%
X203835000Y-97195000D03*
%TO.P,C7,2*%
%TO.N,CHASSIS*%
X203835000Y-102195000D03*
%TD*%
D12*
%TO.P,Q12,1,E*%
%TO.N,B-*%
X214122000Y-86876000D03*
D13*
%TO.P,Q12,2,B*%
%TO.N,Net-(Q12-B)*%
X216662000Y-84336000D03*
%TO.P,Q12,3,C*%
%TO.N,Net-(Q12-C)*%
X219202000Y-86876000D03*
%TD*%
D32*
%TO.P,C4,1*%
%TO.N,Net-(Q1-B)*%
X218937651Y-74295000D03*
D19*
%TO.P,C4,2*%
%TO.N,Net-(C4-Pad2)*%
X213937651Y-74295000D03*
%TD*%
%TO.P,R12,1*%
%TO.N,Net-(R12-Pad1)*%
X264795000Y-80010000D03*
D25*
%TO.P,R12,2*%
%TO.N,Net-(D4-K)*%
X264795000Y-77470000D03*
%TD*%
D12*
%TO.P,Q2,1,E*%
%TO.N,Net-(Q2-E)*%
X209685000Y-48260000D03*
D13*
%TO.P,Q2,2,B*%
%TO.N,Net-(Q2-B)*%
X207145000Y-45720000D03*
%TO.P,Q2,3,C*%
%TO.N,Net-(Q16-B)*%
X209685000Y-43180000D03*
%TD*%
D15*
%TO.P,R10,1*%
%TO.N,B+*%
X226060000Y-52070000D03*
D16*
%TO.P,R10,2*%
%TO.N,Net-(Q6-E)*%
X226060000Y-44450000D03*
%TD*%
D32*
%TO.P,D4,1,K*%
%TO.N,Net-(D4-K)*%
X255905000Y-97790000D03*
D25*
%TO.P,D4,2,A*%
%TO.N,Net-(D11-A)*%
X255905000Y-90170000D03*
%TD*%
D21*
%TO.P,Q6,1,E*%
%TO.N,Net-(Q6-E)*%
X232670000Y-59955000D03*
D22*
%TO.P,Q6,2,C*%
%TO.N,Net-(D6-K)*%
X232670000Y-62235000D03*
%TO.P,Q6,3,B*%
%TO.N,Net-(Q16-E)*%
X232670000Y-64515000D03*
%TD*%
D10*
%TO.P,R21,1*%
%TO.N,Net-(D11-K)*%
X247650000Y-83566000D03*
D11*
%TO.P,R21,2*%
%TO.N,/SPEAKER*%
X247650000Y-68326000D03*
%TD*%
D12*
%TO.P,Q3,1,E*%
%TO.N,Net-(Q3-E)*%
X213860000Y-33020000D03*
D13*
%TO.P,Q3,2,B*%
%TO.N,/LTP COM*%
X216400000Y-35560000D03*
%TO.P,Q3,3,C*%
X213860000Y-38100000D03*
%TD*%
D19*
%TO.P,C15,1*%
%TO.N,B-*%
X234355000Y-107950000D03*
%TO.P,C15,2*%
%TO.N,PWRGND*%
X239355000Y-107950000D03*
%TD*%
D17*
%TO.P,D9,1,K*%
%TO.N,Net-(D9-K)*%
X258064000Y-103124000D03*
D18*
%TO.P,D9,2,A*%
%TO.N,B-*%
X268224000Y-103124000D03*
%TD*%
D19*
%TO.P,C3,1*%
%TO.N,Net-(D11-K)*%
X251460000Y-64730000D03*
%TO.P,C3,2*%
%TO.N,Net-(C3-Pad2)*%
X251460000Y-59730000D03*
%TD*%
D14*
%TO.P,C13,1*%
%TO.N,PWRGND*%
X236855000Y-92195000D03*
D10*
%TO.P,C13,2*%
%TO.N,B-*%
X236855000Y-99695000D03*
%TD*%
D19*
%TO.P,R2,1*%
%TO.N,GND*%
X195834000Y-44704000D03*
D25*
%TO.P,R2,2*%
%TO.N,Net-(Q2-B)*%
X195834000Y-42164000D03*
%TD*%
D19*
%TO.P,C5,1*%
%TO.N,Net-(Q16-B)*%
X222925000Y-65405000D03*
%TO.P,C5,2*%
%TO.N,Net-(D6-K)*%
X227925000Y-65405000D03*
%TD*%
D30*
%TO.P,Q10,1,G*%
%TO.N,Net-(Q10-G)*%
X272415000Y-84720000D03*
D31*
%TO.P,Q10,2,D*%
%TO.N,B-*%
X272415000Y-90170000D03*
%TO.P,Q10,3,S*%
%TO.N,Net-(D9-K)*%
X272415000Y-95620000D03*
%TD*%
D12*
%TO.P,Q11,1,E*%
%TO.N,B-*%
X203835000Y-73025000D03*
D13*
%TO.P,Q11,2,B*%
%TO.N,Net-(Q11-B)*%
X206375000Y-70485000D03*
%TO.P,Q11,3,C*%
%TO.N,Net-(Q11-C)*%
X208915000Y-73025000D03*
%TD*%
D10*
%TO.P,R20,1*%
%TO.N,PWRGND*%
X240030000Y-64770000D03*
D11*
%TO.P,R20,2*%
%TO.N,Net-(C3-Pad2)*%
X240030000Y-59690000D03*
%TD*%
D23*
%TO.P,C1,1*%
%TO.N,Net-(J3-Pin_2)*%
X201700000Y-50800000D03*
D24*
%TO.P,C1,2*%
%TO.N,Net-(C1-Pad2)*%
X203700000Y-50800000D03*
%TD*%
D10*
%TO.P,R15,1*%
%TO.N,CHASSIS*%
X198755000Y-102235000D03*
D11*
%TO.P,R15,2*%
%TO.N,GND*%
X198755000Y-86995000D03*
%TD*%
D19*
%TO.P,C16,1*%
%TO.N,PWRGND*%
X233720000Y-34925000D03*
%TO.P,C16,2*%
%TO.N,B+*%
X238720000Y-34925000D03*
%TD*%
D33*
%TO.N,Net-(Q16-B)*%
X219505000Y-60960000D03*
%TD*%
D34*
%TO.N,Net-(D11-K)*%
X254000000Y-83820000D02*
X253746000Y-83566000D01*
D35*
X250190000Y-86106000D02*
X247650000Y-83566000D01*
X250190000Y-87630000D02*
X254000000Y-83820000D01*
D34*
X254000000Y-83820000D02*
X260350000Y-83820000D01*
D36*
X253604591Y-64730000D02*
X253746000Y-64871409D01*
X251460000Y-64730000D02*
X253604591Y-64730000D01*
D34*
X253746000Y-64871409D02*
X256047118Y-62570291D01*
D35*
X250190000Y-87630000D02*
X250190000Y-86106000D01*
D34*
X256047118Y-62570291D02*
X260009709Y-62570291D01*
X253746000Y-83566000D02*
X253746000Y-64871409D01*
D37*
%TO.N,Net-(Q16-B)*%
X215995000Y-59649164D02*
X217305836Y-60960000D01*
X211435000Y-48440890D02*
X215995000Y-53000890D01*
X219505000Y-59055000D02*
X219505000Y-60960000D01*
X217305836Y-60960000D02*
X219505000Y-60960000D01*
X211435000Y-44930000D02*
X211435000Y-48440890D01*
X215995000Y-53000890D02*
X215995000Y-59649164D01*
X225425000Y-56650000D02*
X221910000Y-56650000D01*
X209685000Y-43180000D02*
X211435000Y-44930000D01*
X221910000Y-56650000D02*
X219505000Y-59055000D01*
%TO.N,Net-(Q1-B)*%
X217805000Y-46990000D02*
X217805000Y-59055000D01*
X216535000Y-45720000D02*
X217805000Y-46990000D01*
%TO.N,Net-(Q4-E)*%
X209685000Y-38100000D02*
X211435000Y-39850000D01*
X219555000Y-39850000D02*
X221615000Y-41910000D01*
X211435000Y-39850000D02*
X219555000Y-39850000D01*
%TO.N,Net-(Q7-B)*%
X266595000Y-70115366D02*
X266595000Y-67205000D01*
X272159634Y-75680000D02*
X266595000Y-70115366D01*
X265430000Y-66040000D02*
X264795000Y-66040000D01*
X272548000Y-75680000D02*
X272159634Y-75680000D01*
X266595000Y-67205000D02*
X265430000Y-66040000D01*
D36*
%TO.N,GND*%
X197801623Y-59825000D02*
X198120000Y-59825000D01*
X198755000Y-86995000D02*
X194945000Y-83185000D01*
X227965000Y-59190000D02*
X224050000Y-63105000D01*
X194945000Y-62681623D02*
X197801623Y-59825000D01*
X200955000Y-75905000D02*
X200955000Y-61715000D01*
X215940000Y-97195000D02*
X219075000Y-100330000D01*
X195580000Y-57285000D02*
X198120000Y-59825000D01*
D37*
X195834000Y-45212000D02*
X198120000Y-47498000D01*
X198120000Y-47498000D02*
X198120000Y-59825000D01*
D36*
X198755000Y-86995000D02*
X198755000Y-88305000D01*
X195580000Y-55205000D02*
X195580000Y-57285000D01*
X198755000Y-78105000D02*
X200955000Y-75905000D01*
X200955000Y-61715000D02*
X199065000Y-59825000D01*
X213995000Y-59055000D02*
X210185000Y-59055000D01*
X200160000Y-57785000D02*
X208915000Y-57785000D01*
X200160000Y-57785000D02*
X198120000Y-59825000D01*
X194945000Y-83185000D02*
X194945000Y-62681623D01*
X208915000Y-57785000D02*
X214235000Y-63105000D01*
X203835000Y-97195000D02*
X215940000Y-97195000D01*
D37*
X195834000Y-44704000D02*
X195834000Y-45212000D01*
D36*
X210185000Y-59055000D02*
X208915000Y-57785000D01*
X224050000Y-63105000D02*
X214235000Y-63105000D01*
X203835000Y-93385000D02*
X203835000Y-97195000D01*
X199065000Y-59825000D02*
X198120000Y-59825000D01*
X198515000Y-59430000D02*
X198120000Y-59825000D01*
X198755000Y-88305000D02*
X203835000Y-93385000D01*
%TO.N,B+*%
X221615000Y-44450000D02*
X221615000Y-47625000D01*
X238720000Y-34925000D02*
X238720000Y-42282220D01*
X224495000Y-42559949D02*
X224495000Y-36490000D01*
D34*
X272161000Y-56250000D02*
X268111000Y-56250000D01*
D36*
X221615000Y-44450000D02*
X222604949Y-44450000D01*
D35*
X265430000Y-35560000D02*
X260350000Y-35560000D01*
D34*
X268111000Y-56250000D02*
X266065000Y-54204000D01*
D36*
X224495000Y-36490000D02*
X226695000Y-34290000D01*
D34*
X251666724Y-35905000D02*
X259425000Y-35905000D01*
X237490000Y-43512220D02*
X244142780Y-43512220D01*
X249265000Y-38390000D02*
X249265000Y-38306724D01*
X259425000Y-35905000D02*
X263525000Y-40005000D01*
D36*
X238720000Y-42282220D02*
X237490000Y-43512220D01*
D34*
X249265000Y-38306724D02*
X251666724Y-35905000D01*
X266065000Y-54204000D02*
X266065000Y-42545000D01*
D36*
X222604949Y-44450000D02*
X224495000Y-42559949D01*
D34*
X266065000Y-42545000D02*
X263525000Y-40005000D01*
X244142780Y-43512220D02*
X249265000Y-38390000D01*
D36*
X221615000Y-47625000D02*
X226060000Y-52070000D01*
D34*
%TO.N,B-*%
X266065000Y-109855000D02*
X266065000Y-103124000D01*
X259080000Y-107950000D02*
X260985000Y-109855000D01*
X266065000Y-109855000D02*
X260985000Y-109855000D01*
D36*
X234355000Y-102195000D02*
X236855000Y-99695000D01*
D34*
X266065000Y-103124000D02*
X266065000Y-96670000D01*
X266065000Y-96670000D02*
X263365000Y-93970000D01*
D36*
X234315000Y-102235000D02*
X236855000Y-99695000D01*
D34*
X236855000Y-99695000D02*
X238552056Y-99695000D01*
X268224000Y-103124000D02*
X266065000Y-103124000D01*
X238552056Y-99695000D02*
X240747056Y-101890000D01*
X255270000Y-107950000D02*
X259080000Y-107950000D01*
D36*
X234355000Y-107950000D02*
X234355000Y-102195000D01*
D34*
X263365000Y-93970000D02*
X267165000Y-90170000D01*
X240747056Y-101890000D02*
X249210000Y-101890000D01*
X267165000Y-90170000D02*
X272415000Y-90170000D01*
X249210000Y-101890000D02*
X255270000Y-107950000D01*
D37*
%TO.N,Net-(Q12-C)*%
X219075000Y-95910000D02*
X222605000Y-99440000D01*
X219075000Y-92710000D02*
X219075000Y-95910000D01*
X222605000Y-99440000D02*
X224415000Y-99440000D01*
%TO.N,Net-(D6-K)*%
X250607283Y-55245000D02*
X259715000Y-55245000D01*
X262995000Y-66785585D02*
X264789415Y-68580000D01*
X231095000Y-62235000D02*
X232670000Y-62235000D01*
X264789415Y-68580000D02*
X264795000Y-68580000D01*
X263525000Y-59055000D02*
X263525000Y-64764415D01*
X227925000Y-65405000D02*
X231095000Y-62235000D01*
X263525000Y-64764415D02*
X262995000Y-65294415D01*
X262995000Y-65294415D02*
X262995000Y-66785585D01*
X259715000Y-55245000D02*
X263525000Y-59055000D01*
D38*
X250190000Y-55245000D02*
X250607283Y-55245000D01*
D37*
%TO.N,Net-(Q11-C)*%
X206375000Y-62865000D02*
X206375000Y-68010126D01*
X208915000Y-70550126D02*
X208915000Y-73025000D01*
X206375000Y-68010126D02*
X208915000Y-70550126D01*
D34*
%TO.N,/SPEAKER*%
X246634000Y-68326000D02*
X241220000Y-73740000D01*
X241220000Y-73740000D02*
X236220000Y-73740000D01*
X247650000Y-68326000D02*
X246634000Y-68326000D01*
D36*
%TO.N,CHASSIS*%
X196850000Y-104140000D02*
X198755000Y-102235000D01*
X203835000Y-102195000D02*
X198795000Y-102195000D01*
X196850000Y-108585000D02*
X196850000Y-104140000D01*
D37*
X198795000Y-102195000D02*
X198755000Y-102235000D01*
%TO.N,/LTP COM*%
X211320000Y-35560000D02*
X213860000Y-38100000D01*
X207145000Y-35560000D02*
X211320000Y-35560000D01*
%TO.N,Net-(Q11-B)*%
X203835000Y-65405000D02*
X203835000Y-67945000D01*
X203835000Y-67945000D02*
X206375000Y-70485000D01*
D35*
%TO.N,PWRGND*%
X231140000Y-78740000D02*
X236220000Y-78740000D01*
D34*
X226695000Y-83185000D02*
X231140000Y-78740000D01*
X241727056Y-64785000D02*
X240030000Y-64785000D01*
X226060000Y-83185000D02*
X226695000Y-83185000D01*
D35*
X236930000Y-67870000D02*
X233755000Y-67870000D01*
X233755000Y-67870000D02*
X229870000Y-71755000D01*
D34*
X244230000Y-57752220D02*
X244230000Y-62282056D01*
X237490000Y-51012220D02*
X244230000Y-57752220D01*
D36*
X232920001Y-35724999D02*
X232920001Y-46442221D01*
D34*
X236855000Y-92195000D02*
X236855000Y-79375000D01*
D36*
X233720000Y-34925000D02*
X232920001Y-35724999D01*
D34*
X226060000Y-88265000D02*
X226060000Y-83185000D01*
X244230000Y-62282056D02*
X241727056Y-64785000D01*
D35*
X240030000Y-64770000D02*
X236930000Y-67870000D01*
X229870000Y-77470000D02*
X231140000Y-78740000D01*
X229870000Y-71755000D02*
X229870000Y-77470000D01*
D36*
X232920001Y-46442221D02*
X237490000Y-51012220D01*
%TD*%
M02*
